<svg
  title="hamburgerIcon"
  width="24"
  height="24"
  viewBox="0 0 24 24"
  fill="none"
  xmlns="http://www.w3.org/2000/svg"
>
  <path
    fillRule="evenodd"
    clipRule="evenodd"
    d="M 0,0.75 C 0,0.33579 0.33579,0 0.75,0 h 16.5 C 17.6642,0 18,0.33579 18,0.75 18,1.16421 17.6642,1.5 17.25,1.5 H 0.75 C 0.33579,1.5 0,1.16421 0,0.75 Z M 0,6 C 0,5.5858 0.33579,5.25 0.75,5.25 h 16.5 C 17.6642,5.25 18,5.5858 18,6 18,6.4142 17.6642,6.75 17.25,6.75 H 0.75 C 0.33579,6.75 0,6.4142 0,6 Z m 0,5.25 C 0,10.8358 0.33579,10.5 0.75,10.5 h 16.5 C 17.6642,10.5 18,10.8358 18,11.25 18,11.6642 17.6642,12 17.25,12 H 0.75 C 0.33579,12 0,11.6642 0,11.25 Z"
    fill="white"
    style="fill:#3c3393;fill-opacity:1"
  />
</svg>
