<svg width="194" height="196" viewBox="0 0 194 196" fill="none" xmlns="http://www.w3.org/2000/svg">
<path fill-rule="evenodd" clip-rule="evenodd" d="M80.0731 6.34988C74.0637 10.964 69.0312 16.6955 65.2331 23.2201C59.0105 21.9693 52.3051 21.7031 45.516 22.6824C47.22 15.2273 50.7113 8.21079 55.7551 2.3497C56.929 0.99215 58.6671 0.263803 60.4506 0.393456C67.3915 0.88919 74.094 2.95983 80.0731 6.34988ZM96.9995 41.4821C103.012 34.792 110.046 29.8976 117.527 26.7016C113.074 19.9787 106.917 14.4532 99.5404 10.739C97.9424 9.93442 96.0566 9.93442 94.4586 10.739C87.0822 14.4532 80.9251 19.9787 76.472 26.7016C83.9537 29.8976 90.9874 34.7924 96.9995 41.4821ZM133.219 97.9995C138.407 95.395 143.167 91.9554 147.317 87.776C159.839 75.1615 164.224 56.5028 158.616 39.564C158.052 37.8595 156.719 36.5172 155.026 35.949C138.221 30.3091 119.689 34.7058 107.152 47.328C103.001 51.5074 99.582 56.3007 96.9995 61.5288C94.417 56.3007 90.9976 51.5074 86.8474 47.328C74.3211 34.7173 55.793 30.3014 38.9726 35.949C37.2762 36.5172 35.9471 37.8595 35.3829 39.564C29.7824 56.4876 34.1484 75.15 46.6823 87.776C50.8287 91.9516 55.5923 95.395 60.78 97.9995C55.5923 100.604 50.8325 104.044 46.6823 108.223C34.1598 120.838 29.7748 139.496 35.3829 156.435C35.9471 158.14 37.28 159.482 38.9726 160.05C55.7778 165.69 74.3098 161.293 86.8474 148.671C90.9976 144.492 94.417 139.698 96.9995 134.47C99.582 139.698 103.001 144.492 107.152 148.671C119.746 161.354 138.297 165.667 155.026 160.05C156.723 159.482 158.052 158.14 158.616 156.435C164.217 139.511 159.851 120.849 147.317 108.223C143.17 104.047 138.407 100.604 133.219 97.9995ZM181.601 100.558C178.201 107.407 173.274 113.207 167.295 117.589C164.082 110.373 159.381 103.704 153.122 97.9995C159.126 92.5274 163.944 85.9391 167.291 78.4066C173.271 82.7882 178.201 88.592 181.601 95.4408C182.4 97.05 182.4 98.9491 181.601 100.558ZM26.7076 117.592C30.0554 110.06 34.8728 103.472 40.8773 97.9995C34.6187 92.2956 29.9168 85.6253 26.7038 78.4104C20.7247 82.792 15.7982 88.592 12.3978 95.4408C11.5988 97.05 11.5988 98.9491 12.3978 100.558C15.7982 107.407 20.7285 113.211 26.7076 117.592ZM117.603 169.328C113.176 175.818 107.148 181.157 99.9569 184.78C98.3979 185.561 96.5254 185.605 94.879 184.78C87.5858 181.107 81.4855 175.666 77.0438 169.046C84.5705 165.736 91.3297 160.826 96.9995 154.517C103.021 161.217 110.078 166.122 117.603 169.328ZM191.98 141.773C186.062 146.94 178.954 150.486 171.411 152.168C172.824 144.48 172.695 136.571 171.006 128.884C176.921 125.093 182.124 120.235 186.346 114.527C190.697 121.207 193.351 128.968 193.923 137.044C194.052 138.84 193.329 140.591 191.98 141.773ZM138.244 193.649C143.292 187.788 146.779 180.768 148.483 173.313C142.009 174.256 135.297 174.073 128.887 172.798C125.009 179.311 119.894 185.012 113.801 189.581C119.81 193.013 126.562 195.106 133.548 195.606C133.685 195.617 133.817 195.621 133.954 195.621C135.593 195.621 137.161 194.908 138.244 193.649ZM60.4506 195.606C67.6263 195.091 74.5484 192.898 80.6752 189.306C74.6922 184.753 69.6711 179.098 65.8579 172.653C59.2578 174.048 52.2975 174.304 45.516 173.317C47.22 180.772 50.7113 187.788 55.7551 193.649C56.8381 194.908 58.4058 195.621 60.0454 195.621C60.1817 195.621 60.3143 195.617 60.4506 195.606ZM148.483 22.6824C141.694 21.7031 134.989 21.9693 128.766 23.2201C124.968 16.6955 119.935 10.964 113.926 6.34988C119.905 2.95983 126.607 0.88919 133.548 0.393456C135.332 0.263803 137.07 0.99215 138.244 2.3497C143.288 8.21079 146.779 15.2273 148.483 22.6824ZM2.01853 142.486C7.97496 147.687 15.1318 151.245 22.7316 152.912C21.1677 144.991 21.251 136.815 22.9967 128.884C17.1955 125.17 12.0797 120.43 7.90301 114.862C3.40445 121.627 0.65533 129.528 0.0759701 137.757C-0.0527766 139.553 0.670477 141.304 2.01853 142.486ZM193.923 58.9548C193.351 67.0315 190.697 74.7916 186.346 81.4726C182.124 75.7602 176.921 70.9058 171.002 67.1154C172.691 59.4315 172.824 51.5188 171.411 43.8311C178.954 45.5128 186.062 49.0592 191.98 54.2263C193.329 55.4084 194.052 57.1587 193.923 58.9548ZM7.65309 81.4726C11.8752 75.764 17.0781 70.9058 22.9929 67.1154C21.304 59.4277 21.1791 51.515 22.5877 43.8311C15.0447 45.5128 7.93709 49.0592 2.01853 54.2263C0.670477 55.4084 -0.0527766 57.1587 0.0759701 58.9548C0.647757 67.0315 3.30221 74.7916 7.65309 81.4726ZM79.9595 97.9995C79.9595 88.5387 87.6048 80.8395 96.9995 80.8395C106.394 80.8395 114.039 88.5387 114.039 97.9995C114.039 107.46 106.394 115.16 96.9995 115.16C87.6048 115.16 79.9595 107.46 79.9595 97.9995ZM91.3195 97.9995C91.3195 101.157 93.8641 103.72 96.9995 103.72C100.135 103.72 102.679 101.157 102.679 97.9995C102.679 94.8421 100.135 92.2795 96.9995 92.2795C93.8641 92.2795 91.3195 94.8421 91.3195 97.9995Z" fill="#8684C1"/>
</svg>
