<svg width="21" height="24" viewBox="0 0 21 24" fill="none" xmlns="http://www.w3.org/2000/svg">
<path d="M6 1.5V4.5M14 1.5V4.5M1.5 8.59H18.5M12 18.5C12 20.7091 13.7909 22.5 16 22.5C18.2091 22.5 20 20.7091 20 18.5C20 16.2909 18.2091 14.5 16 14.5M12 18.5C12 16.2909 13.7909 14.5 16 14.5M12 18.5C12 19.25 12.21 19.96 12.58 20.56C12.79 20.92 13.06 21.24 13.37 21.5H6C2.5 21.5 1 19.5 1 16.5V8C1 5 2.5 3 6 3H14C17.5 3 19 5 19 8V15.86C18.27 15.03 17.2 14.5 16 14.5M17.49 18.55H14.51M16 17.09V20.08M9.99548 13.2H10.0045M6.29431 13.2H6.30329M6.29431 16.2H6.30329" stroke="#2E2E7F" stroke-width="1.5" stroke-linecap="round" stroke-linejoin="round"/>
</svg>
