<svg width="390" height="358" viewBox="0 0 390 358" fill="none" xmlns="http://www.w3.org/2000/svg">
<g clip-path="url(#clip0_29_4223)">
<path d="M-36.944 38.0539C-8.1604 15.4537 31.1383 11.3179 64.7037 23.8825C109.301 40.578 142.125 82.8591 185.438 103.163C215.858 117.421 250.789 119.975 282.687 110.269C298.209 105.545 313.307 97.9782 329.412 97.4714C343.681 97.0203 357.776 102.271 369.902 110.457C405.595 134.542 423.511 185.911 411.482 229.682C405.043 253.119 391.214 273.468 375.109 290.539C341.83 325.805 297.688 348.725 251.551 354.695C225.801 358.025 199.676 356.221 174.018 352.126C118.103 343.205 63.016 323.002 16.9766 287.366C-38.1356 244.7 -92.7619 170.285 -72.1255 92.7172C-66.3463 71.0039 -53.8162 51.2978 -36.944 38.0489V38.0539Z" fill="#7775B7"/>
<path d="M233.38 222.054C243.363 212.373 256.845 244.036 261.509 256.124L270.848 245.501C264.312 237.776 240.729 207.903 260.077 200.336C273.395 195.125 273.093 231.355 272.628 243.473L285.24 229.13C281.982 221.679 266.398 183.524 287.935 181.866C302.362 180.756 290.922 216.073 286.994 227.127L300.414 211.866C305.395 199.94 319.772 168.577 329.494 178.541C343.18 192.561 313.527 209.028 302.531 214.446L289.725 229.008C301.007 222.358 331.258 205.911 333.033 219.611C335.749 240.599 295.857 233.656 287.178 231.907L273.512 247.447C283.01 245.019 323.029 235.632 320.457 250.402C316.749 271.684 279.266 252.226 272.541 248.547L262.808 259.616C262.864 259.773 262.92 259.92 262.961 260.042C273.681 261.644 312.417 268.364 304.434 280.726C293.013 298.4 267.263 268.354 261.453 261.162L239.891 285.683L237.4 283.529L259.274 258.653C248.391 252.911 219.321 235.673 233.37 222.054H233.38Z" fill="#F7B21A"/>
<path d="M284.999 337.417C274.014 337.417 263.309 334.427 259.346 325.461C250.626 305.734 274.003 288.375 289.193 281.228C294.936 278.527 300.956 276.241 306.771 274.031C312.08 272.014 317.572 269.931 322.81 267.538C336.731 261.193 349.251 252.475 360.016 241.633C360.686 240.954 361.689 240.767 362.574 241.142C363.463 241.527 364.011 242.389 363.97 243.347C363.336 258.496 362.267 273.21 356.216 286.651C351.629 296.839 344.044 306.535 332.358 317.169C326.338 322.648 318.176 329.424 308.474 333.23C302.649 335.516 293.734 337.412 284.999 337.412V337.417ZM323.705 269.459C318.401 271.877 312.877 273.975 307.538 276.003C301.759 278.197 295.78 280.468 290.108 283.139C275.614 289.961 253.239 306.373 261.299 324.614C267.968 339.708 296.793 335.547 307.686 331.274C317.066 327.594 325.024 320.975 330.911 315.618C342.377 305.187 349.798 295.714 354.263 285.795C360.16 272.698 361.213 258.202 361.837 243.265C361.837 243.23 361.842 243.139 361.725 243.088C361.617 243.037 361.561 243.098 361.535 243.123C350.586 254.147 337.856 263.012 323.699 269.464L323.705 269.459Z" fill="#F7B21A"/>
<path d="M94.8784 278.4C84.8952 268.719 71.4137 300.382 66.7495 312.47L57.4107 301.847C63.9468 294.122 87.5291 264.249 68.1815 256.682C54.8637 251.471 55.1655 287.701 55.6309 299.819L43.0189 285.476C46.2767 278.025 61.8601 239.87 40.3236 238.212C25.896 237.102 37.3368 272.419 41.2647 283.473L27.8446 268.212C22.8632 256.286 8.4868 224.923 -1.23557 234.887C-14.9216 248.907 14.7314 265.374 25.7273 270.792L38.5336 285.354C27.2513 278.704 -3.00003 262.257 -4.77471 275.957C-7.49042 296.945 32.4015 290.002 41.0805 288.253L54.7461 303.793C45.2487 301.365 5.22896 291.978 7.80148 306.748C11.5094 328.03 48.9924 308.572 55.7178 304.893L65.4504 315.962C65.3942 316.119 65.3379 316.266 65.297 316.388C54.5773 317.99 15.8412 324.71 23.8247 337.072C35.2451 354.746 60.9958 324.695 66.8057 317.508L88.3678 342.029L90.8585 339.875L68.9844 314.999C79.8678 309.257 108.938 292.019 94.8886 278.4H94.8784Z" fill="#5C4FA1"/>
<path d="M58.9092 262.779C56.2344 247.781 50.7773 233.276 42.9115 220.194C42.3284 219.226 43.2695 218.06 44.3588 218.389C58.5102 222.688 72.7997 227.462 84.3121 236.605C94.4027 244.624 101.737 255.551 107.782 266.879C112.247 275.242 116.144 284.087 117.3 293.479C118.911 306.596 114.819 334.827 98.1567 337.437C77.2799 340.706 66.7495 314.138 63.7524 298.466C61.497 286.662 61.0163 274.609 58.9092 262.779Z" fill="#443D98"/>
<path d="M321.091 83.6903L321.076 82.5854C323.597 82.5448 326.067 81.8555 328.226 80.5884L328.793 81.5413C326.466 82.9047 323.807 83.6497 321.091 83.6903ZM313.328 81.7846C310.96 80.4921 308.955 78.6016 307.538 76.3106L308.489 75.7328C309.809 77.8565 311.665 79.6153 313.87 80.8165L313.333 81.7846H313.328ZM334.409 75.8899L333.442 75.3426C334.685 73.1885 335.345 70.7252 335.345 68.2264C335.345 67.9223 335.335 67.6182 335.314 67.3141L336.429 67.2482C336.449 67.5726 336.46 67.897 336.46 68.2264C336.46 70.9178 335.754 73.5686 334.414 75.895L334.409 75.8899ZM305.242 68.7181C305.237 68.5508 305.237 68.3886 305.237 68.2214C305.237 65.7074 305.861 63.2036 307.047 60.9938L308.029 61.5107C306.929 63.5635 306.352 65.8848 306.352 68.2264C306.352 68.3836 306.352 68.5306 306.357 68.6826L305.242 68.7181ZM332.956 60.3298C331.57 58.2467 329.658 56.5487 327.418 55.4185L327.924 54.4352C330.333 55.6516 332.394 57.4813 333.887 59.7216L332.956 60.3298ZM313.072 56.0976L312.473 55.165C314.754 53.7256 317.393 52.8994 320.104 52.7727L320.155 53.8777C317.639 53.9942 315.194 54.7596 313.072 56.0976Z" fill="#69649B"/>
<path d="M404.562 254.092C401.862 253.889 399.284 253.154 396.901 251.897L397.423 250.924C399.668 252.105 402.097 252.804 404.644 252.992L404.562 254.097V254.092ZM412.469 253.068L412.101 252.024C414.5 251.192 416.668 249.9 418.54 248.177L419.297 248.988C417.307 250.812 415.011 252.186 412.469 253.068ZM390.764 246.844C389.076 244.745 387.869 242.368 387.179 239.783L388.258 239.5C388.912 241.938 390.048 244.173 391.638 246.154L390.764 246.844ZM423.92 242.546L422.897 242.105C423.915 239.799 424.432 237.345 424.432 234.806H425.546C425.546 237.498 424.999 240.098 423.92 242.546ZM424.324 232.819C424.053 230.31 423.271 227.928 421.997 225.734L422.964 225.181C424.314 227.508 425.142 230.037 425.429 232.698L424.319 232.814L424.324 232.819ZM387.849 232.059L386.749 231.892C387.153 229.246 388.089 226.752 389.536 224.487L390.477 225.08C389.112 227.219 388.232 229.565 387.849 232.059ZM417 220.169C414.955 218.658 412.658 217.604 410.178 217.041L410.428 215.967C413.057 216.565 415.497 217.68 417.67 219.287L417.006 220.174L417 220.169ZM395.704 219.717L395.075 218.805C397.315 217.295 399.796 216.281 402.45 215.794L402.655 216.879C400.154 217.34 397.817 218.293 395.704 219.717Z" fill="#69649B"/>
<path d="M320.073 6.62954C320.073 10.289 317.076 13.2591 313.384 13.2591C309.691 13.2591 306.694 10.289 306.694 6.62954C306.694 2.97011 309.691 0 313.384 0C317.076 0 320.073 2.97011 320.073 6.62954Z" fill="#69649B"/>
<path d="M390.186 217.269C392.649 217.269 394.646 215.291 394.646 212.85C394.646 210.409 392.649 208.43 390.186 208.43C387.723 208.43 385.726 210.409 385.726 212.85C385.726 215.291 387.723 217.269 390.186 217.269Z" fill="#69649B"/>
<path d="M66.9847 11.6017C66.9847 13.7355 65.2356 15.4689 63.0825 15.4689C60.9293 15.4689 59.1802 13.7355 59.1802 11.6017C59.1802 9.46787 60.9293 7.73446 63.0825 7.73446C65.2356 7.73446 66.9847 9.46787 66.9847 11.6017Z" fill="#69649B"/>
<path d="M82.9875 20.9935H278.427C284.181 20.9935 288.855 25.6261 288.855 31.3281V347.665C288.855 353.367 284.181 358 278.427 358H82.9875C77.2339 358 72.5594 353.367 72.5594 347.665V31.3281C72.5594 25.6261 77.2339 20.9935 82.9875 20.9935Z" fill="#14202E"/>
<path d="M205.793 29.098H155.621V32.7827H205.793V29.098Z" fill="#2E3D4C"/>
<path d="M204.489 339.216H156.921V348.791H204.489V339.216Z" fill="#2E3D4C"/>
<path d="M283.654 42.722H77.7607V333.063H283.654V42.722Z" fill="white"/>
<path d="M283.654 42.722H77.7607V53.7712H283.654V42.722Z" fill="#5C4FA1"/>
<path d="M96.0649 293.955C100.632 293.955 104.335 290.286 104.335 285.759C104.335 281.233 100.632 277.564 96.0649 277.564C91.4976 277.564 87.795 281.233 87.795 285.759C87.795 290.286 91.4976 293.955 96.0649 293.955Z" fill="#FCB32B"/>
<path d="M118.921 293.955C123.488 293.955 127.191 290.286 127.191 285.759C127.191 281.233 123.488 277.564 118.921 277.564C114.354 277.564 110.651 281.233 110.651 285.759C110.651 290.286 114.354 293.955 118.921 293.955Z" fill="#FCB32B"/>
<path d="M175.874 279.404H131.835V283.641H175.874V279.404Z" fill="#FCB32B"/>
<path d="M272.131 299.292H89.2833V303.529H272.131V299.292Z" fill="#FCB32B"/>
<path d="M272.131 307.949H89.2833V312.186H272.131V307.949Z" fill="#FCB32B"/>
<path d="M133.323 316.606H89.2833V320.843H133.323V316.606Z" fill="#FCB32B"/>
<path d="M104.103 94.6943C105.156 90.2899 102.406 85.8734 97.9621 84.8298C93.5178 83.7862 89.0614 86.5107 88.0083 90.9151C86.9553 95.3195 89.7044 99.736 94.1487 100.78C98.593 101.823 103.049 99.0987 104.103 94.6943Z" fill="#5C4FA1"/>
<path d="M151.719 86.0927H107.68V90.33H151.719V86.0927Z" fill="#D6D6D6"/>
<path d="M202.817 287.326H131.835V291.563H202.817V287.326Z" fill="#FCB32B"/>
<path d="M283.654 103.863H77.7607V236.453H283.654V103.863Z" fill="#5C4FA1"/>
<path d="M226.557 248.309C219.94 248.309 213.25 245.267 207.998 242.88C201.119 239.753 196.695 231.263 198.137 223.96C199.134 218.896 202.914 214.613 207.537 213.301C208.033 213.159 208.54 213.047 209.046 212.941C209.828 212.774 210.565 212.611 211.266 212.338C213.828 211.334 215.833 208.744 216.631 205.399C217.321 202.52 217.122 199.449 216.932 196.473L216.902 195.977C216.579 190.868 216.426 185.46 218.308 180.498C220.042 175.921 224.338 171.111 230.02 170.685C230.7 170.635 231.385 170.65 232.05 170.66C232.991 170.68 233.881 170.695 234.756 170.543C238.842 169.829 241.445 165.602 243.537 162.206C245.634 158.8 249.004 154.294 253.812 154.365C256.788 154.421 259.693 156.448 261.049 159.418C262.21 161.962 262.297 165.1 261.299 168.252C261.023 169.129 260.665 170.021 260.322 170.883C259.238 173.615 258.21 176.2 259.243 178.602C259.704 179.677 260.537 180.548 261.417 181.466C261.739 181.8 262.061 182.14 262.363 182.485C266.685 187.431 267.283 195.333 263.759 200.863C261.427 204.522 257.663 207.067 254.022 209.53C249.429 212.637 245.092 215.571 243.629 220.483C242.872 223.032 243.062 225.683 243.256 228.486C243.425 230.888 243.604 233.372 243.123 235.784C242.156 240.66 238.469 244.958 233.493 246.996C231.232 247.923 228.9 248.303 226.557 248.303V248.309ZM231.135 171.755C230.787 171.755 230.444 171.765 230.102 171.79C224.911 172.175 220.962 176.641 219.351 180.888C217.551 185.642 217.705 190.913 218.017 195.906L218.047 196.403C218.242 199.454 218.441 202.611 217.715 205.647C216.835 209.342 214.575 212.226 211.675 213.356C210.892 213.661 210.074 213.843 209.281 214.01C208.8 214.117 208.315 214.218 207.844 214.355C203.609 215.556 200.147 219.499 199.226 224.162C197.902 230.883 202.126 238.993 208.458 241.872C215.383 245.019 224.875 249.332 233.058 245.977C237.691 244.081 241.123 240.093 242.018 235.572C242.468 233.301 242.294 230.893 242.131 228.562C241.931 225.784 241.727 222.911 242.545 220.168C244.12 214.877 248.825 211.694 253.377 208.612C256.921 206.215 260.593 203.731 262.798 200.27C266.071 195.135 265.513 187.796 261.504 183.204C261.212 182.87 260.9 182.545 260.593 182.221C259.683 181.273 258.747 180.29 258.205 179.028C256.993 176.205 258.154 173.29 259.274 170.467C259.612 169.621 259.959 168.749 260.225 167.908C261.141 165.019 261.069 162.16 260.021 159.864C258.839 157.274 256.333 155.505 253.781 155.46C249.536 155.414 246.432 159.595 244.473 162.768C242.264 166.357 239.517 170.817 234.935 171.618C233.953 171.79 232.971 171.77 232.015 171.75C231.713 171.744 231.416 171.739 231.12 171.739L231.135 171.755Z" fill="#F9F9FA"/>
<path d="M263.908 147.786C261.831 147.786 260.143 146.113 260.143 144.056C260.143 141.998 261.831 140.325 263.908 140.325C265.984 140.325 267.672 141.998 267.672 144.056C267.672 146.113 265.984 147.786 263.908 147.786ZM263.908 141.43C262.45 141.43 261.258 142.606 261.258 144.056C261.258 145.505 262.445 146.681 263.908 146.681C265.37 146.681 266.557 145.505 266.557 144.056C266.557 142.606 265.37 141.43 263.908 141.43Z" fill="#F9F9FA"/>
<path d="M247.327 128.171C247.327 128.936 246.703 129.555 245.931 129.555C245.158 129.555 244.54 128.936 244.54 128.171C244.54 127.406 245.163 126.787 245.931 126.787C246.698 126.787 247.327 127.406 247.327 128.171Z" fill="#F9F9FA"/>
<path d="M97.502 209.662C98.5019 209.662 99.3125 208.858 99.3125 207.867C99.3125 206.876 98.5019 206.073 97.502 206.073C96.5021 206.073 95.6916 206.876 95.6916 207.867C95.6916 208.858 96.5021 209.662 97.502 209.662Z" fill="#F9F9FA"/>
<path d="M263.631 217.67C261.708 217.67 260.149 216.119 260.149 214.218C260.149 212.317 261.714 210.767 263.631 210.767C265.549 210.767 267.114 212.317 267.114 214.218C267.114 216.119 265.549 217.67 263.631 217.67ZM263.631 211.866C262.327 211.866 261.263 212.921 261.263 214.213C261.263 215.506 262.327 216.56 263.631 216.56C264.936 216.56 265.999 215.506 265.999 214.213C265.999 212.921 264.936 211.866 263.631 211.866Z" fill="#F9F9FA"/>
<path d="M149.863 207.361C149.863 207.361 139.087 225.039 135.926 240.326H208.581C208.581 240.326 203.006 213.808 196.69 207.548L149.863 207.366V207.361Z" fill="#483F99"/>
<path d="M148.093 212.561C164.94 212.165 181.976 212.16 198.822 212.561C181.976 212.961 164.94 212.956 148.093 212.561Z" fill="white"/>
<path d="M155.483 212.976C154.179 217.345 151.172 222.89 146.17 223.625C145.454 223.686 144.738 223.645 144.053 223.473C149.96 223.833 153.228 217.482 155.483 212.976Z" fill="white"/>
<path d="M177.225 212.424C177.393 219.287 177.475 226.808 177.496 233.696V233.808L177.414 233.889L171.578 239.707L171.072 240.209V239.5C171.103 230.523 171.138 221.542 171.369 212.566C171.486 217.056 171.542 221.542 171.588 226.033C171.645 230.523 171.635 235.009 171.66 239.5L171.159 239.292L177.03 233.509L176.948 233.696C176.969 226.803 177.051 219.297 177.219 212.424H177.225Z" fill="white"/>
<path d="M193.667 212.561C193.872 218.045 195.749 222.875 202.167 222.368C195.713 223.965 192.808 218.096 193.667 212.561Z" fill="white"/>
<path d="M233.452 134.719L224.486 134.988C224.486 134.988 221.586 148.06 217.618 165.495C216.303 163.427 215.076 161.476 213.946 159.651C209.946 167.421 205.047 174.649 199.769 181.623C202.76 186.656 206.202 192.155 210.105 197.872C210.161 197.953 210.212 198.029 210.268 198.111C217.193 208.242 233.175 204.517 234.807 192.388C234.827 192.251 234.843 192.115 234.863 191.973C237.282 173.802 237.697 153.878 233.462 134.725L233.452 134.719Z" fill="#F6BA8A"/>
<path d="M228.153 121.572C227.949 119.256 227.647 116.843 227.268 116.919C226.639 117.051 226.266 118.668 225.99 120.71C226.721 120.938 227.453 121.222 228.153 121.572Z" fill="#F18665"/>
<path d="M231.943 124.415C231.907 121.927 231.728 117.066 230.894 116.62C230.245 116.27 229.524 119.377 229.033 122.048C230.168 122.712 231.181 123.518 231.943 124.415Z" fill="#F18665"/>
<path d="M238.193 121.126C237.599 121.552 236.592 122.753 235.308 126.123C235.308 126.123 236.183 118.526 235.308 117.446C234.618 116.59 232.915 122.373 232.234 124.811C232.664 125.394 233.002 126.007 233.181 126.64C233.452 127.613 233.518 128.495 233.421 129.291C234.48 132.145 232.71 135.49 229.641 136.539C228.45 136.945 227.217 137.005 226 136.843C225.049 137.162 224.041 137.259 223.126 137.112C223.816 138.313 224.645 139.54 225.652 140.751L231.892 139.57C231.892 139.57 238.725 126.787 238.806 121.44C238.811 121.101 238.464 120.923 238.182 121.126H238.193Z" fill="#F6BA8A"/>
<path d="M216.293 179.276C216.452 174.679 216.886 170.097 217.428 165.531L217.909 165.688C217.086 166.98 216.262 168.273 215.398 169.54C215.112 169.965 214.825 170.386 214.529 170.802C215.623 168.648 216.83 166.524 218.037 164.431C217.643 169.398 217.122 174.36 216.293 179.276Z" fill="#151C45"/>
<path d="M219.464 117.923L230.225 137.887C230.69 138.749 231.692 139.164 232.638 138.906C234.623 138.359 237.768 137.112 238.546 134.603C239.701 130.862 229.989 112.216 229.989 112.216L219.464 117.923Z" fill="#E0DFDF"/>
<path d="M207.905 92.0127L204.269 93.0923C203.175 93.4166 202.489 94.4912 202.658 95.6113C203.154 98.8804 204.612 106.002 208.744 115.48C209.205 116.539 210.396 117.091 211.511 116.757L214.733 115.804L207.905 92.0127Z" fill="#E59A24"/>
<path d="M225.811 82.3727L208.688 87.4512C206.172 88.1963 206.269 95.8851 208.908 104.628C211.547 113.366 215.725 119.849 218.242 119.099L235.364 114.02L225.811 82.3727Z" fill="#FCB32B"/>
<path d="M235.144 96.8429C237.784 105.581 237.881 113.27 235.364 114.02C232.848 114.765 228.665 108.287 226.031 99.5495C223.392 90.8115 223.295 83.1226 225.811 82.3725C228.327 81.6274 232.511 88.1049 235.144 96.8429Z" fill="#E59A24"/>
<path d="M258.113 61.9466L226.389 86.1992L226.496 88.3583C226.905 96.5692 229.565 104.75 234.055 111.602L273.594 111.835L258.113 61.9466Z" fill="#E0DFDF"/>
<path d="M279.051 82.9756C283.255 96.9088 281.47 109.747 275.057 111.648C270.091 113.123 263.805 107.603 259.269 98.5611C257.949 95.9306 256.778 93.001 255.827 89.8586C254.973 87.0202 254.364 84.2275 253.991 81.5666C252.538 71.1459 254.717 62.6967 259.821 61.1813C266.235 59.2806 274.842 69.0374 279.046 82.9706L279.051 82.9756Z" fill="#C4C4C4"/>
<path d="M265.953 86.8631C268.567 95.515 268.863 103.746 267.181 109.2C262.752 105.561 258.44 98.5206 255.832 89.8636C253.219 81.2067 252.917 72.9756 254.605 67.527C259.034 71.1661 263.345 78.2062 265.953 86.8631Z" fill="#919191"/>
<path d="M266.097 80.6189L269.528 91.9976L259.264 98.5663C257.944 95.9358 256.773 93.0062 255.822 89.8638C254.968 87.0255 254.359 84.2328 253.986 81.5718L266.091 80.624L266.097 80.6189Z" fill="#EBEBEB"/>
<path d="M270.433 85.5301C271.38 88.6726 270.981 91.5667 269.533 91.9924C268.086 92.4232 266.148 90.2235 265.196 87.0811C264.245 83.9386 264.649 81.0445 266.097 80.6188C267.544 80.188 269.482 82.3877 270.433 85.5301Z" fill="#E59A24"/>
<path d="M229.58 84.3441C230.889 92.9909 232.812 101.891 237.681 109.311C238.172 110.082 238.801 110.766 239.338 111.506C232.771 104.932 230.061 93.3659 229.58 84.3441Z" fill="#151C45"/>
<path d="M215.736 115.834C220.384 114.035 225.156 112.621 230.045 111.597C225.397 113.402 220.62 114.811 215.736 115.834Z" fill="#151C45"/>
<path d="M268.971 85.6315C269.134 86.4678 269.661 88.5256 268.689 88.9767C268.311 89.0679 268.014 88.8094 267.779 88.5763C266.623 87.2128 265.958 84.7749 266.741 83.1125C267.861 81.7643 268.792 84.8509 268.971 85.6315ZM268.971 85.6315C268.756 84.8205 268.444 83.9944 267.861 83.376C267.682 83.1834 267.416 83.0111 267.247 83.0719C266.316 83.6396 267.523 88.6067 268.623 88.6928C268.802 88.6726 268.961 88.3989 269.032 88.1454C269.262 87.3294 269.16 86.4526 268.976 85.6366L268.971 85.6315Z" fill="#151C45"/>
<path d="M260.798 62.2457C266.066 63.5128 269.968 66.9086 272.515 71.5767C277.496 80.1728 282.575 92.626 280.135 102.596C279.317 106.118 277.333 110.685 273.093 110.756C272.449 110.756 271.799 110.644 271.206 110.406C273.727 111.303 276.366 109.935 277.701 107.76C283.9 96.9392 277.619 81.8251 272.121 71.8048C269.743 67.1823 265.887 63.7054 260.798 62.2507V62.2457Z" fill="#151C45"/>
<path d="M224.005 139.083C224.005 139.083 220.287 130.979 220.661 129.139C221.034 127.299 225.258 122.783 227.258 123.523C229.258 124.258 226.189 129.97 226.189 129.97C226.189 129.97 231.16 135.956 230.603 138.992C230.045 142.028 224.005 139.083 224.005 139.083Z" fill="#F6BA8A"/>
<path d="M187.729 132.555C187.729 132.555 203.937 141.06 206.724 144.375C209.511 147.69 216.943 163.341 216.943 163.341L200.776 184.887C200.776 184.887 183.51 159.377 187.729 132.55V132.555Z" fill="#FCB32B"/>
<path d="M190.946 138.141C190.261 137 190.036 135.88 190.148 134.851C189.233 134.197 188.415 133.468 187.683 132.586C187.397 131.562 186.732 129.063 186.236 126.24C185.796 123.716 185.484 120.948 185.704 118.774V118.764C185.806 117.689 186.037 116.762 186.451 116.078L161.82 102.352C161.841 102.433 161.846 102.509 161.866 102.591C162.255 104.856 165.226 122.636 162.178 132.069C160.327 132.91 158.051 133.513 155.223 133.609C152.18 133.716 149.198 134.79 146.978 136.858C144.585 139.088 142.457 142.844 142.421 149.099C144.677 149.377 146.927 149.818 149.177 150.219C155.898 151.415 162.603 152.692 169.338 153.797C178.022 155.221 186.932 155.536 195.713 156.499C195.329 150.016 194.046 143.29 190.946 138.141Z" fill="#F6BA8A"/>
<path d="M186.236 126.245C172.847 127.923 166.065 112.074 165.814 111.481C168.285 115.368 171.87 117.335 175.373 118.272C179.685 119.438 183.863 119.048 185.622 118.789C185.648 118.779 185.679 118.779 185.704 118.769C185.484 120.943 185.796 123.716 186.236 126.235V126.245Z" fill="#EBA771"/>
<path d="M161.569 131.856C161.569 131.856 177.363 149.165 182.012 146.402C186.655 143.64 187.827 133.082 187.827 133.082C187.827 133.082 203.753 146.772 205.982 151.192C208.212 155.612 208.028 164.269 202.454 177.893C196.879 191.522 198.971 209.935 198.971 209.935H148.006C148.006 209.935 152.282 201.096 150.978 190.782C149.679 180.467 137.414 147.507 137.414 147.507C137.414 147.507 135 132.408 161.569 131.856Z" fill="#F7B21A"/>
<path d="M161.104 133.696C165.298 138.348 176.212 150.589 183.045 147.756C187.995 145.5 188.681 138.207 188.793 133.422C188.993 137.081 188.676 140.867 187.136 144.253C180.738 156.742 165.952 139.97 161.109 133.701L161.104 133.696Z" fill="#E59A24"/>
<path d="M197.871 154.076C198.649 156.544 199.763 158.855 200.945 161.151C204.53 167.629 204.034 173.209 201.543 179.966C201.088 181.177 200.618 182.378 200.106 183.564C200.49 182.333 200.904 181.111 201.262 179.874C203.384 173.078 203.875 167.862 200.525 161.349C199.441 159.013 198.403 156.61 197.866 154.081L197.871 154.076Z" fill="#E59A24"/>
<path d="M174.018 183.037C177.634 182.226 181.561 182.556 184.983 183.965C181.316 183.346 177.736 183.042 174.018 183.037Z" fill="#E59A24"/>
<path d="M132.131 178.536C131.093 177.573 130.04 176.625 129.006 175.652C124.214 171.151 119.269 166.859 114.523 162.373C113.198 163.797 111.858 165.262 110.503 166.777C107.444 170.204 104.319 173.863 101.205 177.735C97.231 182.677 97.0775 189.626 100.816 194.75C103.291 198.141 105.9 201.501 108.651 204.806C116.655 214.426 125.836 223.493 136.274 231.015L142.779 224.913C142.779 224.913 133.655 208.764 122.711 188.992C125.928 185.399 129.093 181.886 132.131 178.536Z" fill="#F6BA8A"/>
<path d="M135.834 229.19C135.834 229.19 139.291 243.245 142.815 247.295C143.04 247.553 143.414 247.457 143.49 247.117C143.654 246.408 143.598 244.847 142.299 241.481C142.299 241.481 146.738 247.736 148.109 247.974C149.479 248.212 144.979 239.464 144.979 239.464C144.979 239.464 150.727 245.967 151.965 245.678C153.202 245.389 147.725 237.29 147.725 237.29C147.725 237.29 154.036 243.656 154.476 243.068C155.57 241.608 146.953 232.434 148.022 231.638C148.968 230.934 151.811 232.211 153.146 233.113C153.427 233.301 153.785 233.22 153.939 232.911C154.235 232.307 154.42 231.273 153.08 230.234C151.008 228.633 146.492 225.252 139.711 224.193L135.834 229.185V229.19Z" fill="#F6BA8A"/>
<path d="M118.456 184.71C120.164 185.835 121.601 187.249 122.731 188.947C121.018 187.827 119.591 186.408 118.456 184.71Z" fill="#151C45"/>
<path d="M110.094 166.108L128.674 183.052L152.087 159.114C152.087 159.114 153.606 134.268 148.584 133.817C141.127 133.148 117.156 155.982 110.094 166.108Z" fill="#FCB32B"/>
<path d="M144.191 167.122L153.668 158.283L146.794 175.318L144.191 167.122Z" fill="#E59A24"/>
<path d="M198.838 96.5185C198.562 89.3213 197.682 81.9214 195.181 75.5554C191.964 67.3597 176.8 64.1717 166.234 73.2797C161.324 77.5118 160.286 85.1804 160.577 92.1799C160.322 92.0583 160.091 91.962 159.943 91.9214C157.79 91.3892 155.632 92.9959 154.987 95.0031C154.476 96.5996 154.824 98.404 155.739 99.8079C156.506 100.979 157.744 102.068 159.074 102.565C159.406 102.692 160.889 102.935 161.943 102.844C162.955 107.451 165.318 111.704 168.98 114.719C173.604 118.526 179.511 120.046 185.402 118.835C189.98 117.897 196.741 114.993 198.423 110.284C198.863 109.053 198.899 107.735 198.92 106.432C198.93 106.133 198.93 105.829 198.93 105.53C198.955 102.626 198.955 99.5849 198.838 96.5135V96.5185Z" fill="#F6BA8A"/>
<path d="M198.93 105.535C198.546 105.637 198.137 105.692 197.728 105.692C195.135 105.692 193.033 103.609 193.033 101.04C193.033 98.4699 195.135 96.3868 197.728 96.3868C198.111 96.3868 198.48 96.4324 198.838 96.5236C198.955 99.5951 198.955 102.636 198.93 105.54V105.535Z" fill="#EBA771"/>
<path d="M169.64 101.04C169.64 103.609 171.742 105.697 174.34 105.697C176.938 105.697 179.04 103.614 179.04 101.04C179.04 98.4648 176.938 96.3817 174.34 96.3817C171.742 96.3817 169.64 98.4648 169.64 101.04Z" fill="#EBA771"/>
<path d="M190.552 92.0025C190.552 93.5231 191.161 94.7547 191.908 94.7547C192.654 94.7547 193.263 93.5231 193.263 92.0025C193.263 90.482 192.654 89.2504 191.908 89.2504C191.161 89.2504 190.552 90.482 190.552 92.0025Z" fill="#151515"/>
<path d="M194.68 88.3786C194.45 88.8246 194.148 89.2149 193.759 89.5545C193.376 89.8941 192.89 90.1576 192.337 90.2843H192.317C192.046 90.3502 191.775 90.183 191.713 89.9143C191.652 89.6457 191.821 89.3771 192.092 89.3162C192.138 89.3061 192.184 89.301 192.225 89.3061C192.982 89.3365 193.826 88.8804 194.404 88.2164L194.414 88.2063C194.47 88.1404 194.572 88.1302 194.644 88.1911C194.7 88.2417 194.716 88.3228 194.685 88.3837L194.68 88.3786Z" fill="#151515"/>
<path d="M175.261 91.6275C175.833 92.2914 176.677 92.7476 177.439 92.7172C177.715 92.707 177.951 92.9199 177.961 93.1936C177.971 93.4673 177.756 93.7005 177.48 93.7106C177.434 93.7106 177.393 93.7106 177.352 93.7005H177.327C176.78 93.5687 176.289 93.3051 175.905 92.9655C175.516 92.626 175.215 92.2357 174.984 91.7897C174.944 91.7086 174.974 91.6123 175.056 91.5717C175.122 91.5362 175.204 91.5565 175.25 91.6123L175.261 91.6224V91.6275Z" fill="#151515"/>
<path d="M177.066 92.7932C177.542 92.2914 178.033 91.962 178.621 91.7086C179.199 91.4653 179.838 91.3386 180.467 91.3892C181.091 91.445 181.689 91.6224 182.216 91.9012C182.487 92.0329 182.722 92.2103 182.973 92.3624L183.648 92.9098C183.776 93.0162 183.796 93.2038 183.689 93.3305C183.587 93.4521 183.413 93.4724 183.285 93.3862L183.254 93.366L182.6 92.9098C182.364 92.7932 182.144 92.6462 181.904 92.555C181.428 92.3472 180.927 92.2458 180.441 92.2408C179.95 92.2408 179.475 92.3776 179.045 92.5955C178.621 92.8084 178.206 93.1581 177.94 93.4876L177.915 93.5231C177.721 93.7613 177.373 93.8018 177.132 93.6092C176.892 93.4166 176.851 93.072 177.045 92.8338C177.056 92.8236 177.066 92.8135 177.076 92.7983L177.066 92.7932Z" fill="#151515"/>
<path d="M191.125 100.33C190.655 101.237 189.939 102.023 189.08 102.636C188.22 103.249 187.146 103.645 186.042 103.635C184.942 103.609 183.863 103.239 183.019 102.601C182.574 102.312 182.231 101.911 181.848 101.567C181.531 101.161 181.219 100.751 180.938 100.33C181.357 100.634 181.74 100.958 182.124 101.273C182.554 101.531 182.932 101.845 183.367 102.063C184.211 102.54 185.131 102.803 186.052 102.819C186.978 102.839 187.898 102.55 188.747 102.099C189.596 101.633 190.394 101.035 191.13 100.335L191.125 100.33Z" fill="#151515"/>
<path d="M187.463 105.211C187.075 105.55 186.548 105.672 186.037 105.692C185.525 105.677 184.998 105.54 184.605 105.211C185.106 105.292 185.561 105.388 186.037 105.368C186.507 105.388 186.967 105.307 187.463 105.211Z" fill="#151515"/>
<path d="M182.641 82.4536C182.006 81.896 181.29 81.7136 180.539 81.6832C179.792 81.668 179.025 81.7541 178.299 81.9974C177.567 82.2204 176.892 82.6259 176.324 83.1175C175.736 83.5889 175.322 84.2123 174.979 84.8256C174.805 85.1348 174.918 85.5301 175.23 85.7024C175.481 85.8393 175.782 85.7987 175.987 85.6163L176.043 85.5656C176.483 85.1652 176.907 84.7851 177.383 84.5114C177.838 84.2073 178.35 84.04 178.861 83.9082C179.378 83.7916 179.915 83.7257 180.462 83.7562C181.004 83.7764 181.582 83.8018 182.175 83.6599L182.349 83.6193C182.712 83.5331 182.937 83.1682 182.85 82.8033C182.814 82.6664 182.743 82.5448 182.641 82.4586V82.4536Z" fill="#151515"/>
<path d="M189.422 82.4536C190.056 81.896 190.772 81.7136 191.524 81.6832C192.271 81.668 193.038 81.7541 193.764 81.9974C194.496 82.2204 195.171 82.6259 195.738 83.1175C196.327 83.5889 196.741 84.2123 197.083 84.8256C197.257 85.1348 197.145 85.5301 196.833 85.7024C196.582 85.8393 196.281 85.7987 196.076 85.6163L196.02 85.5656C195.58 85.1652 195.155 84.7851 194.68 84.5114C194.225 84.2073 193.713 84.04 193.202 83.9082C192.685 83.7916 192.148 83.7257 191.601 83.7562C191.059 83.7764 190.481 83.8018 189.888 83.6599L189.714 83.6193C189.351 83.5331 189.126 83.1682 189.213 82.8033C189.248 82.6664 189.32 82.5448 189.422 82.4586V82.4536Z" fill="#151515"/>
<path d="M186.348 87.7957C186.589 88.8347 186.763 89.8636 186.957 90.8824C187.157 91.9012 187.346 92.9148 187.637 93.8779C187.704 94.1211 187.781 94.3594 187.867 94.5874C187.939 94.775 188.108 95.1399 188.103 95.4744C188.138 96.1637 187.694 96.8378 187.131 97.1065C186.553 97.4258 185.888 97.3751 185.361 97.1977C184.83 97.0051 184.364 96.7213 183.96 96.3665C184.932 96.7314 186.072 97.0102 186.758 96.4982C187.1 96.2397 187.29 95.8951 187.238 95.515C187.223 95.3224 187.162 95.2007 187.034 94.9017C186.926 94.6432 186.839 94.3847 186.758 94.1262C186.461 93.077 186.308 92.0177 186.246 90.9584C186.185 89.8991 186.205 88.8398 186.343 87.7856L186.348 87.7957Z" fill="#151515"/>
<path d="M156.685 96.4932C156.67 95.8596 156.844 95.1602 157.406 94.6736C158.005 94.187 158.854 94.2326 159.503 94.4759C160.189 94.7091 160.751 95.1754 161.196 95.6974C161.651 96.2245 161.979 96.7973 162.25 97.4562C162.347 97.6893 162.229 97.958 161.994 98.0543C161.815 98.1252 161.616 98.0796 161.493 97.9529L161.462 97.9225C161.012 97.4663 160.444 96.9848 159.907 96.8328C159.636 96.7618 159.442 96.7719 159.253 96.9037C159.058 97.0406 158.91 97.3244 158.787 97.6184C158.552 98.2215 158.409 98.926 158.925 99.2099C159.467 99.519 160.27 99.443 160.981 99.3467C160.311 99.6407 159.565 99.884 158.721 99.6458C158.291 99.5089 157.954 99.0274 157.923 98.5915C157.882 98.1556 157.943 97.7603 158.056 97.3751C158.174 96.9899 158.332 96.5844 158.716 96.2499C159.099 95.9052 159.708 95.8292 160.137 95.961C161.017 96.2246 161.61 96.7263 162.163 97.3092L161.375 97.7704C160.951 96.7162 160.25 95.6214 159.242 95.1247C158.736 94.8865 158.143 94.7648 157.662 95.0284C157.161 95.2869 156.859 95.8951 156.69 96.4982L156.685 96.4932Z" fill="#151C45"/>
<path d="M196.562 77.9427C195.958 75.3527 194.874 72.9553 193.028 70.9634C189.09 66.7008 182.804 65.5401 176.984 65.4033C173.061 65.3019 169.021 65.5908 165.487 67.2938C159.912 69.9548 156.557 75.601 152.466 80.1981C146.354 87.0709 138.038 91.9772 129.032 94.0299C121.662 95.7076 114.001 95.4998 106.452 96.1739C98.9136 96.8378 91.1193 98.5611 85.335 103.401C80.8293 107.157 77.7402 112.651 72.4929 115.292C69.5828 116.772 66.2585 117.213 63.0058 117.644L57.6766 118.328C49.8363 119.357 45.4022 128.039 49.5243 134.735C49.5448 134.78 49.5806 134.821 49.601 134.877C52.3116 139.185 56.6691 142.535 58.321 147.35C59.8246 151.76 58.7915 156.59 59.1444 161.227C59.7223 168.521 63.9059 175.282 69.6902 179.824C75.4745 184.365 82.7471 186.808 90.0811 187.604C92.7661 187.903 95.4767 187.979 98.1873 187.847C97.8293 184.309 98.8471 180.665 101.2 177.735C104.319 173.868 107.444 170.209 110.498 166.772C110.544 166.717 110.6 166.661 110.656 166.605L110.099 166.098C117.156 155.977 141.127 133.138 148.584 133.812C150.379 133.402 152.062 133.417 153.591 133.756C154.128 133.67 154.67 133.625 155.217 133.599C158.041 133.498 160.322 132.915 162.173 132.074C165.129 122.925 162.429 105.941 161.892 102.839C160.843 102.925 159.396 102.682 159.058 102.56C157.744 102.063 156.496 100.969 155.734 99.7978C154.808 98.3939 154.461 96.5946 154.977 94.9929C155.575 93.148 157.468 91.6528 159.447 91.8505C160.378 93.4217 161.498 94.8814 162.807 96.1587C163.211 96.554 163.702 96.9595 164.27 96.9291C165.011 96.8885 165.482 96.1587 165.83 95.5099C166.275 94.6787 167.052 93.817 167.497 92.9858C172.785 93.2849 178.16 90.9534 181.531 86.9037C182.564 85.6619 183.408 84.2833 184.252 82.9047C185.377 81.0648 186.502 79.225 187.632 77.3851C190.133 80.1474 194.076 85.1399 197.794 85.5808C197.794 85.5808 197.912 81.9569 196.552 77.9325L196.562 77.9427Z" fill="#151515"/>
<path d="M18.6286 327.838C16.7004 328.527 15.1201 329.095 14.0103 329.49C11.4327 328.137 9.04938 327.954 7.8782 327.888C7.03433 327.843 6.76838 328.289 6.68655 328.608C6.64564 328.77 6.75304 328.917 6.9167 328.937C7.70942 329.034 9.1977 329.48 9.32556 330.053C9.46876 330.696 3.25482 331.325 3.19345 332.222C3.16788 332.582 7.60714 332.257 7.60714 332.257C7.60714 332.257 2.91728 333.504 3.29062 334.011C3.66397 334.523 7.93445 333.955 7.93445 333.955C7.93445 333.955 3.40314 335.76 3.99641 336.114C4.58967 336.469 8.28734 335.577 8.28734 335.577C6.70701 336.413 6.18023 336.976 6.01146 337.295C5.92963 337.447 6.04215 337.605 6.21092 337.579C7.85263 337.351 10.7371 335.668 12.6857 334.427L12.6959 334.498C15.3042 334.736 17.9228 334.802 20.5209 334.736C19.8049 332.465 19.186 330.159 18.6286 327.827V327.838Z" fill="#F18665"/>
<path d="M47.0541 298.096L35.6235 321.436L14.4399 328.481L15.2735 335.526C15.2735 335.526 40.3594 334.006 44.3998 330.002C48.4401 325.998 56.1065 306.662 56.3878 304.725C56.6691 302.794 47.049 298.096 47.049 298.096H47.0541Z" fill="#FCB32B"/>
<path d="M54.0915 294.736C54.0915 294.736 48.793 300.098 49.0027 304.31C49.2124 308.522 49.5601 331.659 49.5601 331.659L47.4019 332.693L42.9422 331.107C42.9422 331.107 45.1004 306.662 45.172 304.036C45.2436 301.411 46.0108 297.407 48.5168 296.302C51.0279 295.197 54.0915 294.736 54.0915 294.736Z" fill="#FCB32B"/>
<path d="M-19.4273 340.914V353.53H70.8818C70.8818 353.53 67.7212 335.481 60.3821 333.18C53.043 330.879 -19.4273 340.914 -19.4273 340.914Z" fill="#5C4FA1"/>
<path d="M-19.5654 341.745L-14.2669 352.521L19.0428 339.399C19.0428 339.399 57.3697 360.529 67.6803 356.525C77.9959 352.521 78.5534 332.906 74.3698 330.559C70.1863 328.213 47.3814 331.34 47.3814 331.34L46.2205 332.354C46.2205 332.354 23.5025 322.825 18.066 323.099C12.6294 323.377 -19.5654 341.745 -19.5654 341.745Z" fill="#5C4FA1"/>
<path d="M-13.8527 352.1L19.1809 339.257L17.3704 337.047" stroke="#3C3393" stroke-miterlimit="10"/>
<path d="M49.8414 353.484L19.1809 339.257" stroke="#3C3393" stroke-miterlimit="10"/>
<path d="M46.3585 332.49L55.4161 337.326" stroke="#3C3393" stroke-miterlimit="10"/>
<path d="M57.784 335.526L49.5601 334.148" stroke="#3C3393" stroke-miterlimit="10"/>
<path d="M74.1397 296.798C73.0503 295.78 71.5825 295.253 70.084 295.202C68.698 295.151 67.5831 294.862 66.6727 294.447C65.164 289.809 66.6216 281.051 66.8159 279.936C66.8262 279.895 66.8313 279.86 66.8364 279.819L54.7154 286.575C54.92 286.91 55.0325 287.371 55.0836 287.898C55.191 288.973 55.0376 290.336 54.8228 291.578C54.5773 292.972 54.25 294.203 54.1068 294.7C53.1197 295.886 51.8156 296.494 50.0614 297.437C50.0818 297.883 50.0562 298.349 49.9642 298.836C49.4425 301.634 50.3631 305.552 50.2352 308.456C50.0818 311.847 49.9693 315.202 50 318.593C50.0358 322.815 50.2148 326.839 50.5216 330.914H73.4953C72.8355 324.847 74.3954 315.82 76.1138 305.866C76.9731 300.889 75.6638 298.223 74.1397 296.804V296.798Z" fill="#F79678"/>
<path d="M54.8177 291.573C61.405 292.399 64.7446 284.599 64.8674 284.31C63.6502 286.226 61.8857 287.194 60.1622 287.655C58.0397 288.228 55.9837 288.035 55.1194 287.908C55.1041 287.908 55.0939 287.908 55.0785 287.898C55.1859 288.968 55.0325 290.331 54.8177 291.573Z" fill="#F47B56"/>
<path d="M54.0403 294.938C54.0403 294.938 51.4678 300.215 53.3294 301.411C55.1859 302.607 66.8006 294.411 66.8006 294.411C66.8006 294.411 73.1168 295.146 74.8864 299.566C76.6508 303.985 74.1448 331.335 74.1448 331.335C74.1448 331.335 52.7771 332.622 47.3865 331.335C47.3865 331.335 47.4786 317.797 46.8291 313.565C46.1795 309.328 46.5733 302.171 47.898 299.272C48.5884 297.761 54.0454 294.938 54.0454 294.938H54.0403Z" fill="white"/>
<path d="M66.9847 294.092C66.9847 294.092 57.0885 298.648 58.0653 303.621C59.0421 308.593 63.3638 357.899 63.3638 357.899C63.3638 357.899 76.3235 358.314 81.2026 355.826C86.0817 353.342 75.0705 319.637 75.628 316.464C76.1854 313.286 79.1108 299.059 74.9324 296.439C70.7489 293.813 66.9898 294.092 66.9898 294.092H66.9847Z" fill="#FCB32B"/>
<path d="M64.0082 353.16C68.8617 355.238 74.5386 355.816 79.5404 353.945C80.2769 353.722 80.9418 353.347 81.6629 353.068C81.0031 353.459 80.3587 353.9 79.653 354.214C74.7227 356.55 68.6162 355.978 64.0082 353.165V353.16Z" fill="#E69B24"/>
<path d="M31.6516 307.77L33.0524 306.391L24.98 298.335L23.5792 299.714L31.6516 307.77Z" fill="#151C45"/>
<path d="M27.1951 308.481C27.1951 308.481 27.64 309.312 27.9776 309.464C28.31 309.617 30.0489 310.037 30.1103 310.022C30.187 310.083 31.7776 311.421 34.1455 313.352C34.882 312.374 35.6389 311.401 36.4112 310.422C36.9328 309.758 37.4391 309.084 37.9403 308.405C36.897 307.934 36.0173 307.538 35.3474 307.234L33.8386 306.069C33.1584 305.232 31.1996 302.085 30.279 302.151C29.1692 302.232 29.2357 302.658 29.2357 302.658C29.2357 302.658 30.9542 304.832 30.5655 305.694C30.1972 306.51 26.4433 302.455 26.4433 302.455L25.446 301.669C25.446 301.669 25.2721 303.94 26.0955 304.71C26.0955 304.71 25.6097 305.952 26.5149 306.895C26.5149 306.895 26.5558 308.111 27.19 308.481H27.1951Z" fill="#F79678"/>
<path d="M66.0079 297.685L58.4796 316.332L34.3705 306.109C34.3705 306.109 30.187 311.36 30.6064 311.497C31.0257 311.634 52.3475 332.217 61.2669 330.696C70.1863 329.176 76.1803 303.21 76.1803 303.21L66.0079 297.685Z" fill="#FCB32B"/>
<path d="M60.9447 330.787C60.9447 330.787 63.6399 330.509 65.4044 328.116C67.1688 325.724 73.4902 313.017 73.4902 313.017C73.4902 313.017 70.0533 335.025 60.9447 330.787Z" fill="#E59A24"/>
<path d="M62.2437 318.081C60.6122 317.65 59.0984 316.91 57.6152 316.14C58.7966 315.861 59.9934 315.577 61.226 315.506C60.3463 315.937 59.4359 316.246 58.5102 316.52L58.5614 315.988C59.8502 316.581 61.1032 317.229 62.2437 318.086V318.081Z" fill="#E69B24"/>
<path d="M37.342 317.437C40.8709 319.632 44.1594 322.151 47.1922 324.989C43.6582 322.795 40.3748 320.275 37.342 317.437Z" fill="#E69B24"/>
<path d="M41.6175 309.054C43.3973 309.424 45.0135 310.159 46.4506 311.264C44.6708 310.899 43.0547 310.154 41.6175 309.054Z" fill="#E69B24"/>
<path d="M62.525 302.242C63.149 299.201 65.7061 295.628 69.2146 296.165C65.8698 296.53 63.9826 299.556 62.525 302.242Z" fill="#E69B24"/>
<path d="M70.1965 276.2C69.8794 275.212 68.8157 274.421 67.757 274.685C67.6854 274.705 67.5678 274.751 67.445 274.811C67.5882 271.365 67.0819 267.589 64.6628 265.506C59.4615 261.025 51.9997 262.591 50.4193 266.626C48.6089 271.238 48.5168 276.945 48.5782 281.826C48.5884 282.465 48.6037 283.119 48.8185 283.722C49.6471 286.038 52.9765 287.467 55.2319 287.934C58.1267 288.532 61.0367 287.777 63.3126 285.906C65.1129 284.421 66.2789 282.328 66.7802 280.062C67.2967 280.108 68.028 279.986 68.1917 279.926C68.8463 279.677 69.455 279.145 69.8334 278.567C70.2886 277.878 70.4574 276.986 70.2068 276.2H70.1965Z" fill="#F79678"/>
<path d="M52.3628 274.72C52.3628 275.47 52.0662 276.074 51.6928 276.074C51.3195 276.074 51.0228 275.465 51.0228 274.72C51.0228 273.975 51.3195 273.367 51.6928 273.367C52.0662 273.367 52.3628 273.975 52.3628 274.72Z" fill="#151C45"/>
<path d="M57.4771 276.074C57.8472 276.074 58.1471 275.468 58.1471 274.72C58.1471 273.973 57.8472 273.367 57.4771 273.367C57.1071 273.367 56.8072 273.973 56.8072 274.72C56.8072 275.468 57.1071 276.074 57.4771 276.074Z" fill="#151C45"/>
<path d="M52.0815 278.821C52.3116 279.267 52.6645 279.652 53.089 279.956C53.5084 280.26 54.0403 280.453 54.5824 280.448C55.1245 280.432 55.6564 280.25 56.0707 279.941C56.2906 279.799 56.4594 279.601 56.6486 279.434C56.8072 279.231 56.9606 279.033 57.0987 278.826C56.8941 278.978 56.7049 279.135 56.5156 279.287C56.306 279.414 56.1167 279.571 55.907 279.677C55.4928 279.91 55.0376 280.042 54.5875 280.047C54.1324 280.057 53.6823 279.915 53.2629 279.692C52.8487 279.464 52.4549 279.17 52.0866 278.826L52.0815 278.821Z" fill="#151C45"/>
<path d="M53.8818 281.223C54.071 281.391 54.3318 281.452 54.5824 281.462C54.833 281.452 55.0939 281.386 55.2882 281.223C55.0427 281.264 54.8177 281.309 54.5824 281.299C54.3523 281.309 54.1221 281.269 53.8818 281.223Z" fill="#151C45"/>
<path d="M56.2548 270.022C56.5668 269.748 56.9197 269.657 57.2879 269.642C57.6562 269.632 58.0346 269.677 58.3875 269.799C58.7455 269.91 59.0779 270.108 59.3592 270.351C59.6507 270.584 59.8502 270.888 60.0241 271.193C60.111 271.345 60.0548 271.537 59.9014 271.623C59.7786 271.689 59.6303 271.669 59.528 271.578L59.5024 271.552C59.2825 271.355 59.0779 271.167 58.8427 271.035C58.6176 270.883 58.3671 270.802 58.1164 270.742C57.8607 270.681 57.5999 270.65 57.3288 270.665C57.0629 270.676 56.7765 270.686 56.485 270.615L56.398 270.595C56.219 270.549 56.1065 270.372 56.1525 270.194C56.1679 270.128 56.2037 270.067 56.2548 270.027V270.022Z" fill="#151C45"/>
<path d="M52.9203 270.022C52.6083 269.748 52.2554 269.657 51.8872 269.642C51.5189 269.632 51.1405 269.677 50.7876 269.799C50.4296 269.91 50.0971 270.108 49.8158 270.351C49.5243 270.584 49.3249 270.888 49.151 271.193C49.064 271.345 49.1203 271.537 49.2737 271.623C49.3965 271.689 49.5448 271.669 49.6471 271.578L49.6726 271.552C49.8926 271.355 50.0971 271.167 50.3324 271.035C50.5574 270.883 50.808 270.802 51.0586 270.742C51.3143 270.681 51.5752 270.65 51.8462 270.665C52.1122 270.676 52.3986 270.686 52.6901 270.615L52.7771 270.595C52.9561 270.549 53.0686 270.372 53.0225 270.194C53.0072 270.128 52.9714 270.067 52.9203 270.027V270.022Z" fill="#151C45"/>
<path d="M53.2373 272.526C53.1197 273.038 53.0328 273.544 52.9356 274.046C52.8384 274.548 52.7413 275.045 52.598 275.521C52.5674 275.643 52.5264 275.759 52.4855 275.871C52.4497 275.962 52.3679 276.139 52.3679 276.307C52.3526 276.646 52.5674 276.976 52.8486 277.113C53.1351 277.27 53.4624 277.244 53.7181 277.158C53.9789 277.062 54.2091 276.925 54.4085 276.748C53.9278 276.925 53.3703 277.067 53.0328 276.814C52.864 276.687 52.7719 276.514 52.7975 276.332C52.8077 276.236 52.8384 276.175 52.8998 276.033C52.9509 275.906 52.997 275.78 53.0328 275.648C53.1811 275.131 53.2527 274.609 53.2834 274.087C53.3141 273.565 53.3038 273.043 53.2322 272.526H53.2373Z" fill="#151C45"/>
<path d="M69.4191 276.808C69.4243 276.499 69.3424 276.155 69.0612 275.911C68.7645 275.673 68.3503 275.693 68.0281 275.815C67.6905 275.932 67.4143 276.16 67.1944 276.418C66.9694 276.677 66.8108 276.961 66.6779 277.285C66.6318 277.401 66.6881 277.533 66.8057 277.579C66.8927 277.614 66.9898 277.589 67.0512 277.528L67.0666 277.513C67.2865 277.29 67.5678 277.052 67.8337 276.976C67.9667 276.94 68.0639 276.945 68.1559 277.011C68.2531 277.077 68.3247 277.219 68.3861 277.361C68.5037 277.66 68.5753 278.005 68.3196 278.141C68.0536 278.294 67.6598 278.258 67.3069 278.212C67.6394 278.354 68.0025 278.476 68.4167 278.359C68.6264 278.294 68.7952 278.055 68.8106 277.837C68.831 277.624 68.8003 277.427 68.7441 277.239C68.6878 277.052 68.606 276.849 68.4219 276.687C68.2326 276.52 67.936 276.479 67.7212 276.545C67.2865 276.672 66.995 276.92 66.7239 277.209L67.1126 277.437C67.3223 276.92 67.6649 276.378 68.161 276.134C68.4116 276.018 68.7032 275.957 68.9384 276.089C69.1839 276.215 69.3322 276.515 69.414 276.814L69.4191 276.808Z" fill="#151C45"/>
<path d="M70.7284 271.259C70.3295 269.996 69.7158 268.552 68.3963 268.329C68.8975 267.234 68.8873 265.921 68.3605 264.827C67.9053 263.889 67.087 263.134 66.2073 262.561C64.9799 261.755 63.5786 261.213 62.1158 261.005C59.886 260.686 57.6101 261.117 55.4058 261.547C54.2551 261.77 52.818 261.958 51.6724 262.176C50.5216 261.279 48.706 261.755 47.7803 262.87C46.8444 263.985 46.6194 265.531 46.6552 266.981C46.7319 269.844 47.6576 272.591 48.706 275.268C48.7827 274.158 48.9106 273.058 49.0692 271.963C49.4681 270.772 50.1738 269.677 51.0586 268.775C53.846 271.568 58.3108 272.571 62.0391 271.243C62.1517 272.166 62.3869 272.997 62.7603 273.848C63.2052 274.857 63.9417 275.876 65.031 276.079C65.5067 276.165 66.0948 276.018 66.2585 275.567C66.4068 275.156 67.4501 274.761 67.445 274.801C67.5678 274.746 67.6803 274.7 67.757 274.68C68.8156 274.416 69.8743 275.212 70.1863 276.195C70.442 276.981 70.2732 277.873 69.8181 278.562C69.4396 279.135 68.8361 279.677 68.1815 279.921C68.0127 279.986 67.2916 280.108 66.7648 280.062C66.5091 281.253 66.0641 282.404 65.4248 283.433C66.3301 283.534 67.2558 283.479 68.0536 283.058C69.189 282.46 69.8488 281.259 70.4062 280.108C70.9074 279.079 71.3779 278.04 71.5569 276.925C71.8587 275.024 71.3012 273.103 70.7233 271.259H70.7284Z" fill="#171717"/>
<path d="M38.3853 131.111C36.227 128.576 33.0408 126.873 29.6807 126.858C25.7068 126.838 21.5079 128.805 17.9381 127.076C13.1562 124.76 12.7675 117.309 7.90888 115.155C4.52319 113.655 0.687424 115.475 -2.95399 116.159C-9.14235 117.325 -15.8882 114.846 -19.816 109.96C-21.335 108.075 -22.455 105.87 -24.1734 104.162C-27.3904 100.979 -32.474 99.9955 -36.8417 101.247C-41.2093 102.499 -44.8303 105.768 -47.0192 109.722C-48.7121 112.778 -49.9549 116.574 -53.2127 117.882C-56.9462 119.382 -61.3905 116.716 -65.1342 118.186C-67.8244 119.245 -69.3229 122.236 -69.461 125.1C-69.5582 127.137 -69.0979 129.139 -68.4841 131.101H38.3802L38.3853 131.111Z" fill="#FDFEFE"/>
<path d="M406.659 173.169C405.943 171.385 404.179 169.945 402.419 169.388C399.842 168.572 397.014 168.764 394.61 167.421C391.92 165.921 389.756 162.54 386.77 162.87C384.376 163.133 382.647 165.779 380.285 166.311C375.4 167.406 372.153 159.312 367.176 159.307C364.21 159.307 361.735 162.261 358.768 162.368C354.922 162.505 352.386 158.105 350.038 154.649C346.561 149.524 340.526 145.252 335.37 148.009C331.944 149.844 330.19 154.101 328.323 157.847C326.456 161.592 323.628 165.48 319.838 165.485C315.854 165.49 311.844 161.141 308.377 163.366C306.745 164.41 305.958 166.676 305.968 168.805C305.973 170.3 306.311 171.75 306.735 173.174H406.654L406.659 173.169Z" fill="#FDFEFE"/>
<path d="M49.4527 75.3527H2.00692C1.14543 75.3527 0.447044 76.0448 0.447044 76.8986V104.861C0.447044 105.715 1.14543 106.407 2.00692 106.407H49.4527C50.3142 106.407 51.0126 105.715 51.0126 104.861V76.8986C51.0126 76.0448 50.3142 75.3527 49.4527 75.3527Z" fill="url(#paint0_linear_29_4223)"/>
<path d="M2.90705 84.5316C2.86102 84.5316 2.82522 84.4962 2.82522 84.4505V78.0998C2.82522 78.0542 2.86102 78.0187 2.90705 78.0187H7.75545C7.80148 78.0187 7.83728 78.0542 7.83728 78.0998C7.83728 78.1454 7.80148 78.1809 7.75545 78.1809H2.98888V84.4505C2.98888 84.4962 2.95308 84.5316 2.90705 84.5316Z" fill="#F8B218" stroke="#F8B218" stroke-width="3" stroke-miterlimit="10"/>
<path d="M48.5526 84.5316C48.5066 84.5316 48.4708 84.4962 48.4708 84.4505V78.1809H43.7042C43.6582 78.1809 43.6224 78.1454 43.6224 78.0998C43.6224 78.0542 43.6582 78.0187 43.7042 78.0187H48.5526C48.5986 78.0187 48.6344 78.0542 48.6344 78.0998V84.4505C48.6344 84.4962 48.5986 84.5316 48.5526 84.5316Z" fill="#F8B218" stroke="#F8B218" stroke-width="3" stroke-miterlimit="10"/>
<path d="M7.75545 103.741H2.90705C2.86102 103.741 2.82522 103.706 2.82522 103.66V97.5525C2.82522 97.5069 2.86102 97.4714 2.90705 97.4714C2.95308 97.4714 2.98888 97.5069 2.98888 97.5525V103.579H7.75545C7.80148 103.579 7.83728 103.614 7.83728 103.66C7.83728 103.706 7.80148 103.741 7.75545 103.741Z" fill="#F8B218" stroke="#F8B218" stroke-width="3" stroke-miterlimit="10"/>
<path d="M48.5526 103.741H43.7042C43.6582 103.741 43.6224 103.706 43.6224 103.66C43.6224 103.614 43.6582 103.579 43.7042 103.579H48.4708V97.5525C48.4708 97.5069 48.5066 97.4714 48.5526 97.4714C48.5986 97.4714 48.6344 97.5069 48.6344 97.5525V103.66C48.6344 103.706 48.5986 103.741 48.5526 103.741Z" fill="#F8B218" stroke="#F8B218" stroke-width="3" stroke-miterlimit="10"/>
<path d="M25.7324 100.518C31.1019 100.518 35.4548 96.2037 35.4548 90.8824C35.4548 85.5611 31.1019 81.2473 25.7324 81.2473C20.3629 81.2473 16.01 85.5611 16.01 90.8824C16.01 96.2037 20.3629 100.518 25.7324 100.518Z" fill="#F8B218"/>
<path d="M21.9478 94.8916V86.8733L29.5119 90.1525L21.9478 94.8916Z" fill="white"/>
<path d="M77.7607 235.531V249.555C77.7607 251.476 79.5149 253.037 81.6834 253.037H279.737C281.9 253.037 283.659 251.476 283.659 249.555V235.531H77.7607Z" fill="#423C98"/>
<path d="M276.612 242.318H177.644C177.224 242.318 176.882 241.704 176.882 240.954C176.882 240.204 177.224 239.591 177.644 239.591H276.612C277.031 239.591 277.374 240.204 277.374 240.954C277.374 241.704 277.031 242.318 276.612 242.318Z" fill="#5C4FA1"/>
<path d="M178.258 242.318H83.0386C82.2766 242.318 81.6629 241.704 81.6629 240.954C81.6629 240.204 82.2817 239.591 83.0386 239.591H178.258C179.02 239.591 179.633 240.204 179.633 240.954C179.633 241.704 179.014 242.318 178.258 242.318Z" fill="#F7B21A"/>
<path d="M180.707 240.954C180.707 242.561 179.393 243.864 177.772 243.864C176.15 243.864 174.836 242.561 174.836 240.954C174.836 239.348 176.15 238.045 177.772 238.045C179.393 238.045 180.707 239.348 180.707 240.954Z" fill="#FFFEFE"/>
<path d="M94.9551 246.018H96.3002V250.569H94.9551V246.018ZM92.3672 250.569H93.7123V246.018H92.3672V250.569ZM105.133 246.018V247.857L102.299 246.018V250.569L105.133 248.729V250.569H106.478V246.018H105.133ZM82.1897 246.018V250.569H83.5347V248.729L86.3681 250.569V246.018L83.5347 247.857V246.018H82.1897Z" fill="#FFFEFE"/>
<path d="M284.912 89.4582C284.882 89.5545 289.51 91.2423 295.248 93.2342C300.992 95.2261 305.671 96.7618 305.707 96.6655C305.738 96.5692 301.114 94.8814 295.371 92.8895C289.628 90.8976 284.948 89.3619 284.917 89.4582H284.912Z" stroke="#E59A24" stroke-width="3" stroke-miterlimit="10"/>
<path d="M283.045 78.6928C283.061 78.7942 290.446 77.7703 299.544 76.412C308.643 75.0536 316.002 73.8727 315.992 73.7713C315.977 73.67 308.592 74.6938 299.493 76.0521C290.4 77.4105 283.035 78.5914 283.051 78.6928H283.045Z" stroke="#E59A24" stroke-width="3" stroke-miterlimit="10"/>
<path d="M281.399 67.6436C281.465 67.7196 284.053 65.4286 287.178 62.5295C290.303 59.6303 292.778 57.2228 292.712 57.1468C292.645 57.0708 290.057 59.3617 286.932 62.2609C283.807 65.16 281.332 67.5675 281.399 67.6436Z" stroke="#E59A24" stroke-width="3" stroke-miterlimit="10"/>
<path d="M15.785 140.097C7.98048 135.328 3.11162 144.633 3.08093 144.689C3.05025 144.633 -1.8135 135.328 -9.62311 140.097C-18.5886 145.576 -9.82768 162.875 3.07582 167.071C15.9793 162.875 24.7453 145.571 15.7747 140.097H15.785Z" fill="#5C4FA1"/>
<path d="M360.241 111.734H322.881C320.411 111.734 318.406 113.721 318.406 116.169V140.036C318.406 142.484 320.411 144.471 322.881 144.471H334.005L337.518 150.498L341.564 157.446L345.609 150.498L349.123 144.471H360.247C362.717 144.471 364.722 142.484 364.722 140.036V116.169C364.722 113.721 362.717 111.734 360.247 111.734H360.241Z" fill="#FCB32B"/>
<path d="M338.577 138.759C341.814 139.154 345.098 139.175 348.34 138.815C349.123 138.729 349.926 138.612 350.591 138.201C351.256 137.791 351.747 137.076 351.578 136.316C352.166 136.311 352.652 135.87 353.066 135.459C353.235 135.292 353.414 135.12 353.516 134.902C353.639 134.654 353.659 134.37 353.644 134.091C353.598 133.219 353.189 132.413 352.422 131.982C353.122 131.775 353.705 131.207 353.915 130.513C354.125 129.818 353.961 129.023 353.496 128.47C353.184 128.1 352.81 127.923 352.36 127.74C352.677 127.456 353.122 127.32 353.373 126.975C353.721 126.498 353.531 125.784 353.092 125.383C352.652 124.988 352.038 124.846 351.45 124.79C350.371 124.694 349.286 124.836 348.207 124.877C347.128 124.917 345.957 124.719 344.996 124.223C344.786 122.809 345.129 121.334 344.745 119.955C344.274 118.262 342.643 116.955 340.879 116.853C340.541 116.833 340.163 116.873 339.943 117.132C339.784 117.325 339.753 117.588 339.753 117.831C339.748 118.972 340.183 120.067 340.444 121.177C340.71 122.287 340.776 123.549 340.122 124.486C339.866 124.851 339.513 125.15 339.303 125.546C339.017 126.088 339.042 126.742 338.889 127.34C338.741 127.938 338.27 128.561 337.651 128.5L338.567 138.759H338.577Z" fill="white"/>
<path d="M338.055 125.53H334.184C333.884 125.53 333.642 125.771 333.642 126.068V139.423C333.642 139.72 333.884 139.96 334.184 139.96H338.055C338.355 139.96 338.597 139.72 338.597 139.423V126.068C338.597 125.771 338.355 125.53 338.055 125.53Z" fill="white"/>
<path d="M336.598 127.325C336.598 127.654 336.327 127.923 335.994 127.923C335.662 127.923 335.391 127.654 335.391 127.325C335.391 126.995 335.662 126.727 335.994 126.727C336.327 126.727 336.598 126.995 336.598 127.325Z" fill="white"/>
<path d="M311.722 305.263C312.934 305.334 317.572 313.727 319.68 319.606C321.792 325.486 316.023 350.392 316.023 350.392L313.706 349.282C315.02 344.422 310.515 305.197 311.722 305.268V305.263Z" fill="#F7996F"/>
<path d="M310.622 351.259H318.053C318.053 351.259 316.826 347.726 313.916 347.964C312.141 348.111 310.622 351.259 310.622 351.259Z" fill="#5C4FA1"/>
<path d="M305.359 344.508L311.169 345.015C311.169 345.015 311.169 320.793 312.535 306.053C312.535 306.053 308.039 324.472 305.354 344.503" fill="#FCB32B"/>
<path d="M320.477 264.061C316.084 264.365 314.427 245.121 314.862 244.294C314.862 244.294 317.936 242.987 318.299 244.016C319.235 246.682 322.441 263.919 320.477 264.061Z" fill="#FCB32B"/>
<path d="M317.051 244.908C316.463 245.09 314.867 244.299 314.867 244.299C314.432 245.126 316.089 264.371 320.483 264.066C320.595 264.056 320.692 263.985 320.769 263.874C317.347 261.36 316.544 248.045 317.051 244.913V244.908Z" fill="#E59A24"/>
<path d="M318.227 217.71C313.292 215.085 313.338 244.695 314.785 245.496C314.785 245.496 317.731 246.296 318.442 245.095C320.595 241.461 320.431 218.881 318.227 217.71Z" fill="#FCB32B"/>
<path d="M316.964 246.028C315.982 245.485 314.601 230.133 315.337 221.091C313.409 228.481 313.716 244.908 314.785 245.501C314.785 245.501 315.972 246.013 317 246.048C316.974 246.038 316.959 246.033 316.959 246.033L316.964 246.028Z" fill="#E59A24"/>
<path d="M320.549 265.551L321.725 265.05L321.925 260.078C321.925 260.078 320.442 260.594 320.053 260.99C319.664 261.385 320.554 265.551 320.554 265.551H320.549Z" fill="white"/>
<path d="M320.641 265.551L319.332 265.511L317.138 261.172C317.138 261.172 319.424 260.635 319.961 260.858C320.498 261.081 320.636 265.551 320.636 265.551H320.641Z" fill="white"/>
<path d="M348.238 302.293C346.97 302.333 342.321 311.091 340.255 317.265C338.188 323.438 344.842 350.027 344.842 350.027L347.241 348.917C345.747 343.722 349.501 302.252 348.238 302.293Z" fill="#F7996F"/>
<path d="M351.169 351.259H343.19C343.19 351.259 344.54 348.39 347.665 348.588C349.568 348.704 351.169 351.259 351.169 351.259Z" fill="#5C4FA1"/>
<path d="M353.792 345.638C354.043 318.628 352.805 271.867 345.589 258.233C338.296 244.457 335.846 239.788 344.561 223.98C344.561 223.98 344.561 223.96 344.556 223.939C344.453 223.265 342.474 210.66 336.414 204.553C331.949 200.052 326.154 199.874 321.991 205.48C316.959 212.262 315.859 224.897 315.859 224.897C323.249 236.656 329.632 235.876 317.557 254.619C310.1 266.19 304.654 316.195 303.897 345.146" fill="#FCB32B"/>
<path d="M303.897 345.146C312.632 343.874 322.283 347.671 334.419 345.187C342.755 343.479 346.33 344.766 353.792 345.638" fill="#E59A24"/>
<path d="M353.792 345.638C354.043 318.628 352.805 271.867 345.589 258.233C338.383 244.619 335.912 239.89 344.269 224.527C339.881 225.642 334.91 226.276 329.637 226.276C324.712 226.276 320.048 225.724 315.88 224.745C315.869 224.847 315.864 224.897 315.864 224.897C323.254 236.656 329.637 235.876 317.562 254.619C310.105 266.19 304.659 316.195 303.902 345.146" fill="#FCB32B"/>
<path d="M306.055 344.939C306.352 311.806 318.877 240.164 331.458 240.164C344.039 240.164 352.058 312.521 352.191 345.435C352.708 345.501 353.235 345.572 353.792 345.638" fill="#E59A24"/>
<path d="M344.101 344.564C344.101 344.564 345.205 327.625 344.653 317.148C344.653 317.148 346.428 330.483 347.916 344.822L344.101 344.564Z" fill="#FCB32B"/>
<path d="M334.087 239.824C334.087 239.824 338.444 256.504 340.393 266.834C340.393 266.834 339.375 253.559 337.145 239.408L334.087 239.819V239.824Z" fill="#FCB32B"/>
<path d="M322.4 228.602H355.833C356.298 228.602 356.677 228.977 356.677 229.439V251.071H321.556V229.439C321.556 228.977 321.935 228.602 322.4 228.602Z" fill="#E0DFDF"/>
<path d="M356.677 250.701H321.556V253.281H356.677V250.701Z" fill="#A1B1D0"/>
<path d="M342.275 240.757C342.275 242.485 340.858 243.889 339.114 243.889C337.37 243.889 335.953 242.485 335.953 240.757C335.953 239.028 337.37 237.624 339.114 237.624C340.858 237.624 342.275 239.028 342.275 240.757Z" fill="white"/>
<path d="M340.899 249.616L340.546 249.028C340.439 249.028 340.336 249.049 340.234 249.054C340.086 248.927 339.937 248.81 339.794 248.684C339.615 248.927 339.498 249.084 339.462 249.14C337.626 249.429 336.301 250.189 335.636 250.589C335.125 250.899 335.145 251.263 335.227 251.486C335.268 251.598 335.391 251.644 335.493 251.588C335.994 251.329 337.043 251 337.339 251.284C337.677 251.603 334.291 254.446 334.613 255.004C334.741 255.227 337.206 253.266 337.206 253.266C337.206 253.266 334.956 255.866 335.375 256.018C335.795 256.17 338.071 254.137 338.071 254.137C338.071 254.137 336.137 257.001 336.623 256.976C337.109 256.95 338.92 254.953 338.92 254.953C338.326 256.073 338.245 256.616 338.27 256.869C338.28 256.991 338.408 257.036 338.5 256.96C339.595 255.967 340.919 252.855 341.451 251.542H341.456V251.557C341.825 251.36 342.172 251.137 342.525 250.929C341.973 250.503 341.436 250.067 340.899 249.626V249.616Z" fill="#FCC08F"/>
<path d="M320.621 269.419C319.669 271.091 318.053 271.076 317.583 270.493C317.424 270.29 319.306 265.627 320.339 265.876C321.071 266.053 321.572 267.746 320.621 269.419Z" fill="#FDCD9D"/>
<path d="M324.753 269.763C324.482 269.784 324.835 271.243 324.911 271.73C324.983 272.171 325.193 272.47 325.413 272.303C325.986 271.867 325.126 269.738 324.753 269.763Z" fill="#FDCD9D"/>
<path d="M324.114 271.928C323.873 271.786 323.602 272.886 323.572 273.377C323.546 273.808 323.638 273.854 323.904 273.793C324.615 273.636 324.702 272.272 324.114 271.922V271.928Z" fill="#FDCD9D"/>
<path d="M322.4 273.195C322.16 273.053 322.242 274.208 322.221 274.771C322.206 275.146 322.206 275.42 322.477 275.364C323.188 275.207 323.168 273.646 322.4 273.195Z" fill="#FDCD9D"/>
<path d="M321.086 262.176C321.086 265.232 325.489 268.78 323.658 269.733C322.017 270.584 318.074 269.515 319.26 262.439L321.086 262.176Z" fill="#FDCD9D"/>
<path d="M319.393 266.129C320.559 263.083 324.308 267.878 324.727 269.11C325.188 270.463 322.538 273.007 321.92 272.049C320.027 269.115 317.849 270.169 319.393 266.129Z" fill="#FDCD9D"/>
<path d="M322.615 272.166C323.142 273.747 323.055 274.69 322.62 274.771C322.186 274.857 322.278 274.137 321.746 272.556C321.214 270.975 319.818 268.892 320.252 268.805C320.687 268.719 322.083 270.584 322.615 272.166Z" fill="#FDCD9D"/>
<path d="M323.838 270.757C324.692 272.237 324.41 273.301 324.011 273.468C323.612 273.631 323.152 272.1 322.298 270.62C321.444 269.14 320.973 268.136 321.372 267.974C321.771 267.812 322.983 269.282 323.832 270.757H323.838Z" fill="#FDCD9D"/>
<path d="M324.543 268.451C325.377 269.936 325.51 270.949 325.111 271.117C324.707 271.284 324.344 270.204 323.51 268.719C322.671 267.229 322.109 266.18 322.513 266.013C322.912 265.845 323.71 266.966 324.543 268.451Z" fill="#FDCD9D"/>
<path d="M317.48 271.968C317 272.46 316.918 273.154 317.281 273.6L319.557 276.398C319.68 276.55 319.879 276.631 320.094 276.616C320.314 276.606 320.534 276.499 320.692 276.332L326.609 270.24C327.014 269.824 327.085 269.236 326.778 268.861L324.61 266.19C324.436 265.977 324.16 265.861 323.848 265.881C323.536 265.896 323.229 266.043 322.999 266.281L317.48 271.963V271.968Z" fill="#A09D98"/>
<path d="M321.945 267.371C323.081 268.359 323.832 269.844 323.894 271.532C323.914 272.12 323.853 272.693 323.715 273.23L326.615 270.245C327.019 269.829 327.09 269.241 326.783 268.866L324.615 266.195C324.441 265.982 324.165 265.866 323.853 265.886C323.541 265.901 323.234 266.048 323.004 266.286L321.95 267.371H321.945Z" fill="#88847C"/>
<path d="M316.948 271.512C316.468 272.004 316.386 272.698 316.749 273.144L319.025 275.942C319.148 276.094 319.347 276.175 319.562 276.16C319.782 276.145 320.002 276.043 320.16 275.876L326.072 269.784C326.477 269.368 326.548 268.78 326.241 268.405L324.073 265.734C323.899 265.521 323.623 265.404 323.311 265.425C322.999 265.445 322.692 265.587 322.462 265.825L316.948 271.507V271.512Z" fill="#EEE7DE"/>
<path d="M318.565 270.088C318.846 272.546 319.741 274.573 320.748 275.278L323.377 272.571C323.505 271.674 323.515 270.64 323.393 269.545C323.229 268.131 322.866 266.864 322.395 265.906L318.544 269.875C318.549 269.946 318.559 270.017 318.565 270.093V270.088Z" fill="#FFF4EA"/>
<path d="M317.347 271.836C316.959 272.237 316.887 272.789 317.184 273.139L319.04 275.323C319.143 275.44 319.301 275.501 319.48 275.491C319.659 275.475 319.838 275.389 319.971 275.258L324.799 270.316C325.131 269.976 325.188 269.51 324.937 269.216L323.168 267.133C323.024 266.966 322.799 266.879 322.544 266.9C322.293 266.92 322.037 267.042 321.848 267.234L317.342 271.846L317.347 271.836Z" fill="#443D32"/>
<path d="M319.536 269.773L317.475 271.882C317.107 272.257 317.046 272.774 317.322 273.098L319.056 275.141C319.096 275.192 319.153 275.227 319.214 275.252C319.864 274.447 319.859 270.513 319.541 269.773H319.536Z" fill="#71675B"/>
<path d="M321.337 267.751C322.329 269.079 322.677 271.02 322.431 272.723L324.794 270.306C325.126 269.966 325.183 269.5 324.932 269.206L323.162 267.123C323.019 266.955 322.794 266.869 322.538 266.89C322.288 266.91 322.032 267.031 321.843 267.224L321.326 267.751H321.337Z" fill="#5C5144"/>
<path d="M324.129 267.118C323.909 267.295 323.848 267.599 323.996 267.797C324.144 267.994 324.441 268.015 324.661 267.837C324.881 267.66 324.942 267.356 324.794 267.158C324.646 266.96 324.349 266.94 324.129 267.118Z" fill="#4D4943"/>
<path d="M324.211 267.229C324.057 267.351 324.016 267.564 324.119 267.7C324.221 267.837 324.426 267.853 324.579 267.731C324.733 267.609 324.773 267.396 324.671 267.26C324.569 267.123 324.364 267.107 324.211 267.229Z" fill="#EEE7DE"/>
<path d="M322.52 273.774L321.361 274.947L321.554 275.135L322.714 273.962L322.52 273.774Z" fill="#D6C7B4"/>
<path d="M319.01 270.427C318.074 270.838 317.583 270.812 317.562 270.331C317.562 270.23 317.925 269.677 318.933 269.409C319.337 269.302 319.859 269.165 319.992 269.383C320.227 269.768 320.15 269.926 319.004 270.427H319.01Z" fill="#FDCD9D"/>
<path d="M321.597 274.649C321.209 274.203 321.199 273.93 321.49 273.722C321.551 273.676 321.95 273.605 322.395 274.026C322.641 274.259 323.045 274.639 322.902 274.943C322.62 275.546 322.088 275.46 321.592 274.649H321.597Z" fill="#FDCD9D"/>
<path d="M323.075 273.144C322.682 272.703 322.677 272.424 322.968 272.216C323.029 272.171 323.428 272.1 323.873 272.521C324.119 272.754 324.523 273.134 324.38 273.438C324.098 274.041 323.505 273.965 323.07 273.144H323.075Z" fill="#FDCD9D"/>
<path d="M324.538 271.907C324.231 271.542 324.226 271.319 324.451 271.147C324.497 271.112 324.809 271.056 325.162 271.395C325.356 271.583 325.674 271.897 325.561 272.146C325.341 272.642 325.172 272.652 324.538 271.902V271.907Z" fill="#FDCD9D"/>
<path d="M340.904 211.466C335.703 216.195 362.788 236.21 364.046 236.494C364.046 236.494 367.381 235.592 366.824 234.203C365.381 230.61 343.226 209.358 340.904 211.466Z" fill="#FCB32B"/>
<path d="M340.326 212.429C340.423 212.059 340.607 211.735 340.904 211.466C343.226 209.358 365.381 230.604 366.824 234.203C366.885 234.36 366.895 234.527 366.875 234.7C362.635 229.398 346.039 214.705 340.326 212.429Z" fill="#E59A24"/>
<path d="M341.523 250.199C338.219 246.327 363.013 232.5 364.093 232.338C364.093 232.338 367.785 233.098 366.558 235.288C364.952 238.156 342.996 251.933 341.518 250.199H341.523Z" fill="#FCB32B"/>
<path d="M362.144 238.942C355.199 243.924 342.638 251.502 341.523 250.199C341.242 249.87 341.165 249.469 341.257 249.013C346.515 247.264 356.268 242.399 362.139 238.942H362.144Z" fill="#E59A24"/>
<path d="M340.009 250.706L341.308 251.568L346.668 249.398C346.668 249.398 344.06 247.128 343.395 246.981C342.73 246.829 340.009 250.706 340.009 250.706Z" fill="white"/>
<path d="M340.076 250.797L339.237 249.479L342.602 244.735C342.602 244.735 343.743 247.3 343.876 247.969C344.008 248.633 340.076 250.802 340.076 250.802V250.797Z" fill="white"/>
<path d="M318.923 212.105C318.923 212.105 315.332 218.035 317.496 225.769L327.806 227.857C327.806 227.574 325.525 220.969 325.188 217.639C325.188 217.639 340.342 219.499 340.628 210.919L318.923 212.105Z" fill="#E59A24"/>
<path d="M320.171 206.889C315.9 209.93 321.239 216.95 329.187 216.899C337.345 216.844 343.512 212.064 339.549 207.315C337.232 204.537 335.795 206.544 337.733 198.131C339.487 190.508 319.516 190.336 319.557 191.77C319.731 197.725 326.272 202.54 320.171 206.889Z" fill="#5C4FA1"/>
<path d="M335.739 215.713C340.122 213.995 342.331 210.645 339.554 207.315C337.237 204.537 335.8 206.544 337.738 198.131C339.493 190.508 319.521 190.336 319.562 191.77C319.736 197.725 326.277 202.54 320.176 206.889C315.905 209.93 321.245 216.95 329.192 216.899C329.596 216.899 329.99 216.879 330.384 216.854H330.374C325.495 216.854 321.541 214.385 321.541 211.344C321.541 208.303 325.495 205.835 330.374 205.835C335.253 205.835 339.206 208.303 339.206 211.344C339.206 213.123 337.846 214.705 335.744 215.713H335.739Z" fill="#46409A"/>
<path d="M339.431 177.198C335.78 171.805 324.103 170.721 318.953 178.648C314.32 185.774 316.882 198.339 322.124 205.105C324.165 207.741 334.199 209.641 336.874 205.951C340.899 200.391 344.919 185.292 339.436 177.198H339.431Z" fill="#46409A"/>
<path d="M336.879 195.095C337.15 193.838 336.905 192.804 338.035 193.042C339.16 193.28 339.856 194.492 339.585 195.749C339.313 197.006 338.178 197.827 337.053 197.589C335.928 197.35 336.608 196.352 336.879 195.095Z" fill="#FCC08F"/>
<path d="M337.774 195.531C337.933 194.801 337.835 194.208 338.378 194.324C338.92 194.441 339.237 195.125 339.078 195.855C338.92 196.585 338.352 197.087 337.81 196.97C337.268 196.854 337.621 196.266 337.774 195.536V195.531Z" fill="#EF9070"/>
<path d="M338.091 196.686C337.728 197.072 337.641 197.523 337.181 197.097C336.726 196.671 336.644 196.017 337.007 195.637C337.37 195.257 338.035 195.293 338.49 195.718C338.95 196.144 338.449 196.306 338.091 196.686Z" fill="#FCC08F"/>
<path d="M322.201 195.095C321.93 193.838 322.175 192.804 321.045 193.042C319.92 193.28 319.224 194.492 319.495 195.749C319.766 197.006 320.902 197.827 322.027 197.589C323.152 197.35 322.472 196.352 322.201 195.095Z" fill="#FCC08F"/>
<path d="M321.306 195.531C321.147 194.801 321.245 194.208 320.702 194.324C320.16 194.441 319.843 195.125 320.002 195.855C320.16 196.585 320.728 197.087 321.27 196.97C321.812 196.854 321.459 196.266 321.306 195.536V195.531Z" fill="#EF9070"/>
<path d="M320.984 196.686C321.347 197.072 321.434 197.523 321.894 197.097C322.349 196.671 322.431 196.017 322.068 195.637C321.705 195.257 321.04 195.293 320.585 195.718C320.125 196.144 320.626 196.306 320.984 196.686Z" fill="#FCC08F"/>
<path d="M329.32 203.858C322.656 202.404 318.662 196.104 321.771 182.768C322.4 180.072 324.871 178.526 329.535 178.526C334.67 178.526 337.017 180.173 337.391 182.353C340.035 197.781 335.34 202.885 329.32 203.858Z" fill="#FCC08F"/>
<path d="M328.926 197.34C328.926 197.401 329.371 197.497 329.53 197.497C329.796 197.497 330.123 197.406 330.133 197.3C330.159 197.036 330.374 194.01 329.566 194.036C328.681 194.066 328.921 196.955 328.931 197.34H328.926Z" fill="#FCC08F"/>
<path d="M321.567 183.437C321.567 183.437 329.489 181.116 337.631 183.696C337.631 183.696 336.132 177.325 329.279 177.325C322.426 177.325 321.567 183.432 321.567 183.432V183.437Z" fill="#F3E4C9"/>
<path d="M329.489 176.053C323.459 176.053 318.565 183.179 318.565 191.973C318.565 200.766 323.454 207.893 329.489 207.893C335.524 207.893 340.413 200.766 340.413 191.973C340.413 183.179 335.524 176.053 329.489 176.053ZM329.489 205.769C324.963 205.769 321.296 199.591 321.296 191.973C321.296 184.355 324.963 178.176 329.489 178.176C334.015 178.176 337.682 184.355 337.682 191.973C337.682 199.591 334.015 205.769 329.489 205.769Z" fill="#5C4FA1"/>
<path d="M323.403 209.651L320.007 208.83C318.278 211.354 317.322 221.208 318.544 226.018L326.328 227.462C324.579 223.97 323.403 209.651 323.403 209.651Z" fill="#5C4FA1"/>
<path d="M319.148 220.741C319.148 215.87 321.158 210.721 322.973 208.334L319.286 207.746C317.557 210.275 317.317 221.202 318.539 226.017L319.695 226.23C319.342 224.553 319.143 222.698 319.143 220.741H319.148Z" fill="#46409A"/>
<path d="M323.433 206.144L320.656 209.418C320.656 209.418 320.999 212.89 325.699 214.755C325.699 214.755 321.695 209.281 323.433 206.144Z" fill="#46409A"/>
<path d="M335.611 203.093L337.068 206.205C337.068 206.205 335.186 208.77 329.458 209.145C329.458 209.145 336.045 205.87 335.611 203.098V203.093Z" fill="#46409A"/>
<path d="M332.072 193.559C332.405 193.559 332.675 193.01 332.675 192.333C332.675 191.655 332.405 191.106 332.072 191.106C331.738 191.106 331.468 191.655 331.468 192.333C331.468 193.01 331.738 193.559 332.072 193.559Z" fill="#151C45"/>
<path d="M333.304 190.721C333.202 190.918 333.069 191.091 332.895 191.243C332.726 191.395 332.506 191.511 332.261 191.567H332.251C332.128 191.598 332.01 191.522 331.985 191.405C331.959 191.283 332.031 191.167 332.153 191.141C332.174 191.141 332.194 191.136 332.215 191.136C332.552 191.152 332.926 190.944 333.181 190.65C333.207 190.614 333.253 190.609 333.284 190.635C333.309 190.655 333.314 190.69 333.299 190.721H333.304Z" fill="#151C45"/>
<path d="M326.845 193.559C327.178 193.559 327.448 193.01 327.448 192.333C327.448 191.655 327.178 191.106 326.845 191.106C326.511 191.106 326.241 191.655 326.241 192.333C326.241 193.01 326.511 193.559 326.845 193.559Z" fill="#151C45"/>
<path d="M325.735 190.65C325.991 190.944 326.364 191.147 326.702 191.137C326.824 191.137 326.927 191.228 326.932 191.349C326.932 191.471 326.84 191.572 326.717 191.577C326.696 191.577 326.676 191.577 326.661 191.572H326.65C326.405 191.517 326.19 191.395 326.016 191.248C325.842 191.096 325.709 190.924 325.607 190.726C325.587 190.69 325.607 190.65 325.638 190.63C325.668 190.614 325.704 190.625 325.725 190.645L325.735 190.65Z" fill="#151C45"/>
<path d="M331.724 196.038C331.514 196.443 331.197 196.788 330.813 197.061C330.43 197.335 329.954 197.507 329.463 197.507C328.972 197.497 328.497 197.33 328.118 197.046C327.919 196.92 327.765 196.737 327.597 196.585C327.453 196.403 327.315 196.22 327.193 196.033C327.377 196.169 327.55 196.311 327.719 196.453C327.908 196.57 328.077 196.707 328.272 196.803C328.645 197.016 329.054 197.132 329.463 197.137C329.872 197.148 330.282 197.021 330.66 196.818C331.038 196.61 331.391 196.342 331.724 196.033V196.038Z" fill="#151C45"/>
<path d="M330.092 198.212C329.918 198.364 329.683 198.42 329.458 198.425C329.228 198.42 328.998 198.354 328.824 198.212C329.049 198.248 329.248 198.293 329.458 198.283C329.668 198.293 329.872 198.253 330.092 198.212Z" fill="#151C45"/>
<path d="M327.949 188.085C327.668 187.837 327.351 187.756 327.014 187.741C326.681 187.735 326.338 187.771 326.016 187.882C325.689 187.979 325.392 188.161 325.137 188.379C324.876 188.587 324.692 188.866 324.538 189.139C324.461 189.276 324.513 189.454 324.651 189.53C324.763 189.591 324.896 189.57 324.988 189.489L325.014 189.469C325.208 189.291 325.397 189.124 325.612 188.998C325.817 188.861 326.042 188.79 326.272 188.729C326.502 188.678 326.742 188.648 326.983 188.658C327.223 188.668 327.479 188.678 327.745 188.612L327.822 188.592C327.985 188.551 328.082 188.389 328.042 188.227C328.026 188.166 327.995 188.116 327.949 188.075V188.085Z" fill="#151C45"/>
<path d="M330.967 188.085C331.248 187.837 331.565 187.756 331.903 187.741C332.235 187.735 332.578 187.771 332.9 187.882C333.227 187.979 333.524 188.161 333.78 188.379C334.041 188.587 334.225 188.866 334.378 189.139C334.455 189.276 334.404 189.454 334.266 189.53C334.153 189.591 334.02 189.57 333.928 189.489L333.903 189.469C333.708 189.291 333.519 189.124 333.304 188.998C333.1 188.861 332.875 188.79 332.644 188.729C332.414 188.678 332.174 188.648 331.934 188.658C331.693 188.668 331.437 188.678 331.171 188.612L331.095 188.592C330.931 188.551 330.834 188.389 330.875 188.227C330.89 188.166 330.921 188.116 330.967 188.075V188.085Z" fill="#151C45"/>
<path d="M329.601 190.462C329.709 190.924 329.785 191.385 329.872 191.836C329.959 192.287 330.046 192.738 330.174 193.169C330.205 193.275 330.236 193.382 330.276 193.483C330.307 193.569 330.384 193.726 330.384 193.878C330.399 194.183 330.2 194.482 329.949 194.603C329.693 194.745 329.397 194.725 329.162 194.644C328.926 194.558 328.717 194.431 328.538 194.274C328.972 194.436 329.479 194.563 329.78 194.335C329.934 194.218 330.016 194.066 329.995 193.899C329.985 193.813 329.959 193.757 329.903 193.625C329.857 193.508 329.816 193.397 329.78 193.28C329.647 192.814 329.581 192.343 329.555 191.871C329.53 191.4 329.535 190.929 329.601 190.457V190.462Z" fill="#151C45"/>
</g>
<defs>
<linearGradient id="paint0_linear_29_4223" x1="28.5146" y1="75.8291" x2="41.9287" y2="1.99969" gradientUnits="userSpaceOnUse">
<stop stop-color="#4C57A6"/>
<stop offset="1" stop-color="#5560AB"/>
</linearGradient>
<clipPath id="clip0_29_4223">
<rect width="547" height="358" fill="white" transform="translate(-109)"/>
</clipPath>
</defs>
</svg>
