<svg width="348" height="305" viewBox="0 0 348 305" fill="none" xmlns="http://www.w3.org/2000/svg">
<g clip-path="url(#clip0_328_1641)">
<path d="M314.334 209.832C306.084 206.005 304.832 196.875 301.391 192.13C297.99 187.346 289.739 184.435 289.739 184.435C289.739 184.435 297.638 178.216 310.189 179.651C316.133 180.369 320.551 183.08 324.187 185.99C322.311 180.488 324.187 177.299 320.981 172.076C317.188 165.936 309.837 162.627 305.732 152.46C301.587 142.294 305.732 133.163 305.732 133.163C305.732 133.163 306.983 136.831 311.988 140.499C316.484 143.769 329.153 144.247 336.661 154.135C332.79 98.4373 294.783 67.9772 268.507 52.0693C245.946 38.434 231.361 9.96738 170.364 14.0739C109.366 18.2203 95.7586 58.1295 80.6656 88.3105C72.298 105.056 53.373 108.763 37.4198 120.246C49.2283 117.096 56.7357 122.917 65.6117 124.751C76.2863 126.944 77.9676 119.289 87.5474 119.329C97.0881 119.369 100.685 122.797 100.685 122.797C100.685 122.797 91.1056 121.322 88.0166 129.615C84.8885 137.908 81.0566 141.058 71.4768 139.742C61.8971 138.426 59.16 139.144 54.0768 143.769C48.9937 148.433 37.2634 145.005 30.538 146.719C26.5888 147.716 21.1928 154.892 17.4391 160.594C20.4499 158.082 24.5946 155.331 30.1861 152.819C45.7483 145.722 65.6117 158.68 65.6117 158.68C65.6117 158.68 49.9321 162.348 40.8607 168.687C31.7501 175.026 25.2984 168.926 19.0813 171.119C15.9533 172.235 13.4508 173.352 11.6912 174.189C11.6912 174.216 11.6912 174.229 11.6912 174.229C10.44 193.964 17.7519 211.507 30.1861 226.537C60.6067 263.297 121.644 285.065 162.778 287.697C205.75 290.408 281.215 274.101 317.032 225.58C320.199 221.314 323.053 216.729 325.556 211.945C321.959 211.905 317.853 211.427 314.334 209.832Z" fill="#F0A809"/>
<path d="M158.871 95.2876C158.871 107.884 148.848 118.139 136.463 118.139C124.078 118.139 114.055 107.884 114.055 95.2876C114.055 82.651 124.078 72.3968 136.463 72.3968C148.848 72.3968 158.871 82.651 158.871 95.2876Z" fill="#FFE6AE" stroke="#E59A24" stroke-width="0.30719"/>
<path d="M300.026 72.2433C300.026 76.7866 296.416 80.4623 292.007 80.4623C287.559 80.4623 283.949 76.7862 283.949 72.2433C283.949 67.7408 287.559 64.0642 292.007 64.0642C296.416 64.0642 300.026 67.7404 300.026 72.2433Z" fill="#FFE6AE" stroke="#E59A24" stroke-width="0.30719"/>
<path d="M126.083 179.604L126.062 179.452L126.083 179.604C162.791 174.587 193.939 186.938 222.871 200.169C225.92 201.563 228.945 202.967 231.95 204.362C243.194 209.582 254.15 214.669 265.014 218.601C278.783 223.585 292.417 226.722 306.327 225.933L306.328 225.933C309.968 225.701 313.424 225.657 316.732 225.727C298.843 249.822 271.142 265.94 242.539 275.705C213.842 285.502 184.252 288.898 162.788 287.543C142.24 286.229 116.714 280.134 92.5248 269.774C68.3788 259.432 45.5777 244.847 30.3882 226.54C42.0047 213.411 71.6003 187.035 126.083 179.604Z" fill="#FFE6AE" stroke="#E59A24" stroke-width="0.30719"/>
<path d="M78.7887 70.9276C85.6314 50.0759 69.4436 59.6844 63.3438 73.0008C57.244 86.3171 45.7483 87.7524 45.7483 95.2877C45.7483 102.783 71.9851 91.7792 78.7887 70.9276Z" fill="#FFE6AE"/>
<path d="M265.849 44.7336C265.849 44.7336 246.845 28.2675 239.103 22.9649C231.401 17.6623 234.802 10.5257 252.476 18.7388C270.189 26.9917 277.696 42.8996 275.389 46.2087C273.043 49.5179 265.849 44.7336 265.849 44.7336Z" fill="#FFE6AE"/>
<path d="M89.1145 94.0118C89.1145 94.6507 88.6299 95.1341 88.0559 95.1341C87.4397 95.1341 86.9583 94.6475 86.9583 94.0118C86.9583 93.4192 87.4366 92.9295 88.0559 92.9295C88.633 92.9295 89.1145 93.416 89.1145 94.0118Z" fill="#2E2E7F" stroke="#5E47A5" stroke-width="0.30719"/>
<path d="M99.3979 96.4037C99.3979 96.9995 98.9165 97.4861 98.3394 97.4861C97.72 97.4861 97.2417 96.9963 97.2417 96.4037C97.2417 95.7681 97.7232 95.2815 98.3394 95.2815C98.9133 95.2815 99.3979 95.7649 99.3979 96.4037Z" fill="#2E2E7F" stroke="#5E47A5" stroke-width="0.30719"/>
<path d="M133.807 59.0463C133.807 59.6421 133.326 60.1287 132.749 60.1287C132.129 60.1287 131.651 59.6389 131.651 59.0463C131.651 58.4107 132.132 57.9241 132.749 57.9241C133.323 57.9241 133.807 58.4075 133.807 59.0463Z" fill="#2E2E7F" stroke="#5E47A5" stroke-width="0.30719"/>
<path d="M294.431 169.883C294.431 170.601 293.884 171.159 293.219 171.159C292.555 171.159 292.007 170.601 292.007 169.883C292.007 169.205 292.555 168.647 293.219 168.647C293.884 168.647 294.431 169.205 294.431 169.883Z" fill="#8DAD78"/>
<path d="M298.615 166.494C298.615 167.212 298.068 167.77 297.403 167.77C296.699 167.77 296.152 167.212 296.152 166.494C296.152 165.816 296.699 165.258 297.403 165.258C298.068 165.258 298.615 165.816 298.615 166.494Z" fill="#8DAD78"/>
<path d="M96.9345 89.985C96.9345 90.9815 96.1383 91.8249 95.1331 91.8249C94.1239 91.8249 93.2925 90.9775 93.2925 89.985C93.2925 88.9506 94.1259 88.1053 95.1331 88.1053C96.1364 88.1053 96.9345 88.9466 96.9345 89.985Z" fill="#2E2E7F" stroke="#5E47A5" stroke-width="0.30719"/>
<path d="M305.265 103.62C305.265 104.651 304.436 105.46 303.425 105.46C302.454 105.46 301.623 104.653 301.623 103.62C301.623 102.584 302.458 101.741 303.425 101.741C304.432 101.741 305.265 102.586 305.265 103.62Z" fill="#2E2E7F" stroke="#5E47A5" stroke-width="0.30719"/>
<path d="M93.1388 164.142C93.1388 165.617 92.0049 166.773 90.5972 166.773C89.1896 166.773 88.0557 165.617 88.0557 164.142C88.0557 162.707 89.1896 161.55 90.5972 161.55C92.0049 161.55 93.1388 162.707 93.1388 164.142Z" stroke="white" stroke-width="0.614379"/>
<path d="M237.774 52.9068C237.774 54.3421 236.64 55.4983 235.233 55.4983C233.825 55.4983 232.652 54.3421 232.652 52.9068C232.652 51.4715 233.825 50.2754 235.233 50.2754C236.64 50.2754 237.774 51.4715 237.774 52.9068Z" stroke="white" stroke-width="0.614379"/>
<path d="M117.851 44.534C117.851 49.1589 114.175 52.8667 109.679 52.8667C105.182 52.8667 101.507 49.1589 101.507 44.534C101.507 39.9491 105.182 36.2412 109.679 36.2412C114.175 36.2412 117.851 39.9491 117.851 44.534Z" stroke="white" stroke-width="0.614379"/>
<path d="M347.453 116.259C347.453 125.668 339.945 133.283 330.717 133.283C321.49 133.283 314.021 125.668 314.021 116.259C314.021 106.85 321.49 99.1948 330.717 99.1948C339.945 99.1948 347.453 106.85 347.453 116.259Z" stroke="white" stroke-width="0.614379"/>
<path d="M33.9788 199.187C33.9788 208.596 26.5105 216.251 17.2826 216.251C8.05478 216.251 0.547363 208.596 0.547363 199.187C0.547363 189.778 8.05478 182.163 17.2826 182.163C26.5105 182.163 33.9788 189.778 33.9788 199.187Z" stroke="white" stroke-width="0.614379"/>
<path d="M144.009 25.7158C144.009 25.7158 140.49 27.5897 140.334 35.4439C140.138 43.338 147.528 46.9661 152.182 46.8864L151.791 45.6505C151.791 45.6505 143.853 44.7733 141.781 37.9158C139.747 31.0184 144.244 26.3936 144.244 26.3936L144.009 25.7158Z" fill="#3D2624"/>
<path d="M272.3 162.946C272.3 162.946 270.658 175.385 249.309 180.129C227.92 184.874 205.867 172.435 205.867 172.435L209.465 172.076C209.465 172.076 221.938 179.452 236.875 178.535C251.85 177.618 260.335 168.368 260.335 168.368L272.3 162.946Z" fill="#3D2624"/>
<path fill-rule="evenodd" clip-rule="evenodd" d="M283.288 156.288C268.859 183.16 251.889 177.618 228.116 175.585C204.342 173.551 194.45 172.435 173.062 173.79C151.673 175.146 137.949 174.229 130.168 161.59C122.426 148.952 125.28 116.857 141.781 103.302C158.32 89.746 160.627 65.6251 160.627 65.6251L210.208 36.5205C210.208 36.5205 208.409 63.512 233.238 67.5787C258.067 71.6453 278.869 87.4734 277.54 102.823C277.54 102.823 297.716 129.416 283.288 156.288ZM276.445 101.587C276.445 101.587 276.132 83.8453 245.75 74.1571C245.75 74.1571 253.492 78.4231 263.268 86.2375C273.004 94.012 275.546 101.587 275.546 101.587H276.445Z" fill="#523939"/>
<path d="M143.54 89.1475C143.54 89.1475 136.502 95.6063 131.497 109.162C126.531 122.717 116.013 164.74 116.013 164.74L133.022 175.584L149.445 129.734L143.54 89.1475Z" fill="#F6BA8A"/>
<path d="M211.342 154.334C208.722 162.148 209.386 170.68 213.101 177.976L214.04 182.003L216.542 193.007C199.377 208.197 175.564 213.301 160.94 209.991C146.277 206.722 142.563 194.482 142.563 194.482L144.83 178.335L140.92 142.373C140.92 142.373 137.91 137.669 136.619 126.784C135.329 115.9 143.54 89.1477 143.54 89.1477L170.207 78.2634L189.64 76.5889L222.094 89.1477L226.278 99.8725C226.161 105.813 221.86 121.043 217.402 135.476C215.291 142.293 213.101 148.952 211.342 154.334Z" fill="#5C4FA1"/>
<path d="M189.836 78.3431C186.786 84.0045 175.916 91.1012 171.498 89.5463C167.118 87.9914 170.677 80.0176 170.677 80.0176C170.729 78.8746 170.768 77.8248 170.794 76.8679C170.989 70.4888 170.95 67.7777 170.95 67.7777L189.836 55.0195C189.406 57.3718 189.171 60.0032 189.093 62.6744C188.859 70.4489 189.836 78.3431 189.836 78.3431Z" fill="#FDCD9D"/>
<path d="M189.836 55.0195C189.406 57.3718 189.171 60.0032 189.093 62.6744C186.942 66.0235 183.345 70.9672 179.591 73.6784C175.72 76.5091 172.553 76.9078 170.794 76.8679C170.989 70.4888 170.95 67.7777 170.95 67.7777L189.836 55.0195Z" fill="#EEA66D"/>
<path d="M150.422 48.2819C150.422 48.2819 151.087 64.0302 161.957 71.127C172.866 78.2237 188.076 63.3525 190.696 55.1394C193.316 46.9263 192.456 29.1845 192.456 29.1845C192.456 29.1845 178.066 19.4165 167.196 19.4165C156.326 19.4165 150.422 24.9583 150.422 24.9583C150.422 24.9583 150.422 40.0688 150.422 48.2819Z" fill="#FDCD9D"/>
<path d="M162.856 19.7355C162.856 19.7355 162.504 25.5166 172.983 32.2943C183.423 39.0721 189.093 40.4277 189.093 40.4277L191.283 52.9068C191.283 52.9068 189.758 56.8139 189.367 58.2094C188.897 59.7643 189.054 64.7081 189.054 64.7081C189.054 64.7081 197.891 63.3525 200.941 55.0198C200.941 55.0198 209.973 48.1623 210.286 35.7231C210.638 23.2839 204.303 19.4166 204.303 19.4166C204.303 19.4166 202.7 4.54532 186.59 1.99368C170.442 -0.557949 157.617 8.65186 157.617 8.65186C157.617 8.65186 149.757 7.53552 145.534 13.197C141.272 18.8584 144.009 25.7159 144.009 25.7159C144.009 25.7159 140.295 29.3839 142.484 35.4041C144.674 41.3845 150.422 42.1819 150.422 42.1819C150.422 42.1819 150.969 31.9355 153.902 26.8323C156.835 21.729 162.856 19.7355 162.856 19.7355Z" fill="#523939"/>
<path d="M189.836 42.2613C189.836 42.2613 191.908 37.0384 196.17 36.5201C200.393 35.9619 200.706 43.6168 197.773 48.7201C194.841 53.8234 190.696 52.8266 190.696 52.8266L189.836 42.2613Z" fill="#E6A672"/>
<path d="M187.764 36.4805C187.764 36.4805 190.618 45.172 188.976 52.0295C188.976 52.0295 189.406 51.5909 190.032 50.6739C191.4 48.6406 191.947 40.9458 192.573 38.3145L187.764 36.4805Z" fill="#3D2624"/>
<path d="M157.382 9.40896C157.382 9.40896 160.94 4.14622 167.705 2.03315C174.469 -0.119794 180.1 2.03315 180.1 2.03315L181.195 1.95341C181.195 1.95341 174.9 -1.15639 167.783 1.07628C160.667 3.26909 155.74 8.9704 155.74 8.9704L157.382 9.40896Z" fill="#3D2624"/>
<path d="M204.303 19.4165C204.303 19.4165 208.096 20.1342 210.325 24.2806C212.554 28.427 210.247 32.6531 210.247 32.6531L209.856 32.1348C209.856 32.1348 211.654 28.5466 209.426 24.6792C207.197 20.7721 204.303 20.9714 204.303 20.9714V19.4165Z" fill="#3D2624"/>
<path d="M151.791 39.5104C151.791 39.5104 152.26 38.4738 155.466 38.5536C158.672 38.5934 160.627 40.4274 160.627 40.4274C160.627 40.4274 159.142 37.6366 156.209 37.2379C153.276 36.8392 151.869 39.0719 151.791 39.5104Z" fill="#3D2624"/>
<path d="M162.856 19.7354C162.856 19.7354 162.348 25.3968 165.593 29.9818C168.878 34.5667 178.497 34.5667 178.497 34.5667L178.888 35.4438C178.888 35.4438 169.386 35.5236 165.515 32.055C161.683 28.5863 161.253 22.7654 161.957 19.7354H162.856Z" fill="#3D2624"/>
<path d="M169.308 39.8692C169.308 39.8692 169.855 38.6731 173.57 38.7529C177.284 38.8326 179.513 40.9457 179.513 40.9457C179.513 40.9457 177.793 37.6764 174.43 37.2378C171.028 36.7594 169.386 39.3509 169.308 39.8692Z" fill="#3D2624"/>
<path d="M160.627 54.8205C160.627 54.8205 161.097 55.2989 162.974 55.8571C164.811 56.4152 166.102 55.8571 166.102 55.8571C166.102 55.8571 165.554 54.8205 164.107 54.5813C162.7 54.3819 160.627 54.8205 160.627 54.8205Z" fill="#EB9669"/>
<path d="M160.627 40.4272C160.627 40.4272 161.644 41.5436 162.035 44.454C162.387 47.3246 162.035 49.5972 162.035 49.5972C162.035 49.5972 160.745 42.0619 160.627 40.4272Z" fill="#EEA66D"/>
<path d="M152.182 43.657C152.182 43.657 153.785 44.3746 155.779 44.5739C157.734 44.8132 160.197 44.1753 160.197 44.1753C160.197 44.1753 159.298 41.6635 157.187 41.0654C153.863 40.1485 152.182 43.657 152.182 43.657Z" fill="#EEA66D"/>
<path d="M169.308 44.0555C169.308 44.0555 169.66 41.5039 172.866 40.9457C176.072 40.3875 179.865 43.8163 179.865 43.8163C179.865 43.8163 173.57 46.8862 169.308 44.0555Z" fill="#EEA66D"/>
<path d="M156.287 44.5339C154.137 44.494 152.182 43.6567 152.182 43.6567L151.791 43.9358C151.517 44.1352 150.93 44.2149 150.93 44.2149C151.517 44.4541 152.103 44.4541 152.455 44.3744C153.198 44.8129 154.528 45.411 156.209 45.4509C158.868 45.4907 160.197 44.5339 160.197 44.5339V44.175C160.197 44.175 158.438 44.5737 156.287 44.5339Z" fill="#3D2624"/>
<path d="M179.865 43.8164C179.865 43.8164 177.284 44.6138 174.626 44.6935C171.928 44.7733 169.464 43.9759 169.464 43.9759L168.956 44.2948C168.643 44.4942 167.9 44.6138 167.9 44.6138C168.643 44.853 169.386 44.8131 169.816 44.7334C170.794 45.172 172.436 45.7301 174.547 45.6504C177.871 45.5308 178.888 44.7334 179.63 44.255C179.748 44.1752 179.865 43.8164 179.865 43.8164Z" fill="#3D2624"/>
<path d="M160.627 59.8438C160.627 59.8438 161.175 60.1229 163.365 60.5614C165.554 61 170.794 59.8438 170.794 59.8438C170.794 59.8438 166.923 59.166 165.711 59.2457C164.459 59.3255 163.638 59.9634 163.638 59.9634C163.638 59.9634 162.504 59.0464 161.84 59.0464C161.136 59.0464 159.845 59.4451 159.845 59.4451L160.627 59.8438Z" fill="#EB9669"/>
<path d="M161.409 62.2358C161.409 62.2358 162.895 63.2724 165.085 63.3123C167.235 63.392 169.621 62.4751 169.621 62.4751C169.621 62.4751 168.291 64.3888 165.515 64.7077C162.7 64.9868 161.409 62.2358 161.409 62.2358Z" fill="#EEA66D"/>
<path d="M134.664 204.29L144.048 183.837C144.048 183.837 150.265 190.495 169.308 191.173C188.35 191.851 214.039 182.043 214.039 182.043C214.039 182.043 220.608 199.346 220.608 205.765C220.608 212.224 183.032 237.621 183.032 237.621L160.745 235.946L134.664 204.29Z" fill="#8DAD78"/>
<path d="M133.609 237.621C133.609 237.621 127.47 240.053 125.358 241.09C125.358 241.09 116.17 242.047 112.455 243.123C108.78 244.239 107.841 249.303 106.942 254.765C106.042 260.187 99.1606 267.483 97.0101 271.311C94.8595 275.098 95.8761 279.603 96.1889 280.52C96.5018 281.477 95.2505 284.627 96.8146 286.62C98.3395 288.574 99.2388 287.577 100.06 287.059C100.92 286.581 101.194 284.866 101.194 284.866C101.194 284.866 103.579 284.388 104.478 283.67C105.339 282.992 104.439 282.952 106.629 282.235C108.819 281.517 109.953 280.959 111.204 280.042C112.416 279.125 119.337 266.845 123.755 262.898C128.174 258.991 136.15 257.635 136.15 257.635L133.609 237.621Z" fill="#F6BA8A"/>
<path d="M254.079 259.669C239.064 263.536 206.454 266.247 177.245 268.002C147.138 269.796 120.666 270.633 120.666 270.633L116.169 256.2L112.22 243.402L199.729 225.7C199.729 225.7 197.343 207.241 216.386 197.273C216.386 197.273 273.121 197.752 286.846 214.019C300.609 230.285 285.751 251.536 254.079 259.669Z" fill="#8DAD78"/>
<path d="M168.643 254.605C168.643 254.605 174.821 257.038 176.933 258.034C176.933 258.034 186.121 258.991 189.797 260.107C193.511 261.224 194.45 266.247 195.349 271.709C196.248 277.132 203.13 284.468 205.242 288.255C207.392 292.043 206.376 296.548 206.063 297.465C205.789 298.422 207.001 301.611 205.476 303.565C203.951 305.519 203.052 304.522 202.192 304.043C201.332 303.565 201.058 301.811 201.058 301.811C201.058 301.811 198.712 301.332 197.813 300.654C196.913 299.937 197.852 299.937 195.623 299.219C193.433 298.462 192.299 297.904 191.087 296.987C189.875 296.07 182.915 283.79 178.497 279.883C174.078 275.936 166.141 274.58 166.141 274.58L168.643 254.605Z" fill="#FDCD9D"/>
<path d="M139.474 200.702C139.474 200.702 64.7126 200.702 52.7086 214.258C40.7436 227.813 47.3908 245.077 57.0488 250.858C66.7067 256.599 167.744 279.643 167.744 279.643L173.062 248.147L158.164 243.402L166.141 232.478L139.474 200.702Z" fill="#8DAD78"/>
<path d="M139.278 203.612C139.278 203.612 154.88 223.308 163.365 229.169C163.365 229.169 145.926 227.335 139.278 203.612Z" fill="#628D46"/>
<path d="M78.9844 220.677C78.9844 220.677 91.9659 222.391 112.22 226.777C132.514 231.202 158.164 243.402 158.164 243.402C158.164 243.402 131.849 225.102 111.243 220.677C90.6365 216.291 78.9844 220.677 78.9844 220.677Z" fill="#628D46"/>
<path d="M151.321 238.937C151.321 238.937 211.615 220.597 236.875 216.411C236.875 216.411 183.462 232.757 158.164 243.402L151.321 238.937Z" fill="#628D46"/>
<path d="M209.465 202.018C209.465 202.018 180.217 216.729 170.364 231.64C170.364 231.64 201.214 215.533 209.465 202.018Z" fill="#628D46"/>
<path fill-rule="evenodd" clip-rule="evenodd" d="M78.1241 207.121C78.1241 207.121 75.6608 211.108 70.9686 212.982C67.6059 214.297 64.6342 214.576 60.6459 216.41C56.6576 218.284 51.7309 222.789 50.6751 220.796C49.6194 218.842 55.6019 214.377 55.6019 214.377C55.6019 214.377 51.4572 216.57 49.1111 217.726C46.8041 218.922 44.2626 220.597 44.4581 217.726C44.6536 214.895 52.0437 210.749 52.0437 210.749C52.0437 210.749 44.5754 212.822 43.4023 213.38C42.2293 213.978 38.6711 214.377 40.0005 211.706C41.3691 209.035 48.6419 207.161 48.6419 207.161C46.4913 207.081 42.9331 205.008 42.9331 202.935C42.9331 200.861 46.2176 197.193 47.508 195.24C48.3682 193.964 49.4239 193.206 50.1277 193.486C49.6976 192.808 49.7367 192.25 50.7533 192.449C52.9039 192.848 61.1151 192.768 65.299 193.525C67.7232 194.004 69.2873 194.642 70.1475 195.12L116.404 163.145C128.056 163.265 133.022 175.584 133.022 175.584C121.8 189.937 86.4136 203.971 78.1241 207.121ZM60.3722 197.672C59.1992 196.994 54.7417 196.516 52.7084 195.638C51.9264 195.28 51.1835 194.721 50.636 194.123C50.7142 194.403 50.7533 194.721 50.7533 195.12C50.7533 197.791 47.0778 201.26 47.5862 201.858C48.0554 202.416 51.8482 203.612 55.1327 202.416C58.4172 201.26 61.5062 198.389 60.3722 197.672Z" fill="#FCC08F"/>
<path d="M285.321 135.037C285.321 135.037 289.505 148.154 286.65 157.922C283.757 167.69 272.73 169.883 272.73 169.883L274.49 167.65C274.49 167.65 285.36 165.776 285.986 150.586C286.533 137.07 285.321 135.037 285.321 135.037Z" fill="#3D2624"/>
<path d="M60.9585 197.552C60.9585 197.552 64.634 199.665 68.7005 199.665C72.767 199.665 67.8794 201.499 64.8295 200.582C61.8187 199.665 60.9585 197.552 60.9585 197.552Z" fill="#AF5448"/>
<path d="M73.8231 204.928C73.8231 204.928 71.3206 205.008 67.8406 206.842C64.3215 208.716 62.5229 213.46 61.5844 212.703C60.6851 211.945 63.1876 204.649 73.8231 204.928Z" fill="#AF5448"/>
<path d="M49.7366 207.041C49.7366 207.041 57.3613 213.34 58.2606 213.42C59.199 213.5 55.1325 207.4 49.7366 207.041Z" fill="#AF5448"/>
<path d="M143.697 139.463C143.697 139.463 147.45 137.429 158.946 137.429C170.442 137.429 189.562 142.014 189.562 142.014C189.562 142.014 154.293 142.214 143.697 139.463Z" fill="#2E2E7F"/>
<path d="M213.101 178.216L214.04 182.242L197.734 187.346C197.734 187.346 206.024 166.933 205.867 151.304C205.711 135.715 210.716 116.259 210.716 116.259L217.402 135.675C215.291 142.533 213.101 149.151 211.342 154.533C208.761 162.348 209.387 170.88 213.101 178.216Z" fill="#2E2E7F"/>
<path fill-rule="evenodd" clip-rule="evenodd" d="M293.61 227.733C292.594 226.896 285.634 223.467 285.634 223.467C285.634 223.467 292.125 228.929 291.773 231.8C291.46 234.63 289.27 232.517 287.198 230.883C285.165 229.288 281.45 226.378 281.45 226.378C281.45 226.378 286.533 231.879 285.126 233.634C283.718 235.348 279.69 230.006 276.132 227.414C272.574 224.863 269.681 224.025 266.631 222.072C262.33 219.361 260.335 215.812 260.335 215.812C256.464 211.307 228.742 187.186 223.463 172.076C223.463 172.076 208.644 119.01 210.325 107.129C212.006 95.2873 222.095 89.1475 222.095 89.1475C222.095 89.1475 230.228 93.573 233.903 109.521C236.679 121.681 239.064 149.151 240.785 159.995L271.753 204.41C272.73 204.21 274.021 204.051 275.741 204.051C279.964 204.091 288.058 205.725 290.209 205.765C291.264 205.765 291.225 206.283 290.678 206.881C291.382 206.722 292.281 207.679 292.907 209.074C293.806 211.267 296.387 215.493 295.996 217.527C295.644 219.56 291.734 220.915 289.622 220.596C289.622 220.596 296.426 223.826 297.247 226.696C298.107 229.567 294.666 228.53 293.61 227.733ZM291.655 215.573C292.242 215.095 289.231 210.988 289.739 208.357C289.818 207.958 289.896 207.639 290.052 207.4C289.388 207.878 288.566 208.317 287.745 208.476C285.556 208.955 281.098 208.596 279.847 209.074C278.557 209.513 281.098 212.942 284.109 214.736C287.12 216.53 291.069 216.051 291.655 215.573Z" fill="#FDCD9D"/>
<path d="M278.869 209.513C278.869 209.513 275.194 211.626 271.127 211.626C267.061 211.626 271.949 213.46 274.998 212.543C278.009 211.626 278.869 209.513 278.869 209.513Z" fill="#AF5448"/>
<path d="M263.385 215.055C263.385 215.055 265.888 215.175 269.368 217.009C272.848 218.883 274.685 223.627 275.585 222.869C276.523 222.112 274.021 214.816 263.385 215.055Z" fill="#AF5448"/>
<path d="M286.533 219.4C286.533 219.4 278.908 225.7 277.97 225.779C277.07 225.859 281.137 219.719 286.533 219.4Z" fill="#AF5448"/>
<path d="M167.47 83.2072C167.47 83.2072 163.834 90.2242 169.621 92.1778C175.368 94.0915 185.261 87.3935 190.266 82.4497C190.266 82.4497 183.619 93.334 172.866 95.0883C162.074 96.8425 164.577 85.5994 167.47 83.2072Z" fill="#2E2E7F"/>
</g>
<defs>
<clipPath id="clip0_328_1641">
<rect width="348" height="305" fill="white"/>
</clipPath>
</defs>
</svg>
