<svg title="MusicIcon" width="348" height="395" viewBox="0 0 348 395" fill="none" xmlns="http://www.w3.org/2000/svg">
<rect x="10.5" y="1.5" width="326" height="392" rx="28.5" fill="#645BBE" stroke="#A89CEC" stroke-width="3"/>
<g clip-path="url(#clip0_339_1772)">
<path d="M314.334 281.832C306.084 278.005 304.832 268.875 301.391 264.13C297.99 259.346 289.739 256.435 289.739 256.435C289.739 256.435 297.638 250.216 310.189 251.651C316.133 252.369 320.551 255.08 324.187 257.99C322.311 252.488 324.187 249.299 320.981 244.076C317.188 237.936 309.837 234.627 305.732 224.46C301.587 214.294 305.732 205.163 305.732 205.163C305.732 205.163 306.983 208.831 311.988 212.499C316.484 215.769 329.153 216.247 336.661 226.135C332.79 170.437 294.783 139.977 268.507 124.069C245.946 110.434 231.361 81.9674 170.364 86.0739C109.366 90.2203 95.7586 130.129 80.6656 160.311C72.298 177.056 53.373 180.763 37.4198 192.246C49.2283 189.096 56.7357 194.917 65.6117 196.751C76.2863 198.944 77.9676 191.289 87.5474 191.329C97.0881 191.369 100.685 194.797 100.685 194.797C100.685 194.797 91.1056 193.322 88.0166 201.615C84.8885 209.908 81.0566 213.058 71.4768 211.742C61.8971 210.426 59.16 211.144 54.0768 215.769C48.9937 220.433 37.2634 217.005 30.538 218.719C26.5888 219.716 21.1928 226.892 17.4391 232.594C20.4499 230.082 24.5946 227.331 30.1861 224.819C45.7483 217.722 65.6117 230.68 65.6117 230.68C65.6117 230.68 49.9321 234.348 40.8607 240.687C31.7501 247.026 25.2984 240.926 19.0813 243.119C15.9533 244.235 13.4508 245.352 11.6912 246.189C11.6912 246.216 11.6912 246.229 11.6912 246.229C10.44 265.964 17.7519 283.507 30.1861 298.537C60.6067 335.297 121.644 357.065 162.778 359.697C205.75 362.408 281.215 346.101 317.032 297.58C320.199 293.314 323.053 288.729 325.556 283.945C321.959 283.905 317.853 283.427 314.334 281.832Z" fill="#8375CD"/>
<path d="M159.024 167.288C159.024 179.966 148.936 190.292 136.463 190.292C123.989 190.292 113.901 179.966 113.901 167.288C113.901 154.569 123.989 144.243 136.463 144.243C148.936 144.243 159.024 154.569 159.024 167.288Z" fill="#3C3393"/>
<path d="M300.026 144.243C300.026 148.786 296.416 152.462 292.007 152.462C287.559 152.462 283.949 148.786 283.949 144.243C283.949 139.741 287.559 136.064 292.007 136.064C296.416 136.064 300.026 139.74 300.026 144.243Z" fill="#2E2E7F" stroke="#2E2E7F" stroke-width="0.30719"/>
<path d="M317.032 297.58C281.215 346.101 205.75 362.408 162.778 359.697C121.644 357.065 60.6067 335.297 30.186 298.537C41.76 285.42 71.3986 258.907 126.062 251.452C199.572 241.405 250.795 300.929 306.318 297.78C310.072 297.54 313.63 297.501 317.032 297.58Z" fill="#564BC4"/>
<path d="M78.789 142.928C85.6317 122.076 69.4438 131.684 63.344 145.001C57.2443 158.317 45.7485 159.752 45.7485 167.288C45.7485 174.783 71.9854 163.779 78.789 142.928Z" fill="#2E2E7F" stroke="#2E2E7F" stroke-width="0.614379"/>
<path d="M265.849 116.733C265.849 116.733 246.845 100.267 239.103 94.9647C231.401 89.6621 234.802 82.5255 252.476 90.7385C270.189 98.9915 277.696 114.899 275.389 118.208C273.043 121.518 265.849 116.733 265.849 116.733Z" fill="#2E2E7F" stroke="#2E2E7F" stroke-width="0.614379"/>
<path d="M89.1145 166.012C89.1145 166.651 88.6299 167.134 88.0559 167.134C87.4397 167.134 86.9583 166.647 86.9583 166.012C86.9583 165.419 87.4366 164.929 88.0559 164.929C88.633 164.929 89.1145 165.416 89.1145 166.012Z" fill="#2E2E7F" stroke="#2E2E7F" stroke-width="0.30719"/>
<path d="M99.3982 168.404C99.3982 169 98.9167 169.486 98.3396 169.486C97.7203 169.486 97.242 168.997 97.242 168.404C97.242 167.768 97.7234 167.282 98.3396 167.282C98.9136 167.282 99.3982 167.765 99.3982 168.404Z" fill="#2E2E7F" stroke="#2E2E7F" stroke-width="0.30719"/>
<path d="M133.807 131.046C133.807 131.642 133.325 132.129 132.748 132.129C132.129 132.129 131.651 131.639 131.651 131.046C131.651 130.411 132.132 129.924 132.748 129.924C133.322 129.924 133.807 130.407 133.807 131.046Z" fill="#2E2E7F" stroke="#2E2E7F" stroke-width="0.30719"/>
<path d="M294.432 241.883C294.432 242.601 293.884 243.159 293.219 243.159C292.555 243.159 292.007 242.601 292.007 241.883C292.007 241.205 292.555 240.647 293.219 240.647C293.884 240.647 294.432 241.205 294.432 241.883Z" fill="#8DAD78"/>
<path d="M298.615 238.494C298.615 239.212 298.068 239.77 297.403 239.77C296.699 239.77 296.152 239.212 296.152 238.494C296.152 237.816 296.699 237.258 297.403 237.258C298.068 237.258 298.615 237.816 298.615 238.494Z" fill="#8DAD78"/>
<path d="M96.9343 161.985C96.9343 162.981 96.1381 163.825 95.1328 163.825C94.1237 163.825 93.2923 162.977 93.2923 161.985C93.2923 160.951 94.1256 160.105 95.1328 160.105C96.1361 160.105 96.9343 160.947 96.9343 161.985Z" fill="#2E2E7F" stroke="#2E2E7F" stroke-width="0.30719"/>
<path d="M305.265 175.62C305.265 176.651 304.436 177.46 303.425 177.46C302.455 177.46 301.623 176.653 301.623 175.62C301.623 174.584 302.459 173.741 303.425 173.741C304.432 173.741 305.265 174.586 305.265 175.62Z" fill="#2E2E7F" stroke="#2E2E7F" stroke-width="0.30719"/>
<path d="M93.1388 236.142C93.1388 237.617 92.0049 238.773 90.5972 238.773C89.1896 238.773 88.0557 237.617 88.0557 236.142C88.0557 234.707 89.1896 233.55 90.5972 233.55C92.0049 233.55 93.1388 234.707 93.1388 236.142Z" stroke="white" stroke-width="0.614379"/>
<path d="M237.774 124.907C237.774 126.342 236.64 127.498 235.233 127.498C233.825 127.498 232.652 126.342 232.652 124.907C232.652 123.471 233.825 122.275 235.233 122.275C236.64 122.275 237.774 123.471 237.774 124.907Z" stroke="white" stroke-width="0.614379"/>
<path d="M117.851 116.534C117.851 121.159 114.175 124.867 109.678 124.867C105.182 124.867 101.506 121.159 101.506 116.534C101.506 111.949 105.182 108.241 109.678 108.241C114.175 108.241 117.851 111.949 117.851 116.534Z" stroke="white" stroke-width="0.614379"/>
<path d="M347.453 188.259C347.453 197.668 339.946 205.283 330.718 205.283C321.49 205.283 314.021 197.668 314.021 188.259C314.021 178.85 321.49 171.195 330.718 171.195C339.946 171.195 347.453 178.85 347.453 188.259Z" stroke="white" stroke-width="0.614379"/>
<path d="M33.9788 271.187C33.9788 280.596 26.5105 288.251 17.2826 288.251C8.05478 288.251 0.547363 280.596 0.547363 271.187C0.547363 261.778 8.05478 254.163 17.2826 254.163C26.5105 254.163 33.9788 261.778 33.9788 271.187Z" stroke="white" stroke-width="0.614379"/>
<path d="M144.009 97.7156C144.009 97.7156 140.49 99.5894 140.334 107.444C140.138 115.338 147.528 118.966 152.182 118.886L151.791 117.65C151.791 117.65 143.853 116.773 141.781 109.916C139.747 103.018 144.244 98.3934 144.244 98.3934L144.009 97.7156Z" fill="#3D2624"/>
<path d="M272.3 234.946C272.3 234.946 270.658 247.385 249.309 252.129C227.921 256.874 205.868 244.435 205.868 244.435L209.465 244.076C209.465 244.076 221.938 251.452 236.875 250.535C251.851 249.618 260.336 240.368 260.336 240.368L272.3 234.946Z" fill="#3D2624"/>
<path fill-rule="evenodd" clip-rule="evenodd" d="M283.288 228.288C268.859 255.159 251.89 249.618 228.116 247.584C204.343 245.551 194.45 244.435 173.062 245.79C151.673 247.146 137.949 246.229 130.168 233.59C122.426 220.952 125.28 188.857 141.781 175.301C158.321 161.746 160.628 137.625 160.628 137.625L210.208 108.52C210.208 108.52 208.409 135.512 233.238 139.578C258.068 143.645 278.869 159.473 277.54 174.823C277.54 174.823 297.716 201.416 283.288 228.288ZM276.445 173.587C276.445 173.587 276.132 155.845 245.751 146.157C245.751 146.157 253.493 150.423 263.268 158.237C273.004 166.012 275.546 173.587 275.546 173.587H276.445Z" fill="#171717"/>
<path d="M143.54 161.148C143.54 161.148 136.502 167.607 131.497 181.162C126.531 194.718 116.013 236.74 116.013 236.74L133.022 247.584L149.445 201.735L143.54 161.148Z" fill="#F6BA8A"/>
<path d="M211.342 226.334C208.722 234.148 209.387 242.68 213.101 249.976L214.04 254.003L216.542 265.007C199.377 280.197 175.564 285.301 160.94 281.991C146.277 278.722 142.563 266.482 142.563 266.482L144.831 250.335L140.921 214.373C140.921 214.373 137.91 209.669 136.62 198.784C135.329 187.9 143.54 161.148 143.54 161.148L170.207 150.263L189.641 148.589L222.095 161.148L226.278 171.873C226.161 177.813 221.86 193.043 217.402 207.476C215.291 214.293 213.101 220.952 211.342 226.334Z" fill="#F7DBC6"/>
<path d="M189.836 150.343C186.786 156.004 175.916 163.101 171.498 161.546C167.118 159.991 170.677 152.018 170.677 152.018C170.729 150.875 170.768 149.825 170.794 148.868C170.989 142.489 170.95 139.778 170.95 139.778L189.836 127.02C189.406 129.372 189.171 132.003 189.093 134.674C188.859 142.449 189.836 150.343 189.836 150.343Z" fill="#FDCD9D"/>
<path d="M189.836 127.02C189.406 129.372 189.171 132.003 189.093 134.674C186.943 138.023 183.345 142.967 179.592 145.678C175.721 148.509 172.553 148.908 170.794 148.868C170.989 142.489 170.95 139.778 170.95 139.778L189.836 127.02Z" fill="#EEA66D"/>
<path d="M150.422 120.282C150.422 120.282 151.087 136.03 161.957 143.127C172.866 150.223 188.076 135.352 190.696 127.139C193.316 118.926 192.456 101.184 192.456 101.184C192.456 101.184 178.066 91.4163 167.196 91.4163C156.326 91.4163 150.422 96.9581 150.422 96.9581C150.422 96.9581 150.422 112.069 150.422 120.282Z" fill="#FDCD9D"/>
<path d="M162.856 91.7353C162.856 91.7353 162.504 97.5163 172.983 104.294C183.423 111.072 189.093 112.427 189.093 112.427L191.283 124.907C191.283 124.907 189.758 128.814 189.367 130.209C188.897 131.764 189.054 136.708 189.054 136.708C189.054 136.708 197.891 135.352 200.941 127.02C200.941 127.02 209.973 120.162 210.286 107.723C210.638 95.2836 204.303 91.4163 204.303 91.4163C204.303 91.4163 202.7 76.5451 186.59 73.9934C170.442 71.4418 157.617 80.6516 157.617 80.6516C157.617 80.6516 149.757 79.5353 145.534 85.1967C141.272 90.8581 144.009 97.7157 144.009 97.7157C144.009 97.7157 140.295 101.384 142.484 107.404C144.674 113.384 150.422 114.182 150.422 114.182C150.422 114.182 150.969 103.935 153.902 98.832C156.835 93.7287 162.856 91.7353 162.856 91.7353Z" fill="#171717"/>
<path d="M189.836 114.262C189.836 114.262 191.908 109.039 196.17 108.52C200.393 107.962 200.706 115.617 197.773 120.72C194.841 125.824 190.696 124.827 190.696 124.827L189.836 114.262Z" fill="#E6A672"/>
<path d="M187.764 108.48C187.764 108.48 190.618 117.172 188.976 124.029C188.976 124.029 189.406 123.591 190.032 122.674C191.4 120.641 191.947 112.946 192.573 110.314L187.764 108.48Z" fill="#3D2624"/>
<path d="M157.382 81.4092C157.382 81.4092 160.94 76.1465 167.705 74.0334C174.469 71.8805 180.1 74.0334 180.1 74.0334L181.195 73.9537C181.195 73.9537 174.899 70.8438 167.783 73.0765C160.666 75.2693 155.74 80.9706 155.74 80.9706L157.382 81.4092Z" fill="#3D2624"/>
<path d="M204.303 91.4163C204.303 91.4163 208.096 92.1339 210.325 96.2803C212.554 100.427 210.247 104.653 210.247 104.653L209.856 104.135C209.856 104.135 211.654 100.546 209.425 96.679C207.197 92.7718 204.303 92.9712 204.303 92.9712V91.4163Z" fill="#3D2624"/>
<path d="M151.791 111.51C151.791 111.51 152.26 110.474 155.466 110.554C158.672 110.593 160.627 112.427 160.627 112.427C160.627 112.427 159.142 109.637 156.209 109.238C153.276 108.839 151.869 111.072 151.791 111.51Z" fill="#3D2624"/>
<path d="M162.856 91.7354C162.856 91.7354 162.348 97.3968 165.593 101.982C168.878 106.567 178.497 106.567 178.497 106.567L178.888 107.444C178.888 107.444 169.386 107.524 165.515 104.055C161.683 100.586 161.253 94.7654 161.957 91.7354H162.856Z" fill="#3D2624"/>
<path d="M169.308 111.869C169.308 111.869 169.856 110.673 173.57 110.753C177.285 110.833 179.513 112.946 179.513 112.946C179.513 112.946 177.793 109.676 174.43 109.238C171.029 108.759 169.386 111.351 169.308 111.869Z" fill="#3D2624"/>
<path d="M160.627 126.82C160.627 126.82 161.097 127.299 162.974 127.857C164.811 128.415 166.102 127.857 166.102 127.857C166.102 127.857 165.554 126.82 164.107 126.581C162.7 126.382 160.627 126.82 160.627 126.82Z" fill="#EB9669"/>
<path d="M160.627 112.427C160.627 112.427 161.644 113.544 162.035 116.454C162.387 119.325 162.035 121.597 162.035 121.597C162.035 121.597 160.745 114.062 160.627 112.427Z" fill="#EEA66D"/>
<path d="M152.182 115.657C152.182 115.657 153.785 116.375 155.779 116.574C157.734 116.813 160.197 116.175 160.197 116.175C160.197 116.175 159.298 113.663 157.187 113.065C153.863 112.148 152.182 115.657 152.182 115.657Z" fill="#EEA66D"/>
<path d="M169.308 116.056C169.308 116.056 169.66 113.504 172.866 112.946C176.073 112.388 179.865 115.816 179.865 115.816C179.865 115.816 173.57 118.886 169.308 116.056Z" fill="#EEA66D"/>
<path d="M156.287 116.534C154.136 116.494 152.181 115.657 152.181 115.657L151.79 115.936C151.517 116.135 150.93 116.215 150.93 116.215C151.517 116.454 152.103 116.454 152.455 116.375C153.198 116.813 154.527 117.411 156.209 117.451C158.868 117.491 160.197 116.534 160.197 116.534V116.175C160.197 116.175 158.438 116.574 156.287 116.534Z" fill="#3D2624"/>
<path d="M179.865 115.816C179.865 115.816 177.285 116.614 174.626 116.694C171.928 116.773 169.464 115.976 169.464 115.976L168.956 116.295C168.643 116.494 167.9 116.614 167.9 116.614C168.643 116.853 169.386 116.813 169.816 116.733C170.794 117.172 172.436 117.73 174.548 117.65C177.871 117.531 178.888 116.733 179.631 116.255C179.748 116.175 179.865 115.816 179.865 115.816Z" fill="#3D2624"/>
<path d="M160.627 131.844C160.627 131.844 161.175 132.123 163.364 132.561C165.554 133 170.794 131.844 170.794 131.844C170.794 131.844 166.923 131.166 165.71 131.246C164.459 131.325 163.638 131.963 163.638 131.963C163.638 131.963 162.504 131.046 161.839 131.046C161.136 131.046 159.845 131.445 159.845 131.445L160.627 131.844Z" fill="#EB9669"/>
<path d="M161.409 134.236C161.409 134.236 162.895 135.272 165.085 135.312C167.235 135.392 169.62 134.475 169.62 134.475C169.62 134.475 168.291 136.389 165.515 136.708C162.7 136.987 161.409 134.236 161.409 134.236Z" fill="#EEA66D"/>
<path d="M134.664 276.29L144.048 255.837C144.048 255.837 150.265 262.495 169.308 263.173C188.35 263.851 214.039 254.043 214.039 254.043C214.039 254.043 220.608 271.346 220.608 277.765C220.608 284.224 183.032 309.621 183.032 309.621L160.745 307.946L134.664 276.29Z" fill="#F8B218"/>
<path d="M133.609 309.621C133.609 309.621 127.47 312.053 125.358 313.089C125.358 313.089 116.17 314.046 112.455 315.123C108.78 316.239 107.841 321.303 106.942 326.765C106.042 332.187 99.1606 339.483 97.0101 343.31C94.8595 347.098 95.8761 351.603 96.1889 352.52C96.5018 353.477 95.2505 356.627 96.8146 358.62C98.3395 360.574 99.2388 359.577 100.06 359.059C100.92 358.58 101.194 356.866 101.194 356.866C101.194 356.866 103.579 356.388 104.478 355.67C105.339 354.992 104.439 354.952 106.629 354.235C108.819 353.517 109.953 352.959 111.204 352.042C112.416 351.125 119.337 338.845 123.755 334.898C128.174 330.991 136.15 329.635 136.15 329.635L133.609 309.621Z" fill="#F6BA8A"/>
<path d="M254.079 331.669C239.064 335.536 206.454 338.247 177.245 340.001C147.138 341.795 120.666 342.633 120.666 342.633L116.169 328.2L112.22 315.402L199.729 297.7C199.729 297.7 197.343 279.241 216.386 269.273C216.386 269.273 273.121 269.752 286.846 286.018C300.609 302.285 285.751 323.535 254.079 331.669Z" fill="#F8B218"/>
<path d="M168.643 326.605C168.643 326.605 174.821 329.037 176.933 330.034C176.933 330.034 186.121 330.991 189.797 332.107C193.511 333.224 194.45 338.247 195.349 343.709C196.248 349.131 203.13 356.467 205.242 360.255C207.392 364.042 206.376 368.548 206.063 369.465C205.789 370.422 207.001 373.611 205.476 375.565C203.951 377.518 203.052 376.522 202.192 376.043C201.332 375.565 201.058 373.81 201.058 373.81C201.058 373.81 198.712 373.332 197.813 372.654C196.913 371.937 197.852 371.937 195.623 371.219C193.433 370.461 192.299 369.903 191.087 368.986C189.875 368.069 182.915 355.79 178.497 351.882C174.078 347.935 166.141 346.58 166.141 346.58L168.643 326.605Z" fill="#FDCD9D"/>
<path d="M139.474 272.702C139.474 272.702 64.7126 272.702 52.7086 286.257C40.7436 299.813 47.3908 317.076 57.0488 322.857C66.7067 328.599 167.744 351.643 167.744 351.643L173.062 320.146L158.164 315.402L166.141 304.478L139.474 272.702Z" fill="#F8B218"/>
<path d="M139.278 275.613C139.278 275.613 154.88 295.308 163.365 301.169C163.365 301.169 145.926 299.335 139.278 275.613Z" fill="#C37F15"/>
<path d="M78.9844 292.676C78.9844 292.676 91.9659 294.391 112.22 298.776C132.514 303.202 158.164 315.402 158.164 315.402C158.164 315.402 131.849 297.102 111.243 292.676C90.6365 288.291 78.9844 292.676 78.9844 292.676Z" fill="#C37F15"/>
<path d="M151.321 310.937C151.321 310.937 211.615 292.597 236.875 288.41C236.875 288.41 183.462 304.757 158.164 315.402L151.321 310.937Z" fill="#C37F15"/>
<path d="M209.464 274.018C209.464 274.018 180.217 288.729 170.363 303.64C170.363 303.64 201.214 287.533 209.464 274.018Z" fill="#C37F15"/>
<path fill-rule="evenodd" clip-rule="evenodd" d="M78.1241 279.121C78.1241 279.121 75.6608 283.108 70.9686 284.982C67.6059 286.298 64.6342 286.577 60.6459 288.411C56.6576 290.284 51.7309 294.79 50.6751 292.796C49.6194 290.843 55.6019 286.377 55.6019 286.377C55.6019 286.377 51.4572 288.57 49.1111 289.726C46.8041 290.922 44.2626 292.597 44.4581 289.726C44.6536 286.896 52.0437 282.749 52.0437 282.749C52.0437 282.749 44.5754 284.822 43.4023 285.381C42.2293 285.979 38.6711 286.377 40.0005 283.706C41.3691 281.035 48.6419 279.161 48.6419 279.161C46.4913 279.081 42.9331 277.008 42.9331 274.935C42.9331 272.862 46.2176 269.194 47.508 267.24C48.3682 265.964 49.4239 265.207 50.1277 265.486C49.6976 264.808 49.7367 264.25 50.7533 264.449C52.9039 264.848 61.1151 264.768 65.299 265.526C67.7232 266.004 69.2873 266.642 70.1475 267.12L116.404 235.145C128.056 235.265 133.022 247.584 133.022 247.584C121.8 261.937 86.4136 275.971 78.1241 279.121ZM60.3722 269.672C59.1992 268.994 54.7417 268.516 52.7084 267.639C51.9264 267.28 51.1835 266.722 50.636 266.124C50.7142 266.403 50.7533 266.722 50.7533 267.12C50.7533 269.792 47.0778 273.26 47.5862 273.858C48.0554 274.416 51.8482 275.613 55.1327 274.417C58.4172 273.26 61.5062 270.39 60.3722 269.672Z" fill="#FCC08F"/>
<path d="M285.321 207.037C285.321 207.037 289.505 220.154 286.65 229.922C283.757 239.69 272.73 241.883 272.73 241.883L274.49 239.65C274.49 239.65 285.36 237.777 285.986 222.586C286.533 209.071 285.321 207.037 285.321 207.037Z" fill="#3D2624"/>
<path d="M60.9585 269.552C60.9585 269.552 64.634 271.665 68.7005 271.665C72.767 271.665 67.8794 273.499 64.8295 272.582C61.8187 271.665 60.9585 269.552 60.9585 269.552Z" fill="#AF5448"/>
<path d="M73.8228 276.928C73.8228 276.928 71.3204 277.008 67.8404 278.842C64.3213 280.716 62.5226 285.46 61.5842 284.703C60.6849 283.945 63.1873 276.649 73.8228 276.928Z" fill="#AF5448"/>
<path d="M49.7368 279.041C49.7368 279.041 57.3615 285.341 58.2609 285.42C59.1993 285.5 55.1328 279.4 49.7368 279.041Z" fill="#AF5448"/>
<path d="M143.697 211.463C143.697 211.463 147.45 209.429 158.946 209.429C170.442 209.429 189.562 214.014 189.562 214.014C189.562 214.014 154.293 214.214 143.697 211.463Z" fill="#EFC9B6"/>
<path d="M213.101 250.216L214.04 254.242L197.734 259.346C197.734 259.346 206.024 238.933 205.867 223.304C205.711 207.715 210.716 188.259 210.716 188.259L217.402 207.675C215.291 214.533 213.101 221.151 211.342 226.533C208.761 234.348 209.387 242.88 213.101 250.216Z" fill="#EFC9B6"/>
<path fill-rule="evenodd" clip-rule="evenodd" d="M293.61 299.733C292.594 298.896 285.634 295.467 285.634 295.467C285.634 295.467 292.124 300.929 291.772 303.8C291.46 306.631 289.27 304.518 287.198 302.883C285.164 301.288 281.45 298.378 281.45 298.378C281.45 298.378 286.533 303.88 285.125 305.634C283.718 307.348 279.69 302.006 276.132 299.414C272.574 296.863 269.68 296.025 266.63 294.072C262.329 291.361 260.335 287.812 260.335 287.812C256.464 283.307 228.741 259.186 223.463 244.076C223.463 244.076 208.644 191.01 210.325 179.129C212.006 167.288 222.094 161.148 222.094 161.148C222.094 161.148 230.227 165.573 233.903 181.521C236.679 193.681 239.064 221.151 240.785 231.995L271.753 276.41C272.73 276.21 274.021 276.051 275.741 276.051C279.964 276.091 288.058 277.725 290.208 277.765C291.264 277.765 291.225 278.284 290.678 278.882C291.381 278.722 292.281 279.679 292.906 281.075C293.806 283.267 296.386 287.493 295.995 289.527C295.644 291.56 291.733 292.916 289.622 292.597C289.622 292.597 296.426 295.826 297.247 298.697C298.107 301.567 294.666 300.531 293.61 299.733ZM291.655 287.573C292.242 287.095 289.231 282.988 289.739 280.357C289.817 279.958 289.896 279.639 290.052 279.4C289.387 279.878 288.566 280.317 287.745 280.476C285.555 280.955 281.098 280.596 279.847 281.075C278.556 281.513 281.098 284.942 284.109 286.736C287.119 288.53 291.069 288.052 291.655 287.573Z" fill="#FDCD9D"/>
<path d="M278.869 281.513C278.869 281.513 275.194 283.626 271.127 283.626C267.061 283.626 271.948 285.46 274.998 284.543C278.009 283.626 278.869 281.513 278.869 281.513Z" fill="#AF5448"/>
<path d="M263.385 287.055C263.385 287.055 265.888 287.174 269.368 289.008C272.848 290.882 274.685 295.627 275.585 294.869C276.523 294.112 274.021 286.816 263.385 287.055Z" fill="#AF5448"/>
<path d="M286.533 291.401C286.533 291.401 278.908 297.7 277.97 297.78C277.07 297.859 281.137 291.72 286.533 291.401Z" fill="#AF5448"/>
<path d="M167.47 155.207C167.47 155.207 163.834 162.224 169.621 164.178C175.368 166.092 185.261 159.393 190.266 154.45C190.266 154.45 183.619 165.334 172.866 167.088C162.074 168.843 164.577 157.599 167.47 155.207Z" fill="#EFC9B6"/>
</g>
<defs>
<clipPath id="clip0_339_1772">
<rect width="348" height="305" fill="white" transform="translate(0 72)"/>
</clipPath>
</defs>
</svg>
