<svg width="390" height="389" viewBox="0 0 390 389" fill="none" xmlns="http://www.w3.org/2000/svg">
<path d="M52.2734 280.608C81.4391 274.746 37.4859 173.548 123.112 190.204C208.739 206.86 246.444 206.363 274.215 151.911C301.986 97.4602 296.458 46.1789 346.769 9.65124C397.081 -26.8764 522.149 51.8921 503.822 71.425C485.496 90.958 657.094 172.262 566.074 177.347C475.053 182.432 332.228 193.965 373.095 216.131C413.962 238.296 397.796 316.391 381.427 310.435C365.058 304.479 370.787 176.97 345.752 208.418C320.718 239.865 178.98 387.665 154.58 346.78C130.18 305.896 64.1801 339.853 48.5041 329.795C32.8282 319.737 4.5466 395.424 -5.98886 388.296C-16.5243 381.168 -22.4655 344.058 -18.661 325.243C-14.8566 306.427 -91.5398 370.268 -58.0346 333.156C-24.5293 296.043 -7.75608 213.423 2.37733 256.295C12.5107 299.166 23.1076 286.469 52.2734 280.608Z" fill="#E9E9FF"/>
<path d="M228.283 140.574C229.739 147.819 225.479 154.786 218.767 156.135C212.056 157.484 205.434 152.704 203.978 145.459C202.522 138.214 206.783 131.247 213.494 129.898C220.206 128.549 226.827 133.329 228.283 140.574Z" fill="#E9E9FF"/>
<path d="M283.979 80.5105C286.515 93.1311 276.602 105.768 261.837 108.735C247.071 111.703 233.045 103.877 230.509 91.2567C227.972 78.6361 237.886 65.9994 252.651 63.032C267.417 60.0645 281.443 67.8899 283.979 80.5105Z" fill="#E9E9FF"/>
<path d="M336.443 296.266C337.853 303.277 331.16 310.536 321.496 312.478C311.831 314.42 302.854 310.311 301.445 303.3C300.036 296.288 306.728 289.03 316.393 287.087C326.057 285.145 335.034 289.254 336.443 296.266Z" fill="#E9E9FF"/>
<path d="M68.4237 356.735C69.1282 360.241 65.1291 364.001 59.4914 365.134C53.8537 366.267 48.7123 364.344 48.0078 360.838C47.3032 357.332 51.3023 353.572 56.94 352.439C62.5777 351.306 67.7191 353.229 68.4237 356.735Z" fill="#E9E9FF"/>
</svg>
