<svg width="390" height="431" viewBox="0 0 390 431" fill="none" xmlns="http://www.w3.org/2000/svg">
<path d="M378.472 114.191C350.157 123.316 405.285 218.888 318.323 212.033C231.361 205.178 193.955 209.941 172.527 267.186C151.1 324.432 162.398 374.757 116.545 416.746C70.6922 458.735 -62.4889 394.632 -46.4918 373.15C-30.4947 351.668 -210.194 290.313 -120.335 274.957C-30.4753 259.6 110.126 231.971 67.0126 214.574C23.8989 197.178 31.1192 117.755 48.057 121.82C64.9949 125.884 73.7385 253.222 95.0522 219.142C116.366 185.063 240.459 22.1671 269.331 60.0263C298.203 97.8854 359.934 56.6745 376.648 64.8928C393.362 73.111 412.893 -5.29117 424.167 0.598584C435.442 6.48831 445.546 42.6867 443.897 61.8121C442.247 80.9376 511.209 8.82526 482.121 49.4923C453.033 90.1593 445.721 174.147 430.799 132.699C415.878 91.2505 406.786 105.065 378.472 114.191Z" fill="#9696E4"/>
<path d="M219.447 273.251C217.18 266.217 220.625 258.813 227.14 256.713C233.656 254.613 240.776 258.612 243.043 265.646C245.31 272.68 241.865 280.084 235.35 282.184C228.834 284.284 221.714 280.284 219.447 273.251Z" fill="#9696E4"/>
<path d="M170.909 339.234C166.96 326.981 175.38 313.304 189.714 308.684C204.049 304.064 218.87 310.251 222.819 322.503C226.768 334.755 218.349 348.433 204.014 353.053C189.68 357.673 174.858 351.486 170.909 339.234Z" fill="#9696E4"/>
<path d="M94.3558 130.805C92.1619 123.998 97.9895 116.029 107.372 113.005C116.755 109.981 126.139 113.047 128.333 119.854C130.527 126.661 124.699 134.631 115.317 137.655C105.934 140.679 96.5496 137.612 94.3558 130.805Z" fill="#9696E4"/>
<path d="M353.806 40.3812C352.709 36.9778 356.257 32.7888 361.73 31.0248C367.203 29.2608 372.53 30.5898 373.627 33.9932C374.723 37.3966 371.176 41.5856 365.703 43.3497C360.229 45.1137 354.903 43.7847 353.806 40.3812Z" fill="#9696E4"/>
</svg>
