<svg title="MindBg" width="232" height="240" viewBox="0 0 232 240" fill="none" xmlns="http://www.w3.org/2000/svg">
<path fill-rule="evenodd" clip-rule="evenodd" d="M212.048 143.1C199.416 130.968 179.093 123.9 162.296 119.856C163.08 116.141 163.504 112.354 163.56 108.552C163.63 108.552 163.699 108.538 163.762 108.509C163.826 108.48 163.883 108.437 163.93 108.384C163.977 108.331 164.013 108.269 164.035 108.2C164.057 108.132 164.065 108.06 164.059 107.988C163.607 102.876 162.249 93.708 160.045 89.04C155.347 79.068 147.39 72.552 137.692 68.268C130.106 64.932 121.452 64.668 118.668 63.972C118.131 62.7305 117.911 61.3668 118.03 60.012C119.85 58.8854 121.305 57.2231 122.208 55.2375C123.111 53.2519 123.421 51.033 123.099 48.864C123.511 48.6052 123.9 48.308 124.259 47.976C124.336 48.018 124.422 48.04 124.509 48.04C124.596 48.04 124.681 48.018 124.758 47.976C125.923 47.4167 126.953 46.597 127.774 45.576C129.155 43.668 128.203 42.852 128.412 40.32C128.432 39.7896 128.55 39.2681 128.76 38.784C131.335 33.468 131.834 30.636 130.651 24.516C130.164 22.008 127.821 21.756 126.73 20.616C125.64 19.476 125.872 17.088 124.004 15.924C121.272 14.1973 118.269 12.9789 115.13 12.324C107.138 10.908 106.558 16.476 101.605 16.368C98.2406 16.296 95.3754 14.448 90.6774 18.36C89.2209 19.5094 88.0309 20.9806 87.1941 22.6664C86.3572 24.3521 85.8947 26.2098 85.8402 28.104C85.9562 31.14 88.2182 34.416 88.2994 37.344C88.369 39.744 87.383 42.6 88.7982 44.544C89.413 45.384 90.3294 46.02 90.631 46.944C91.3012 47.7709 92.0825 48.4942 92.951 49.092C93.0295 49.1224 93.116 49.1224 93.1946 49.092C94.292 50.0359 95.5804 50.7126 96.9646 51.072C97.9878 54.5595 100.01 57.6434 102.765 59.916C102.392 61.1231 101.938 62.302 101.407 63.444C100.617 63.8264 99.7936 64.1318 98.9482 64.356C89.8074 67.032 81.6526 67.344 71.2474 76.704C63.9441 83.1185 58.7979 91.7658 56.5502 101.4C55.9033 104.233 55.5533 107.13 55.5062 110.04C55.5062 111.36 55.5062 111.66 57.0258 111.684C57.2691 115.074 57.7812 118.437 58.557 121.74C30.0558 130.728 1.80979 149.268 6.27579 179.748C10.2198 206.616 47.0962 218.568 72.9758 223.416C97.6014 227.827 122.671 228.965 147.575 226.8C167.562 225.024 185.032 221.064 196.075 215.304C226.711 199.2 237.336 167.436 212.048 143.1ZM161.797 119.316C159.825 126.516 155.208 128.712 148.167 130.296C143.144 131.496 136.718 128.76 132.89 125.196C128.389 121.008 114.457 104.016 111.882 101.544C111.279 99.396 110.177 88.344 110.641 85.944C110.896 85.656 110.954 85.74 111.117 85.944C111.557 86.508 111.523 86.616 114.968 97.02C115.006 97.1379 115.083 97.2388 115.184 97.3063C115.285 97.3738 115.405 97.404 115.525 97.392C125.269 96.324 138.725 102.288 141.195 105.936C141.259 105.998 141.333 106.046 141.415 106.077C141.497 106.108 141.584 106.121 141.671 106.116C145.07 106.116 159.721 106.548 163.061 108.516V108.6C162.948 112.204 162.524 115.79 161.797 119.316ZM191.064 159.948C195.853 159.859 200.603 160.85 204.984 162.852C217.338 169.056 208.139 179.292 191.064 179.28C190.932 179.271 190.801 179.314 190.698 179.4C190.596 179.487 190.529 179.611 190.511 179.747C190.493 179.882 190.526 180.02 190.603 180.132C190.68 180.244 190.795 180.321 190.925 180.348C195.843 181.788 199.045 184.116 200.205 186.72C201.133 188.904 200.483 191.244 198.105 193.32C192.143 198.564 179.545 199.416 171.123 196.92C171.004 196.886 170.877 196.896 170.763 196.946C170.65 196.997 170.556 197.087 170.498 197.2C170.44 197.313 170.421 197.443 170.444 197.569C170.467 197.695 170.531 197.809 170.625 197.892C172.945 199.968 173.641 202.308 172.713 204.48C168.977 213.228 145.348 214.992 136.486 207.228C136.407 207.156 136.309 207.109 136.204 207.094C136.1 207.078 135.993 207.094 135.898 207.14C135.802 207.186 135.721 207.259 135.665 207.351C135.609 207.444 135.579 207.551 135.581 207.66C135.581 216.06 114.527 220.608 102.115 214.392C98.635 212.664 96.4426 210.312 96.4426 207.66C96.4422 207.553 96.4124 207.449 96.3568 207.358C96.3012 207.268 96.2219 207.197 96.1283 207.151C96.0347 207.106 95.9306 207.089 95.8281 207.103C95.7256 207.116 95.6289 207.16 95.5494 207.228C92.6378 209.772 87.8238 211.404 82.5458 212.028C77.8789 212.542 73.1604 212.164 68.6258 210.912C63.7074 209.472 60.5058 207.156 59.3458 204.54C58.4178 202.368 59.0674 200.028 61.4454 197.94C61.5379 197.858 61.6004 197.745 61.6224 197.621C61.6443 197.497 61.6245 197.368 61.5661 197.258C61.5078 197.147 61.4145 197.06 61.3017 197.012C61.189 196.963 61.0637 196.956 60.9466 196.992C52.5714 199.392 39.9622 198.648 33.9534 193.392C31.6334 191.304 30.9142 188.964 31.8422 186.768C33.0022 184.164 36.1922 181.824 41.1222 180.384C41.2446 180.357 41.3527 180.283 41.425 180.177C41.4973 180.072 41.5285 179.942 41.5124 179.813C41.4963 179.685 41.4342 179.567 41.3382 179.484C41.2423 179.401 41.1196 179.358 40.9946 179.364C24.0354 179.364 14.535 169.164 27.0746 162.864C31.4528 160.85 36.2037 159.851 40.9946 159.936C41.0986 159.941 41.2008 159.906 41.2811 159.837C41.3614 159.769 41.4139 159.672 41.4285 159.565C41.443 159.458 41.4184 159.35 41.3596 159.261C41.3008 159.172 41.212 159.109 41.1106 159.084C36.1458 157.644 32.8862 155.292 31.761 152.652C30.7982 150.42 31.4478 148.02 33.8722 145.884C37.6422 142.56 43.9526 141.192 48.9522 140.916C47.1276 143.575 46.1909 146.777 46.2842 150.036C46.5046 155.544 51.945 160.032 56.4806 162.972C55.2249 165.531 54.8563 168.458 55.4366 171.264C56.991 179.208 67.4774 183.6 74.9478 185.88C74.2634 189.192 72.7438 208.308 75.841 207.924C79.5878 207.468 80.8522 195.588 85.121 193.392C85.701 193.104 90.051 191.952 96.6398 190.116C112.063 191.847 127.623 191.819 143.04 190.032C145.917 190.632 147.68 191.004 148.086 191.16C152.517 193.056 154.524 204.84 158.282 205.044C161.113 205.2 159.025 189.708 158.561 186.792C172.04 182.256 182.816 171 173.641 159.996C178.06 156.876 183.593 152.112 184.081 146.604C184.204 144.701 183.927 142.793 183.269 141.012C188.21 141.3 194.428 142.668 198.151 145.944C200.541 148.056 201.202 150.42 200.251 152.628C199.091 155.244 195.889 157.572 190.971 159.012C190.883 159.058 190.811 159.131 190.764 159.22C190.716 159.309 190.697 159.412 190.707 159.513C190.717 159.614 190.756 159.71 190.82 159.788C190.884 159.866 190.969 159.921 191.064 159.948ZM66.329 131.352C64.4312 131.441 62.5504 131.764 60.7262 132.312C61.6787 131.38 62.7571 130.595 63.9278 129.984C64.6822 130.522 65.4866 130.98 66.329 131.352ZM80.3766 181.38C82.453 184.236 83.207 186.348 86.7218 191.952C85.5618 192.288 84.9238 192.504 84.715 192.612C80.2026 195.012 78.7874 206.796 75.667 207.216C75.3886 207.216 75.1218 206.412 75.0522 206.124C73.9618 202.128 74.507 189.468 75.3074 185.724C75.4002 185.232 79.959 181.704 80.3766 181.38ZM172.84 160.416C181.517 170.928 171.042 181.344 158.247 185.616C158.039 184.416 157.818 183.408 157.633 182.736C157.308 181.62 147.506 175.176 146.265 174.336C137.012 178.388 127.481 181.725 117.752 184.32C131.846 187.62 131.022 187.08 130.581 187.332C133.911 188.052 136.903 188.676 139.421 189.192C126.136 190.47 112.766 190.47 99.4818 189.192C120.107 183.42 155.069 172.644 172.84 160.416ZM154.443 180.648C155.43 181.307 156.355 182.063 157.203 182.904C158.213 186.504 159.895 201.576 158.433 204.108C158.363 204.24 158.294 204.336 158.189 204.336C155.011 204.132 152.691 191.82 148.121 190.32C150.452 187.2 152.389 183.792 154.489 180.648H154.443ZM155.452 129.552C144.954 133.152 81.9658 178.284 75.4118 184.848C68.3126 182.724 57.7682 178.5 56.2834 170.988C55.7473 168.447 56.0665 165.792 57.1882 163.464C65.401 168.576 76.7574 172.764 85.9098 175.728C103.693 161.724 105.804 159.804 113.75 153.996C105.224 148.848 86.0374 137.448 76.9662 133.392C77.9836 133.277 78.989 133.068 79.9706 132.768V134.232L81.061 134.772V132.372C84.0974 131.259 86.8667 129.482 89.181 127.164C92.0114 124.26 98.8786 115.26 101.558 111.78C101.826 111.868 102.111 111.877 102.384 111.807C102.656 111.737 102.904 111.591 103.101 111.384C103.846 110.605 104.486 109.725 105.003 108.768C105.128 108.56 105.188 108.317 105.176 108.073C105.163 107.828 105.079 107.593 104.934 107.4C109.504 101.496 109.04 102.444 109.191 102.048C109.556 99.7053 109.769 97.3401 109.829 94.968C110.025 97.335 110.381 99.6848 110.896 102C110.934 102.107 110.998 102.202 111.082 102.276C112.833 103.908 121.731 114.612 127.797 121.332C131.672 125.628 134.282 128.532 139.722 130.416C142.099 131.296 144.633 131.624 147.146 131.376C147.146 132.096 147.227 132.744 147.251 133.296L148.306 132.792C148.306 132.708 148.306 131.676 148.213 131.184C151.543 130.44 155.243 129.276 157.865 127.092C159.762 127.311 161.64 127.688 163.479 128.22C160.763 128.22 158.066 128.686 155.498 129.6L155.452 129.552ZM104.18 106.668C101.86 104.808 101.639 105.168 100.224 102.84C100.597 102.59 100.917 102.263 101.164 101.88C101.747 100.563 101.991 99.1117 101.871 97.668C102.702 97.62 103.535 97.62 104.365 97.668C104.486 97.6723 104.604 97.6343 104.701 97.5603C104.798 97.4862 104.868 97.3804 104.899 97.26C107.915 86.172 107.985 85.26 108.623 85.944C109.226 88.344 108.692 99.432 108.217 101.628C107.555 102.336 106.071 104.22 104.18 106.668ZM100.851 97.98C100.832 98.6322 100.766 99.282 100.653 99.924C99.4803 100.518 98.1896 100.822 96.8834 100.812C95.8273 100.837 94.7753 100.67 93.7746 100.32C93.925 99.516 94.2329 98.7523 94.6794 98.076C96.6282 96.948 99.679 96 100.851 97.98ZM88.2646 68.172C92.3246 66.972 99.4006 65.424 101.477 64.476C102.138 64.176 102.347 64.272 103.797 59.904C103.824 59.813 103.823 59.7154 103.794 59.625C103.765 59.5346 103.709 59.4559 103.635 59.4C100.839 57.2294 98.7833 54.1951 97.765 50.736C97.5562 49.944 94.4358 50.088 93.125 47.544C92.6398 46.1748 92.6898 44.6638 93.2642 43.332C93.3749 43.0968 93.5512 42.9013 93.7704 42.7708C93.9896 42.6403 94.2416 42.5808 94.4938 42.6C95.0313 42.6922 95.5334 42.9374 95.9438 43.308C96.141 43.488 96.7674 43.308 96.9762 42.108C97.3358 40.128 96.3498 33.612 97.3358 30.108C98.1826 27.072 100.537 26.508 103.136 27.792C107.08 29.748 107.66 32.388 114.063 33.792C115.506 34.102 116.974 34.2667 118.448 34.284C119.051 34.284 121.081 33.528 121.719 33.6C122.171 34.404 121.51 38.568 122.067 39.696C122.161 39.9152 122.312 40.1036 122.502 40.241C122.692 40.3784 122.914 40.4597 123.146 40.476C123.536 40.4741 123.925 40.4298 124.306 40.344C124.41 40.344 124.735 40.26 124.805 40.344C125.16 40.7374 125.436 41.1999 125.617 41.7046C125.798 42.2092 125.881 42.7461 125.86 43.284C125.93 45.072 124.155 47.172 124.109 47.436C123.03 48.504 122.635 48.408 122.67 48.756C123.482 57.156 117.647 59.052 117.555 59.784C117.379 61.3491 117.62 62.9339 118.251 64.368C118.726 65.364 128.772 65.112 137.518 69.024C147.193 73.344 154.918 79.824 159.349 89.424C161.426 93.9 162.655 102.492 163.143 107.424C159.523 106.98 160.266 105.756 141.903 105.264C141.281 104.504 140.563 103.834 139.769 103.272C139.727 101.225 139.514 99.185 139.131 97.176C139.015 94.872 137.565 88.884 136.996 88.38C136.811 88.164 136.497 88.452 136.66 88.68C136.776 88.68 137.309 94.392 139.154 102.84C133.354 98.808 123.598 95.64 115.954 96.228C112.52 85.98 112.625 86.4 112.253 85.668C111.882 84.936 111.407 84.468 110.699 84.624C110.463 84.6759 110.243 84.7859 110.057 84.9447C109.872 85.1035 109.726 85.3063 109.632 85.536C109.523 85.3024 109.361 85.1001 109.158 84.9473C108.956 84.7945 108.72 84.6958 108.472 84.66C107.764 84.576 107.312 85.14 106.975 85.86C106.639 86.58 106.697 86.448 103.971 96.66C103.003 96.6384 102.035 96.6705 101.071 96.756C99.215 95.172 96.1874 96.432 94.3778 97.824C94.2792 97.9274 94.1899 98.0399 94.111 98.16C89.4946 99.5031 85.13 101.641 81.2002 104.484C81.3626 103.512 81.5366 102.6 81.7686 100.944C82.3127 97.7665 82.6999 94.5623 82.9286 91.344C83.0794 89.82 82.7198 89.388 82.3022 91.116C81.2085 95.6288 80.6553 100.264 80.655 104.916C79.8839 105.516 79.2002 106.227 78.625 107.028C74.3794 107.412 61.9442 108.36 58.0002 110.58C57.5483 110.611 57.0949 110.611 56.643 110.58C55.5874 93.996 69.7394 73.476 88.2646 68.172ZM57.4782 111.432C59.9258 109.116 74.2982 108.144 77.5578 107.94C76.4742 108.704 75.6057 109.752 75.0406 110.976C75.0406 111.12 74.8434 111.468 75.0406 111.54C75.2378 111.612 76.0266 110.844 76.131 110.748C79.727 107.796 80.0518 104.496 90.805 100.272C91.6286 99.948 92.4754 99.648 93.3338 99.372C93.1992 99.6682 93.0943 99.9778 93.0206 100.296C92.9459 100.354 92.8866 100.431 92.8481 100.519C92.8096 100.607 92.7931 100.704 92.8002 100.8C92.811 101.574 93.1059 102.314 93.625 102.871C94.1442 103.429 94.8487 103.76 95.5958 103.8C95.8974 103.8 95.5958 103.62 96.257 105.468C96.4039 105.888 96.5945 106.29 96.8254 106.668C97.8634 108.403 99.1369 109.975 100.607 111.336C98.0898 114.612 91.1646 123.696 88.485 126.48C85.179 129.912 79.7038 132.72 74.971 132.588C72.9471 131.889 70.8388 131.485 68.707 131.388C63.951 129.948 60.993 127.344 59.311 122.256C58.356 118.719 57.742 115.094 57.4782 111.432ZM195.611 214.296C161.739 231.912 67.3846 232.14 26.5178 205.704C15.9502 198.852 8.87419 190.224 7.30819 179.58C2.87699 149.688 30.9954 131.46 58.789 122.568C59.5983 125.351 61.2188 127.807 63.429 129.6C61.9731 130.369 60.6735 131.42 59.601 132.696C55.5854 134.08 52.0491 136.65 49.4278 140.088C44.1498 140.292 37.387 141.684 33.3502 145.212C30.5778 147.612 29.8702 150.396 31.0302 152.928C32.1902 155.46 34.6262 157.512 38.5818 159.072C21.089 160.092 14.4422 171.18 26.657 177.324C30.3104 179.047 34.2468 180.036 38.257 180.24C34.4406 181.8 31.9466 183.972 30.9606 186.24C29.8006 188.82 30.5198 191.628 33.2806 194.112C39.2662 199.368 51.1214 200.316 59.3806 198.444C58.6267 199.304 58.1301 200.371 57.951 201.517C57.7719 202.663 57.9179 203.838 58.3714 204.9C59.5314 207.72 63.0114 210.324 68.3126 211.884C78.625 214.908 90.1322 212.7 95.4914 208.692C97.1966 217.74 118.204 221.496 130.431 215.376C133.911 213.648 136.126 211.284 136.613 208.692C142.031 212.748 153.584 214.872 163.792 211.884C169.117 210.336 172.539 207.72 173.745 204.9C174.196 203.84 174.341 202.667 174.162 201.524C173.983 200.38 173.487 199.315 172.736 198.456C180.96 200.316 192.839 199.38 198.836 194.112C201.655 191.64 202.316 188.82 201.156 186.228C200.17 183.936 197.676 181.776 193.952 180.228C197.921 180.004 201.815 179.019 205.436 177.324C217.674 171.18 211.027 160.14 193.836 158.988C197.653 157.428 200.158 155.244 201.144 152.928C202.235 150.36 201.562 147.564 198.766 145.116C194.799 141.648 188.199 140.22 182.909 139.98C180.183 133.692 173.629 129.444 166.588 128.46C164.044 127.425 161.381 126.735 158.665 126.408C160.312 124.714 161.51 122.611 162.145 120.3C178.71 124.416 199.068 131.58 211.515 143.652C236.304 167.7 225.62 198.708 195.611 214.296Z" fill="#9A98D3"/>
<path fill-rule="evenodd" clip-rule="evenodd" d="M82.9868 135.6C91.42 139.68 101.466 144.552 111.163 151.2C112.254 151.944 113.483 152.616 114.643 153.372C124.201 146.273 134.286 139.966 144.803 134.508C132.519 133.668 95.7816 135.084 82.9868 135.6ZM109.156 49.4643C109.686 49.7739 110.281 49.9416 110.889 49.9521C111.497 49.9626 112.098 49.8155 112.636 49.5243C112.745 49.4353 112.815 49.3062 112.834 49.1643C112.804 47.9705 112.7 46.7799 112.52 45.6003C112.31 43.871 111.897 42.1745 111.291 40.5483C111.275 40.4894 111.238 40.4392 111.187 40.4089C111.136 40.3785 111.075 40.3703 111.018 40.3863C110.961 40.4022 110.913 40.4408 110.883 40.4937C110.854 40.5466 110.846 40.6094 110.862 40.6683C111.024 41.7603 111.627 47.5803 111.813 48.7923C111.023 49.1286 110.152 49.2041 109.319 49.0083C109.29 48.9972 109.259 48.9922 109.228 48.9935C109.197 48.9947 109.167 49.0023 109.139 49.0156C109.111 49.029 109.086 49.048 109.065 49.0714C109.044 49.0948 109.028 49.1223 109.017 49.1523C109.007 49.1822 109.002 49.214 109.003 49.2459C109.004 49.2778 109.011 49.3091 109.024 49.3381C109.037 49.3671 109.056 49.3931 109.078 49.4148C109.101 49.4364 109.127 49.4532 109.156 49.4643ZM111.79 48.9243V49.0563C111.79 49.0563 111.778 48.9363 111.79 48.9243ZM104.76 44.2803C105.256 44.0765 105.709 43.7749 106.094 43.3923C106.136 43.3573 106.164 43.3076 106.173 43.2526C106.182 43.1975 106.172 43.141 106.143 43.0936C106.114 43.0463 106.07 43.0115 106.018 42.9957C105.966 42.98 105.911 42.9845 105.862 43.0083C104.986 43.2424 104.087 43.3752 103.182 43.4043C102.275 43.3874 101.37 43.287 100.48 43.1043C100.454 43.0845 100.425 43.0707 100.394 43.0636C100.363 43.0566 100.331 43.0565 100.3 43.0634C100.269 43.0703 100.24 43.084 100.215 43.1037C100.19 43.1233 100.169 43.1483 100.153 43.1771C100.138 43.2059 100.129 43.2377 100.127 43.2703C100.125 43.303 100.129 43.3358 100.141 43.3665C100.152 43.3972 100.169 43.425 100.192 43.4481C100.214 43.4712 100.241 43.489 100.271 43.5003C100.671 43.8531 101.131 44.1258 101.628 44.3043C102.652 44.6147 103.741 44.6064 104.76 44.2803ZM114.434 42.6003C115.71 44.2203 119.26 44.3403 120.084 42.3483C120.1 42.3238 120.112 42.2962 120.119 42.267C120.125 42.2378 120.126 42.2076 120.121 42.1781C120.116 42.1486 120.106 42.1203 120.091 42.0949C120.075 42.0696 120.055 42.0476 120.031 42.0303C120.008 42.0129 119.981 42.0006 119.953 41.9939C119.925 41.9872 119.895 41.9864 119.867 41.9914C119.838 41.9964 119.811 42.0072 119.787 42.0231C119.762 42.0391 119.741 42.0598 119.724 42.0843C119.386 42.3467 118.985 42.5085 118.564 42.5523C117.713 42.7203 116.84 42.7203 115.989 42.5523C115.548 42.5006 115.116 42.3918 114.701 42.2283C114.492 42.0003 114.214 42.4083 114.434 42.6003ZM108.147 54.3243C109.092 54.684 110.107 54.8034 111.105 54.6723C111.73 54.6592 112.349 54.5417 112.938 54.3243C112.996 54.3243 113.053 54.3002 113.094 54.2575C113.135 54.2147 113.158 54.1567 113.158 54.0963C113.158 54.0358 113.135 53.9778 113.094 53.935C113.053 53.8923 112.996 53.8683 112.938 53.8683C112.354 53.6858 111.75 53.585 111.14 53.5683C110.14 53.4928 109.135 53.5984 108.17 53.8803C108.139 53.8709 108.105 53.869 108.073 53.8749C108.04 53.8807 108.009 53.894 107.982 53.9139C107.955 53.9338 107.933 53.9597 107.917 53.9897C107.901 54.0197 107.892 54.053 107.89 54.0872C107.888 54.1214 107.894 54.1556 107.907 54.1872C107.919 54.2188 107.939 54.247 107.963 54.2698C107.988 54.2926 108.018 54.3093 108.049 54.3187C108.081 54.3281 108.115 54.33 108.147 54.3243Z" fill="#443D98"/>
</svg>
