<svg title="YogaBg" width="284" height="286" viewBox="0 0 284 286" fill="none" xmlns="http://www.w3.org/2000/svg">
<path fill-rule="evenodd" clip-rule="evenodd" d="M125.073 51.3499C119.064 55.964 114.031 61.6955 110.233 68.2201C104.011 66.9693 97.3051 66.7031 90.516 67.6824C92.22 60.2273 95.7113 53.2108 100.755 47.3497C101.929 45.9921 103.667 45.2638 105.451 45.3935C112.392 45.8892 119.094 47.9598 125.073 51.3499ZM142 86.4821C148.012 79.792 155.046 74.8976 162.527 71.7016C158.074 64.9787 151.917 59.4532 144.54 55.739C142.942 54.9344 141.057 54.9344 139.459 55.739C132.082 59.4532 125.925 64.9787 121.472 71.7016C128.954 74.8976 135.987 79.7924 142 86.4821ZM178.219 143C183.407 140.395 188.167 136.955 192.317 132.776C204.839 120.161 209.224 101.503 203.616 84.564C203.052 82.8595 201.719 81.5172 200.026 80.949C183.221 75.3091 164.689 79.7058 152.152 92.328C148.001 96.5074 144.582 101.301 141.999 106.529C139.417 101.301 135.998 96.5074 131.847 92.328C119.321 79.7173 100.793 75.3014 83.9726 80.949C82.2762 81.5172 80.9471 82.8595 80.3829 84.564C74.7824 101.488 79.1484 120.15 91.6823 132.776C95.8287 136.952 100.592 140.395 105.78 143C100.592 145.604 95.8325 149.044 91.6823 153.223C79.1598 165.838 74.7748 184.496 80.3829 201.435C80.9471 203.14 82.28 204.482 83.9726 205.05C100.778 210.69 119.31 206.293 131.847 193.671C135.998 189.492 139.417 184.698 141.999 179.47C144.582 184.698 148.001 189.492 152.152 193.671C164.746 206.354 183.297 210.667 200.026 205.05C201.723 204.482 203.052 203.14 203.616 201.435C209.217 184.511 204.851 165.849 192.317 153.223C188.17 149.047 183.407 145.604 178.219 143ZM226.601 145.558C223.201 152.407 218.274 158.207 212.295 162.589C209.082 155.373 204.381 148.704 198.122 143C204.126 137.527 208.944 130.939 212.291 123.407C218.271 127.788 223.201 133.592 226.601 140.441C227.4 142.05 227.4 143.949 226.601 145.558ZM71.7076 162.592C75.0554 155.06 79.8728 148.472 85.8773 143C79.6187 137.296 74.9168 130.625 71.7038 123.41C65.7247 127.792 60.7982 133.592 57.3978 140.441C56.5988 142.05 56.5988 143.949 57.3978 145.558C60.7982 152.407 65.7285 158.211 71.7076 162.592ZM162.603 214.328C158.176 220.818 152.148 226.157 144.957 229.78C143.398 230.561 141.525 230.605 139.879 229.78C132.586 226.107 126.486 220.666 122.044 214.046C129.571 210.736 136.33 205.826 141.999 199.517C148.021 206.217 155.078 211.122 162.603 214.328ZM236.98 186.773C231.062 191.94 223.954 195.486 216.411 197.168C217.824 189.48 217.695 181.571 216.006 173.884C221.921 170.093 227.124 165.235 231.346 159.527C235.697 166.207 238.351 173.968 238.923 182.044C239.052 183.84 238.329 185.591 236.98 186.773ZM183.244 238.649C188.292 232.788 191.779 225.768 193.483 218.313C187.009 219.256 180.297 219.073 173.887 217.798C170.009 224.311 164.894 230.012 158.801 234.581C164.81 238.013 171.562 240.106 178.548 240.606C178.685 240.617 178.817 240.621 178.954 240.621C180.593 240.621 182.161 239.908 183.244 238.649ZM105.451 240.606C112.626 240.091 119.548 237.898 125.675 234.306C119.692 229.753 114.671 224.098 110.858 217.653C104.258 219.048 97.2975 219.304 90.516 218.317C92.22 225.772 95.7113 232.788 100.755 238.649C101.838 239.908 103.406 240.621 105.045 240.621C105.182 240.621 105.314 240.617 105.451 240.606ZM193.483 67.6824C186.694 66.7031 179.989 66.9693 173.766 68.2201C169.968 61.6955 164.935 55.964 158.926 51.3499C164.905 47.9598 171.607 45.8892 178.548 45.3935C180.332 45.2638 182.07 45.9921 183.244 47.3497C188.288 53.2108 191.779 60.2273 193.483 67.6824ZM47.0185 187.486C52.975 192.687 60.1318 196.245 67.7316 197.912C66.1677 189.991 66.251 181.815 67.9967 173.884C62.1955 170.17 57.0797 165.43 52.903 159.862C48.4045 166.627 45.6553 174.528 45.076 182.757C44.9472 184.553 45.6705 186.304 47.0185 187.486ZM238.923 103.955C238.351 112.031 235.697 119.792 231.346 126.473C227.124 120.76 221.921 115.906 216.002 112.115C217.691 104.431 217.824 96.5188 216.411 88.8311C223.954 90.5128 231.062 94.0592 236.98 99.2263C238.329 100.408 239.052 102.159 238.923 103.955ZM52.6531 126.473C56.8752 120.764 62.0781 115.906 67.9929 112.115C66.304 104.428 66.1791 96.515 67.5877 88.8311C60.0447 90.5128 52.9371 94.0592 47.0185 99.2263C45.6705 100.408 44.9472 102.159 45.076 103.955C45.6478 112.031 48.3022 119.792 52.6531 126.473ZM124.959 143C124.959 133.539 132.605 125.84 141.999 125.84C151.394 125.84 159.039 133.539 159.039 143C159.039 152.46 151.394 160.16 141.999 160.16C132.605 160.16 124.959 152.46 124.959 143ZM136.319 143C136.319 146.157 138.864 148.72 141.999 148.72C145.135 148.72 147.679 146.157 147.679 143C147.679 139.842 145.135 137.28 141.999 137.28C138.864 137.28 136.319 139.842 136.319 143Z" fill="#8684C1"/>
<path d="M97.8107 229.439C91.0672 229.493 85.766 229.795 81.2778 230.432C70.4868 231.964 64.0709 235.562 61.229 242.348C59.7782 245.812 60.4768 248.807 63.1409 251.138C65.4281 253.14 69.1493 254.654 74.2142 255.763L74.497 255.824C83.1618 257.676 95.4645 258.346 111.066 258.111L112.025 258.095C119.354 257.968 126.869 257.665 135.914 257.175L144.92 256.661C148.084 256.477 151.344 256.289 152.504 256.226L154.074 256.145C157.407 255.977 159.556 255.915 160.882 255.957L162.369 256.014C183.869 256.807 200.647 255.724 211.441 253.172C216.365 252.007 219.888 250.564 221.858 248.921C223.991 247.142 224.36 245 222.778 243.109C217.843 237.21 209.744 233.876 196.659 232.099L195.983 232.009C185.112 230.589 171.59 230.152 145.894 230.135L142.196 230.132C137.196 230.117 132.409 230.048 126.055 229.911L110.424 229.553C105.746 229.455 103.115 229.424 100.182 229.429L97.8107 229.439Z" fill="white"/>
<ellipse cx="142.119" cy="248.721" rx="80.6851" ry="8.48129" fill="#E7EAEE"/>
<path fill-rule="evenodd" clip-rule="evenodd" d="M158.669 188.502C160.133 188.762 161.137 187.321 163.404 182.516L163.572 182.168L163.737 181.835C166.44 176.482 169.566 174.776 173.115 176.716L174.539 172.483L174.061 172.262L173.601 172.053C166.233 168.738 162.254 168.536 161.663 171.448L161.604 171.767L161.555 172.023C161.122 174.243 160.065 178.519 159.3 182.159L159.172 182.78C158.533 185.9 158.159 188.412 158.669 188.502Z" fill="white"/>
<path fill-rule="evenodd" clip-rule="evenodd" d="M142.978 145.572C142.978 145.572 153.749 147.009 159.197 146.76C164.645 146.511 172.612 144.217 172.612 144.217L172.423 151.145C172.423 151.145 197.837 150.628 193.999 171.594C191.472 185.403 172.13 179.724 172.13 179.724L175.829 171.594C175.829 171.594 187.43 172.439 183.206 168.884C182.422 168.225 177.412 167.315 170.819 167.493C165.156 167.645 160.237 165.937 159.725 164.403C157.806 158.652 160.593 155.627 160.593 155.627C160.593 155.627 157.898 156.948 158.409 160.16C158.92 163.372 155.154 229.137 155.154 229.137C155.154 229.137 151.746 229.746 150.032 229.746C148.319 229.746 145.96 229.137 145.96 229.137L142.978 145.572Z" fill="white"/>
<path fill-rule="evenodd" clip-rule="evenodd" d="M142.979 145.571C142.979 145.571 148.66 229.68 147.869 229.548C147.272 229.448 145.96 229.137 145.96 229.137L142.979 145.571Z" fill="#E7EAEE"/>
<path fill-rule="evenodd" clip-rule="evenodd" d="M147.657 230.433C148.03 233.742 147.332 235.069 147.424 235.069C148.947 235.069 149.856 235.038 152.298 234.847C152.298 234.847 152.162 233.421 152.162 232.751C152.162 231.95 152.298 230.433 152.298 230.433H147.657Z" fill="white"/>
<path d="M143.893 69.0388C143.893 69.0388 138.213 71.1868 138.213 67.1435C138.213 63.1003 142.595 65.1159 142.595 65.1159" fill="white"/>
<path d="M168.885 69.4608C170.078 69.7279 173.808 72.0706 173.808 66.3984C173.808 63.6914 169.548 65.6467 169.548 65.6467" fill="white"/>
<path d="M155.33 45.8043C150.638 46.2627 140.803 50.7563 142.594 63.5948C143.982 73.5471 151.374 84.2747 155.916 84.2747C160.376 84.2747 167.884 75.2439 168.974 66.3527C171.2 48.1947 160.023 45.3458 155.33 45.8043Z" fill="white"/>
<path fill-rule="evenodd" clip-rule="evenodd" d="M155.504 54.9915C155.754 54.4086 156.56 54.3698 156.863 54.9261C158.412 57.7631 160.146 59.7402 162.055 60.8719C163.982 62.0147 166.256 62.1275 168.575 61.0801C168.957 60.9078 169.405 61.0797 169.576 61.464C169.748 61.8484 169.577 62.2996 169.195 62.472C166.431 63.7202 163.64 63.5817 161.286 62.1863C159.452 61.0988 157.801 59.3705 156.324 57.0106L156.27 56.9228L156.221 57.0182C155.029 59.2982 153.49 61.1191 151.606 62.4718L151.417 62.6056C149.045 64.2493 146.262 64.9801 143.093 64.8C142.676 64.7763 142.356 64.4161 142.38 63.9956C142.403 63.5751 142.761 63.2534 143.179 63.2771C146.021 63.4386 148.471 62.7952 150.558 61.349C152.665 59.889 154.313 57.7755 155.504 54.9915Z" fill="#E7EAEE"/>
<path fill-rule="evenodd" clip-rule="evenodd" d="M179.726 128.042C179.269 136.697 176.058 140.37 172.045 140.897C171.512 140.967 172.258 144.052 171.794 144.456C169.149 146.76 164.486 146.859 157.175 146.926C150.557 146.987 146.288 146.449 143.322 145.224C143.095 145.131 143.299 141.249 143.065 141.228C139.349 140.897 135.068 137.576 134.028 128.544C130.507 97.9641 141.099 92.054 151.18 87.1818C151.726 86.9174 152.024 86.457 152.567 86.1953C153.713 85.643 153.414 86.914 156.019 86.914C158.624 86.914 158.624 85.9179 159.797 86.4823C160.235 86.6929 160.307 88.0084 160.743 88.2399C171.059 93.7217 180.988 104.122 179.726 128.042Z" fill="white"/>
<path fill-rule="evenodd" clip-rule="evenodd" d="M160.743 88.2399C174.366 93.2047 180.694 106.472 179.726 128.042C178.565 153.904 149.398 130.752 159.122 108.473C161.438 103.165 164.482 125.639 164.515 125.734C165.291 127.943 167.66 129.657 170.056 130.574C170.056 130.574 171.128 114.997 169.264 107.652C167.511 100.744 160.743 88.2399 160.743 88.2399Z" fill="white"/>
<path fill-rule="evenodd" clip-rule="evenodd" d="M151.971 83.1307C151.971 83.1307 152.354 84.2864 152.221 85.0006C152.088 85.7148 151.275 86.8705 151.275 86.8705C151.275 86.8705 128.66 93.8174 133.897 128.488C139.723 153.631 160.147 137.28 156.603 117.231C156.456 102.344 153.109 107.384 150.595 123.789C149.98 127.802 142.422 128.942 142.422 128.942" fill="white"/>
<ellipse cx="162.638" cy="73.4067" rx="2.08266" ry="1.716" fill="#FFB61D"/>
<ellipse cx="150.142" cy="73.4067" rx="2.08266" ry="1.716" fill="#FFB61D"/>
<path d="M152.242 75.721C152.332 75.3097 154.196 75.6325 154.721 76.3349L154.883 76.5526C155.371 77.2049 155.669 77.4107 156.3 77.4107C157.105 77.4107 157.379 77.2652 157.837 76.6613L157.96 76.4956C158.491 75.7623 160.367 75.2298 160.509 75.6259C160.652 76.022 160.448 76.4592 160.055 76.6025C159.76 76.71 159.592 76.8508 159.305 77.2302L159.17 77.4132C158.384 78.4971 157.73 78.936 156.3 78.936C155.138 78.936 154.465 78.4979 153.748 77.5691L153.51 77.2516L153.403 77.1111C153.166 76.8095 153.022 76.6875 152.854 76.6393L152.818 76.6301C152.41 76.5393 152.152 76.1323 152.242 75.721Z" fill="#00160A"/>
<path d="M153.713 64.3814C152.811 64.1034 151.988 64.0237 151.512 64.0819C151 64.1445 150.353 64.4104 149.756 64.6556C149.278 64.852 148.832 65.0352 148.513 65.0902C148.197 65.145 147.722 65.1272 147.259 65.1098C146.674 65.0879 146.108 65.0667 145.907 65.1936C145.545 65.4208 146.085 65.7879 146.4 65.8299C147.492 65.9754 148.286 66.0099 148.813 65.9251C149.28 65.8499 149.701 65.7197 150.274 65.4984L150.872 65.2693C151.27 65.1204 151.372 65.0964 151.512 65.0932L151.611 65.0934C152.011 65.1035 152.602 65.2243 153.367 65.4601C153.671 65.5537 153.995 65.3881 154.09 65.0902C154.186 64.7924 154.017 64.475 153.713 64.3814Z" fill="#00160A"/>
<path d="M155.945 72.5656C156.373 71.3088 156.621 65.1177 156.15 65.1127C155.68 65.1078 155.294 65.4879 155.289 65.9618C155.282 66.628 155.286 67.267 155.29 67.8662C155.302 69.6644 155.311 71.1032 155.013 71.8386L154.949 71.9904C154.564 72.9543 154.455 73.7745 155.486 73.9664C156.102 74.0809 158.865 72.5025 158.706 72.0566C158.547 71.6106 158.059 71.3791 157.616 71.5394L157.5 71.5809C157.237 71.6738 156.893 71.9636 156.584 72.2244C156.309 72.4562 156.061 72.6651 155.921 72.693L155.899 72.697L155.945 72.5656Z" fill="#00160A"/>
<path d="M159.444 64.3814C160.346 64.1034 161.169 64.0237 161.644 64.0819C162.156 64.1445 162.804 64.4104 163.401 64.6556C163.879 64.852 164.325 65.0352 164.643 65.0902C164.96 65.145 165.435 65.1272 165.898 65.1098C166.483 65.0879 167.048 65.0667 167.25 65.1936C167.612 65.4208 167.072 65.7879 166.756 65.8299C165.665 65.9754 164.871 66.0099 164.344 65.9251C163.877 65.8499 163.455 65.7197 162.883 65.4984L162.285 65.2693C161.887 65.1204 161.785 65.0964 161.644 65.0932L161.546 65.0934C161.146 65.1035 160.555 65.2243 159.79 65.4601C159.486 65.5537 159.162 65.3881 159.066 65.0902C158.971 64.7924 159.14 64.475 159.444 64.3814Z" fill="#00160A"/>
<path d="M164.319 68.6926C164.557 68.2838 164.421 67.7581 164.015 67.5185C163.872 67.434 163.758 67.5944 163.586 67.8376C163.27 68.2838 162.757 69.0087 161.501 69.0087C160.236 69.0087 159.717 68.277 159.401 67.8319C159.233 67.5947 159.123 67.4388 158.988 67.5185C158.582 67.7581 158.446 68.2838 158.684 68.6926C159.284 69.7241 160.261 70.2607 161.501 70.2607C162.742 70.2607 163.719 69.7241 164.319 68.6926Z" fill="#00160A"/>
<path d="M153.442 67.5374C153.838 67.794 153.952 68.325 153.697 68.7233C153.045 69.7432 152.003 70.2607 150.677 70.2607C149.342 70.2607 148.31 69.7337 147.703 68.6936C147.464 68.2852 147.372 67.7341 148.005 67.5191C148.282 67.4251 148.562 67.6969 148.908 68.0328C149.354 68.4655 149.91 69.0046 150.709 69.0046C152.22 69.0046 152.755 68.2418 153.061 67.8066C153.214 67.5876 153.31 67.4515 153.442 67.5374Z" fill="#00160A"/>
<path fill-rule="evenodd" clip-rule="evenodd" d="M156.141 28.3981C151.367 29.2557 147.711 32.8982 146.996 38.2794C146.962 38.5353 146.94 38.7848 146.929 39.0279C146.102 39.2893 143.651 40.086 143.718 40.3348C143.781 40.5664 145.955 40.0459 146.934 39.7988C147.076 42.1581 148.4 43.8495 150.63 44.8844C151.198 45.1477 151.808 45.364 152.456 45.5384C150.151 46.2694 147.796 47.6068 145.934 49.4444C142.495 52.8398 140.901 57.6288 141.75 63.7142C141.758 63.769 141.766 63.824 141.774 63.8789C139.03 63.028 137.361 64.1573 137.361 67.1435C137.361 70.1395 141.711 71.8232 143.551 70.6052C145.406 75.5509 148.294 80.1231 151.198 82.77C151.11 82.9615 151.091 83.1859 151.162 83.402C151.376 84.0463 151.441 84.5325 151.383 84.8425L151.371 84.8992C151.305 85.1721 151.116 85.5616 150.8 86.0484L150.739 86.1398L150.562 86.196C135.359 91.1129 129.541 105.362 133.054 128.617L133.067 128.683L133.132 128.957C134.827 136.028 138.035 140.154 142.032 141.223C142.031 141.243 142.031 141.262 142.032 141.282C142.73 165.1 143.341 184.078 143.863 198.217L144.053 203.238L144.242 207.997C144.51 214.538 144.75 219.566 144.963 223.085L145.099 225.244C145.332 228.777 145.469 229.555 145.97 229.911L146.019 229.944L146.056 229.967C146.164 230.03 146.296 230.086 146.455 230.136C146.269 230.136 146.082 230.135 145.894 230.135L142.196 230.132C137.196 230.117 132.409 230.048 126.055 229.911L110.424 229.553C105.746 229.455 103.115 229.424 100.182 229.429L97.8107 229.439C91.0672 229.493 85.766 229.795 81.2778 230.432C70.4868 231.964 64.0709 235.562 61.229 242.348C59.7782 245.812 60.4768 248.807 63.1409 251.138C65.4281 253.14 69.1493 254.654 74.2142 255.763L74.497 255.824C83.1618 257.676 95.4645 258.346 111.066 258.111L112.025 258.095C119.354 257.968 126.869 257.665 135.914 257.175L144.92 256.661C148.084 256.477 151.344 256.289 152.504 256.226L154.074 256.145C157.407 255.978 159.556 255.915 160.882 255.957L162.369 256.014C183.869 256.807 200.647 255.724 211.441 253.172C216.365 252.007 219.888 250.564 221.858 248.921C223.991 247.142 224.36 245 222.778 243.109C217.843 237.21 209.744 233.876 196.659 232.1L195.983 232.009C186.609 230.785 175.265 230.291 155.844 230.168L155.95 230.161C156.433 230.128 156.814 229.733 156.832 229.246L158.237 189.555C158.277 189.556 158.318 189.555 158.36 189.552C160.195 189.425 161.439 188.283 163.703 183.985L163.973 183.468L164.281 182.867C164.833 181.84 166.3 180.246 167.557 178.879L167.557 178.878C168.382 177.981 169.117 177.182 169.443 176.706C170.121 176.84 171.105 176.945 172.395 177.021L172.557 177.029L171.532 179.534L171.513 179.587C171.385 179.98 171.592 180.409 171.986 180.546C185.499 185.226 192.845 181.573 194.742 171.739C197.448 157.713 190.125 150.666 173.248 150.845L173.515 141.867C174.552 141.72 175.522 141.299 176.393 140.588C178.857 138.574 180.294 134.4 180.577 128.081C181.541 106.611 175.318 93.0936 161.866 87.7499L161.408 87.5725L161.365 87.4513C161.128 86.7762 160.97 86.2295 160.889 85.818L160.872 85.7255C160.787 85.243 160.787 84.4365 160.882 83.3328C160.893 83.1954 160.872 83.0628 160.825 82.9428C164.139 80.2426 167.373 75.3919 168.951 70.375L168.991 70.3889C169.008 70.3946 169.025 70.4007 169.043 70.407L169.769 70.6672C170.247 70.8289 170.646 70.933 171.055 70.987C173.296 71.2835 174.66 69.8124 174.66 66.3985C174.66 65.1081 174.043 64.2154 172.89 64.0119C172.136 63.8788 171.189 64.0548 170.013 64.5163C170.574 57.0958 168.848 51.7881 165.329 48.4709C164.003 47.2213 162.452 46.3057 160.841 45.7143C162.338 45.311 163.839 44.6284 165.005 43.6945C167.68 41.5517 168.524 38.3289 166.989 34.1434L172.207 32.9709L172.249 32.9563C172.424 32.8833 172.468 32.4456 172.468 32.1186C172.468 31.7916 172.202 31.417 172.001 31.4745L166.662 33.3262C164.945 29.487 160.618 27.5939 156.141 28.3981ZM147.999 231.282L148.255 231.282C149.484 231.284 150.685 231.289 151.857 231.297C151.767 232.334 151.745 233.596 151.835 234.52H148.269C148.234 233.781 148.143 232.413 147.999 231.282ZM146.953 231.281C146.872 231.935 146.805 232.673 146.746 233.336C146.699 233.857 146.657 234.332 146.614 234.683C146.585 234.707 146.557 234.732 146.531 234.76C144.538 236.893 142.475 238.281 140.344 238.939L139.997 239.043C138.174 239.58 134.762 240.426 134.829 240.406C133.342 240.833 132.622 241.325 132.368 242.353C131.952 244.044 133.651 244.786 138.059 244.815L138.395 244.816C139.118 244.815 139.757 244.741 141.164 244.517L142.258 244.341C143.362 244.168 144.015 244.094 144.613 244.088L144.871 244.09C145.185 244.098 145.509 244.131 146.218 244.222L147.085 244.336C147.586 244.4 147.94 244.44 148.315 244.471C149.864 244.6 151.048 244.492 152.039 244.013C154.604 242.774 154.917 239.69 153.237 235.023C153.235 235.017 153.233 235.012 153.231 235.006C153.24 234.955 153.244 234.901 153.244 234.847V231.308C174.664 231.498 186.598 232.657 196.406 233.989L197.16 234.094C209.376 235.836 216.851 238.983 221.33 244.338C223.138 246.499 219.876 249.219 211.008 251.315C200.293 253.849 183.442 254.917 161.78 254.084L161.122 254.058C159.572 253.996 156.963 254.079 152.641 254.31L148.667 254.534C147.154 254.621 145.413 254.723 143.767 254.818C141.308 254.961 139.06 255.091 138.103 255.145L135.814 255.271C127.165 255.739 119.922 256.037 112.906 256.172L111.992 256.189C96.0684 256.464 83.5567 255.811 74.8902 253.959C64.8277 251.808 60.0417 248.281 62.2162 243.089C64.7237 237.101 71.2261 233.071 81.2374 231.602L81.542 231.558C84.5343 231.133 87.9124 231.2 91.8697 231.277C93.8388 231.316 95.9512 231.358 98.2309 231.343L100.185 231.335C103.355 231.331 124.491 231.021 124.491 231.021C131.891 231.187 137.158 231.266 142.782 231.277L146.953 231.281ZM159.55 83.8713C158.292 84.6759 157.051 85.1327 155.916 85.1327C155.024 85.1327 154.067 84.804 153.086 84.2093C153.121 84.5512 153.112 84.8671 153.058 85.1587C152.942 85.7816 152.576 86.8852 151.97 87.7477C151.953 87.7716 151.935 87.7945 151.916 87.8164C152.729 88.2804 153.986 88.7623 155.721 88.5173C157.633 88.2476 158.69 87.5634 159.331 87.0317C159.232 86.01 159.36 84.7984 159.55 83.8713ZM159.54 88.054C158.747 89.0992 157.409 90.2333 155.721 90.2333C153.178 90.2333 151.508 89.5978 150.965 88.2495C136.9 92.8486 130.702 105.643 133.881 127.679L133.976 128.324L134.028 128.544C135.979 136.704 140.582 140.288 145.114 139.729L145.253 139.711C149.31 139.136 153.266 135.202 154.324 130.72L154.481 130.045C155.271 126.585 155.751 123.526 155.751 121.012L155.748 119.969C155.722 114.493 155.489 110.439 155.197 108.652L155.175 108.53L155.143 108.618C155.02 108.955 154.887 109.368 154.749 109.854L154.707 110.002C154.068 112.285 153.317 115.997 152.465 121.153C151.838 124.943 141.773 129.7 141.622 129.251C141.575 129.111 142.4 128.539 143.572 127.726L143.573 127.725L143.578 127.722C144.035 127.405 144.544 127.052 145.075 126.674C145.056 126.639 145.037 126.601 145.017 126.562C143.534 123.566 142.621 120.938 142.283 118.666C141.949 116.42 142.728 107.382 143.223 107.384L143.285 107.387C143.535 107.404 143.48 108.575 143.399 110.312C143.31 112.204 143.19 114.767 143.398 117.24C143.624 119.924 144.806 122.628 145.627 124.507C145.854 125.025 146.053 125.481 146.197 125.856C148.367 124.235 150.541 122.338 150.784 120.871L150.977 119.716C151.744 115.192 152.428 111.854 153.029 109.671L153.067 109.536C153.396 108.36 153.703 107.52 154.006 106.986C154.483 106.146 155.205 105.709 155.963 106.317C156.806 106.992 157.228 109.895 157.383 115.19C157.512 112.818 157.726 110.899 158.016 109.461C158.259 108.26 158.555 107.391 158.923 106.841C159.447 106.06 160.265 105.794 161.01 106.318L161.06 106.355C162.659 107.588 163.736 113.567 163.799 121.343L163.803 121.994L163.818 122.084C164.794 125.801 166.818 127.967 168.654 129.265C172.401 123.082 170.22 111.627 169.295 106.768C169.029 105.367 168.866 104.515 168.98 104.494C169.495 104.4 169.987 104.744 170.08 105.263C171.265 111.856 171.874 116.73 171.907 119.91C171.94 123.128 171.405 126.519 170.306 130.081C170.29 130.133 170.27 130.182 170.246 130.229C170.807 130.519 171.298 130.728 171.669 130.886C172.148 131.091 172.426 131.209 172.39 131.304C172.222 131.746 165.431 131.746 162.11 122.205C162.098 122.172 162.098 122.125 162.098 122.082L162.098 122.067C162.098 118.088 161.828 114.539 161.352 111.832C161.136 110.599 160.883 109.581 160.613 108.833L160.576 108.735C160.456 108.414 160.337 108.163 160.236 107.989L160.232 107.982L160.211 108.024C160.033 108.394 159.85 108.995 159.686 109.803L159.66 109.938C159.577 110.365 159.474 110.838 159.361 111.356C158.874 113.59 158.203 116.663 158.188 120.493L158.187 121.065C158.187 127.746 162.85 135.835 168.152 139.004C173.66 142.298 178.379 139.061 178.875 128.003C179.828 106.771 174.006 92.5446 160.453 89.0465C160.011 88.9323 159.72 88.5634 159.54 88.054ZM157.364 123.111C157.171 125.483 156.679 128.165 155.982 131.117C154.767 136.261 150.271 140.733 145.49 141.41C144.664 141.527 143.859 141.534 143.079 141.431C143.127 142.131 143.182 143.141 143.242 144.414C143.413 144.39 143.592 144.412 143.761 144.489C145.008 145.053 151.913 145.834 157.912 145.955L158.358 145.963C165.493 146.071 170.603 145.272 171.563 143.805L171.621 141.848C170.466 141.672 169.259 141.209 168.039 140.48C162.761 137.325 158.167 129.907 157.364 123.111ZM139.065 67.1435C138.917 64.9215 140.705 65.0674 142.023 65.3206C142.305 66.7284 142.695 68.1497 143.173 69.5503L143.106 69.5484C141.641 69.5075 139.218 69.4398 139.065 67.1435ZM169.908 65.6806C169.881 65.9373 169.852 66.1964 169.82 66.4578C169.704 67.4035 169.513 68.3618 169.258 69.3191C170.965 69.5226 173.824 69.635 173.29 65.8165C173.082 64.3294 171.179 65.1359 169.908 65.6806ZM155.661 44.9178C156.389 44.8742 157.144 44.9002 157.908 44.9969C159.842 44.973 162.736 44.0845 164.062 42.5007C169.264 36.2873 162.051 29.2481 156.45 30.158C152.29 30.8336 148.365 33.7752 147.74 38.4815C147.44 40.7421 148.906 44.3423 155.661 44.9178ZM144.536 179.936C145.327 203.305 146.179 228.464 146.563 229.137C146.628 229.255 147.615 229.264 148.398 229.272L148.399 229.272H148.403C148.608 229.274 148.8 229.275 148.956 229.279L149.378 229.286L149.856 229.286C151.015 229.28 152.477 229.226 154.239 229.122L154.973 229.077L157.868 159.599C157.788 158.018 156.341 156.212 155.367 154.997C154.788 154.275 154.377 153.761 154.522 153.63C154.907 153.284 157.916 156.682 158.471 157.884C158.481 157.925 158.493 157.979 158.506 158.046C158.848 157.144 159.329 156.198 159.955 155.215C160.181 154.86 163.044 150.86 161.001 154.984C156.627 163.816 161.582 167.405 170.231 167.437L170.263 167.437L170.267 167.437C170.339 167.438 170.392 167.438 170.51 167.423C173.878 166.992 177.533 167.191 180.412 167.569C183.241 167.941 188.133 170.716 182.596 172.283C181.273 172.657 179.147 172.431 176.693 171.894L176.028 171.783L172.129 179.724L172.803 179.87C184.617 183.653 191.469 180.123 193.203 171.712L193.255 171.448C195.729 158.629 190.42 150.696 173.227 151.542L173.205 152.295C173.189 152.822 172.753 153.235 172.23 153.219C171.707 153.203 171.297 152.764 171.312 152.238L171.329 151.666C165.309 152.111 169.252 151.35 171.349 151.011L171.491 146.219C169.012 147.49 164.445 147.963 158.372 147.87L157.874 147.861C151.991 147.743 145.408 147.032 143.33 146.358C143.645 153.611 144.08 166.476 144.536 179.934L144.536 179.936ZM174.342 172.663L172.937 176.099C171.963 175.95 171.292 175.776 170.788 175.646C170.621 175.603 170.472 175.565 170.337 175.533C170.154 174.168 170.159 173.178 170.33 172.593C170.479 172.085 170.694 171.799 170.974 171.67C171.578 171.868 172.288 172.085 173.106 172.318L173.721 172.492L174.342 172.663ZM169.057 175.629C169.131 175.58 169.21 175.543 169.29 175.517C169.086 174.418 169.085 172.746 169.256 172.162C169.372 171.764 169.471 171.452 169.604 171.199C169.409 171.132 169.113 170.979 168.748 170.792C167.071 169.927 163.943 168.315 162.566 170.844C160.242 175.113 158.2 188.522 158.794 188.526C159.639 188.531 161.788 185.505 163.202 182.817L163.265 182.697L163.629 181.982C164.739 179.814 166.513 177.31 169.057 175.629ZM175.69 170.939C175.387 170.885 175.088 171.021 174.924 171.273C174.86 171.233 174.788 171.203 174.711 171.184L169.468 169.88L169.352 169.814C165.365 167.545 162.787 167.737 160.988 170.265C160.35 171.161 160.031 172.288 159.877 173.783L159.859 173.972L159.837 174.23C159.816 174.489 159.8 174.757 159.784 175.088L159.72 176.467L159.708 176.676C159.688 177 159.668 177.212 159.639 177.411L159.621 177.529L159.563 177.85L159.528 178.015C159.507 178.104 159.483 178.206 159.451 178.333L159.357 178.689L158.789 180.756C158.687 181.228 158.591 181.673 158.502 182.089L159.111 164.873C161.026 167.268 165.097 168.529 170.912 168.165L171.391 168.138C171.616 168.126 171.843 168.114 172.072 168.101L172.079 168.101L172.121 168.099L172.13 168.098C174.662 167.961 177.411 167.812 179.9 168.369C186.109 169.758 183.57 171.035 183.023 171.309L182.99 171.326L182.974 171.334L182.902 171.369C182.028 171.76 179.975 171.681 176.098 171.01L175.69 170.939ZM135.037 241.553L135.244 241.492C135.144 241.523 142.633 240.455 146.641 236.256C147.397 235.464 151.988 236.045 151.988 236.045L151.992 236.057C153.721 238.939 153.97 241.935 151.802 242.818C151.037 243.13 149.744 243.441 148.439 243.332L148.249 243.316L147.982 243.289C147.798 243.269 147.6 243.245 147.369 243.216L146.079 243.049C145.4 242.965 145.1 242.944 144.69 242.944C143.974 242.944 140.531 243.454 140.531 243.454C139.481 243.616 138.945 243.671 138.392 243.672C136.179 243.675 134.785 243.127 134.1 242.846L134.035 242.818C133.973 242.79 133.923 242.763 133.884 242.737L133.842 242.707L133.839 242.72C133.918 242.398 134.186 241.814 135.037 241.553ZM168.538 66.4578C168.754 64.6929 168.826 63.0431 168.769 61.5095C166.145 62.5586 163.518 62.366 161.286 61.0423C159.452 59.9547 157.8 58.2265 156.324 55.8665L156.27 55.7792L156.221 55.8742C155.028 58.1542 153.49 59.9751 151.606 61.3278L151.416 61.4615C149.052 63.1 146.279 63.8314 143.123 63.6577L143.136 63.7142C144.935 71.6907 151.19 83.9801 156.019 84.2747C157.867 84.3874 160.547 81.3825 163.033 78.1251C165.717 74.6079 168.045 70.477 168.538 66.4578ZM164.164 49.7238C166.528 51.9514 168.196 55.3547 168.658 59.9043C168.63 59.9132 168.603 59.9238 168.575 59.9361C166.256 60.9835 163.982 61.2521 162.055 60.1093C160.146 58.9775 158.411 56.6191 156.863 53.782C156.56 53.2257 155.753 53.2646 155.504 53.8475C155.454 53.9633 155.4 54.0938 155.341 54.2367C154.657 55.8848 153.281 59.1976 150.297 60.9465C148.124 62.2196 144.919 62.5419 143.336 62.7011L143.334 62.7013L143.332 62.7015C143.19 62.7157 143.062 62.7286 142.949 62.7408C142.89 62.3696 142.846 62.0007 142.815 61.6346C144.623 61.3048 148.424 60.0443 149.952 59.0777C151.891 57.8516 152.484 56.6002 153.471 54.5199C153.652 54.1386 153.846 53.7294 154.064 53.2875C154.252 52.9059 154.698 50.3631 153.64 52.2968C153.576 52.4143 153.508 52.5425 153.435 52.6802L153.434 52.681L153.434 52.6815L153.434 52.6818C152.333 54.7539 150.097 58.9632 142.771 60.8832C142.628 56.6114 144.343 52.7835 146.85 50.308C149.192 47.9961 152.734 46.4675 155.425 46.2046C158.256 45.928 161.678 47.3803 164.164 49.7238Z" fill="#00160A"/>
<path fill-rule="evenodd" clip-rule="evenodd" d="M87.5175 182.976C87.0641 178.11 84.8156 173.294 81.2522 169.987C78.6577 167.579 74.9393 165.562 71.4696 167.287C66.1315 170.495 64.6981 177.08 65.2363 182.976C65.9036 190.283 69.2932 194.789 75.8051 197.481C79.4742 198.997 81.9133 200.997 83.905 204.482C85.4982 207.269 86.4271 210.759 88.4292 213.286C91.4223 217.063 95.168 218.741 99.7848 218.114C100.7 218.114 103.648 220.878 104.569 222.552C106.975 226.925 109.039 231.541 109.987 236.478C110.264 237.918 110.068 243.308 111.045 244.348C112.83 246.251 112.307 242.587 112.2 241.481C111.313 232.324 108.049 224.523 103.309 216.824C104.765 214.909 104.975 210.035 104.518 208.497C103.309 203.73 88.4302 192.771 87.5175 182.976Z" fill="white"/>
<path fill-rule="evenodd" clip-rule="evenodd" d="M70.923 166.183L70.8965 166.197C65.9379 169.178 64.1242 173.343 64.4803 183.011C64.8545 193.171 68.5134 194.971 75.0823 197.751L75.2823 197.834C78.9699 199.358 81.2955 201.344 83.1979 204.673L83.3504 204.945C83.6829 205.548 83.9798 206.164 84.3985 207.105L85.1485 208.818C86.1608 211.118 86.8058 212.327 87.7543 213.524C90.8676 217.453 94.7616 219.131 99.4565 218.493L99.5012 218.484L99.5444 218.47C100.272 218.182 102.746 220.715 103.859 222.738C106.562 227.652 108.308 231.937 109.177 236.25L109.236 236.551C109.292 236.843 109.329 237.292 109.372 238.145L109.432 239.409C109.446 239.704 109.459 239.96 109.473 240.203L109.481 240.347C109.623 242.698 109.855 244.04 110.39 244.611C111.106 245.373 111.767 245.517 112.129 244.855C112.335 244.478 112.383 243.87 112.339 243.014L112.321 242.728C112.311 242.582 112.298 242.43 112.283 242.267L112.16 241.066C111.292 232.74 108.468 225.184 103.48 216.997L103.383 216.838L103.445 216.739C104.639 214.754 105.074 210.311 104.502 208.389C103.524 205.104 101.59 202.445 98.0699 198.939L97.457 198.331C91.5057 192.403 89.5094 189.345 87.8737 182.821L87.3108 180.563L87.2966 180.508C85.9532 175.293 84.5432 172.188 81.877 169.714C78.6781 166.745 74.1811 164.564 70.923 166.183ZM81.364 170.274C83.81 172.544 85.5392 175.412 86.809 180.189L87.082 181.246L87.462 182.78C87.874 186.893 89.1472 191.737 96.9253 198.874L97.3388 199.284C100.902 202.806 102.826 205.414 103.777 208.607C104.317 210.423 103.822 215.024 102.63 216.593C102.534 216.719 102.526 216.891 102.609 217.026C107.681 225.263 110.538 232.813 111.407 241.14L111.513 242.177L111.543 242.491C111.556 242.642 111.567 242.782 111.575 242.918L111.583 243.053C111.62 243.765 111.579 244.28 111.466 244.487L111.46 244.5L111.474 244.504C111.374 244.482 111.188 244.35 110.941 244.087C110.598 243.721 110.376 242.48 110.248 240.465L110.221 240.012L110.122 237.976C110.082 237.204 110.046 236.771 109.989 236.453L109.98 236.406C109.115 231.901 107.323 227.46 104.521 222.368L104.46 222.258C103.15 219.94 100.605 217.345 99.3274 217.739L99.3197 217.741L99.3555 217.737C94.9312 218.338 91.2976 216.772 88.3465 213.048C87.4235 211.884 86.7911 210.681 85.7527 208.307L85.2175 207.081C84.6528 205.8 84.3036 205.078 83.8545 204.293C81.9024 200.876 79.4985 198.791 75.7782 197.216L75.5701 197.129C69.1304 194.467 65.8833 190.044 65.2347 182.941L65.2162 182.729C64.6694 176.169 66.6246 170.512 71.1385 167.704L71.2714 167.622L71.2585 167.629C74.1834 166.176 78.3709 167.496 81.364 170.274Z" fill="#00160A"/>
<path fill-rule="evenodd" clip-rule="evenodd" d="M108.492 218.231C110.683 218.569 112.591 217.277 113.326 215.125C113.961 213.264 114.023 211.1 114.744 209.341C115.241 208.13 116.031 207.101 116.997 206.231C119.546 203.936 122.207 203.362 122.967 199.554C123.563 196.569 122.823 190.484 118.685 191.09C115.807 191.514 113.481 195.388 112.14 197.83C110.481 200.853 108.933 204.092 108.062 207.413C106.625 212.882 106.431 218.953 106.414 224.555C106.411 225.23 106.272 233.476 107.229 233.34C108.177 233.206 107.577 224.647 107.658 222.875" fill="white"/>
<path fill-rule="evenodd" clip-rule="evenodd" d="M77.3302 172.477C76.6009 172.854 76.7439 174.065 77.6164 176.228C78.4906 178.395 79.7796 180.027 81.0966 180.769C82.4437 181.528 83.674 181.215 84.014 179.884C84.3208 178.683 82.2226 175.678 79.9948 173.691C78.8354 172.657 77.9303 172.167 77.3302 172.477ZM79.4927 174.262C81.2807 176.439 83.4846 179.276 83.2806 180.075C83.081 180.856 82.4231 181.024 81.4664 180.485C80.313 179.835 78.9248 177.99 78.1111 175.973L77.9914 175.67C77.2474 174.225 77.2495 172.921 77.6758 172.774C78.0816 172.634 78.9611 173.615 79.4927 174.262ZM114.851 196.162C114.554 195.343 115.448 194.335 117.096 193.609C118.867 192.829 120.018 192.773 120.012 193.744C120.009 194.4 119.13 195.316 117.79 196.14C116.431 196.975 115.163 197.02 114.851 196.162ZM119.245 193.796C119.214 193.791 119.176 193.789 119.13 193.789L119.08 193.791C119.031 193.793 118.97 193.791 118.897 193.789C118.443 193.776 117.509 193.75 115.763 194.622C115.388 194.809 115.149 195.803 115.184 195.901C115.27 196.136 116.386 196.491 117.395 195.871C117.816 195.612 118.185 195.156 118.485 194.784C118.612 194.628 118.726 194.487 118.827 194.382C119.053 194.145 119.191 193.941 119.238 193.817L119.245 193.796ZM116.387 201.21L116.203 201.509C115.403 202.824 114.919 203.756 114.724 204.345C114.464 205.132 114.743 205.688 115.466 205.45C116.125 205.233 117.396 204.157 118.977 202.587C120.256 201.316 120.896 199.385 120.405 198.46C119.739 197.203 118.183 198.302 116.387 201.21ZM119.737 198.438C120.04 199.009 119.511 200.985 118.445 202.044L118.087 202.396C117.809 202.666 117.512 202.97 117.216 203.271L117.216 203.271C116.309 204.196 115.425 205.096 115.213 204.939C114.965 204.756 115.77 203.039 116.651 201.613C117.5 200.238 118.613 198.969 119.176 198.571C119.542 198.312 119.674 198.318 119.737 198.438ZM109.211 212.973C108.996 214.411 109.188 215.485 109.909 215.633C110.65 215.786 111.438 214.792 112.316 212.764C113.154 210.828 112.935 208.994 111.838 208.716C110.707 208.429 109.68 210.017 109.233 212.827L109.211 212.973ZM111.653 209.456C112.143 209.58 112.397 210.873 111.763 212.533C111.266 213.838 109.909 216.935 109.55 214.51C109.496 214.141 109.495 213.659 109.581 213.087L109.627 212.798C110.017 210.488 111.152 209.329 111.653 209.456ZM69.9789 188.99C68.1243 186.953 67.0261 184.414 67.9387 183.304C69.0261 181.98 74.0445 186.558 73.979 188.845C73.9408 190.18 73.364 190.865 72.4083 190.69C71.6997 190.56 70.8361 189.932 69.9789 188.99ZM68.5192 183.413L68.493 183.447C67.9959 184.173 68.5767 186.737 70.1584 188.475C70.9134 189.304 72.0382 190.228 72.5438 190.321C72.9661 190.398 73.1955 190.126 73.2219 189.205C73.2462 188.359 72.3111 186.589 70.9424 185.341C70.7911 185.202 70.6102 185.016 70.4139 184.815L70.4138 184.814L70.4138 184.814L70.4138 184.814C69.8188 184.203 69.0828 183.445 68.6004 183.439C68.5238 183.438 68.5072 183.43 68.5192 183.413ZM90.4379 211.228C90.8609 213.08 91.6963 214.285 92.8277 214.946C93.5948 215.393 94.307 215.525 95.1231 215.525C96.8741 215.525 97.6864 214.74 97.3816 213.464C97.1531 212.507 96.2738 211.318 95.1025 210.281C93.9346 209.248 92.6819 208.547 91.7715 208.49C90.5273 208.412 90.0258 209.424 90.4379 211.228ZM91.7244 209.252C92.4287 209.296 93.5494 209.923 94.6026 210.855C95.6674 211.797 96.4607 212.87 96.6453 213.642C96.822 214.382 96.4283 215.144 95.1231 215.144C94.4284 215.144 93.8366 215.035 93.2077 214.667C92.2643 214.117 91.1748 212.71 90.7973 211.057C90.4834 209.683 91.0955 209.212 91.7244 209.252ZM93.5982 203.396C92.0307 202.084 91.2807 200.706 91.7322 199.948C92.2465 199.084 93.5933 199.645 94.9577 201.155C95.8111 202.099 97.0066 203.733 97.3594 204.541C97.5031 204.869 97.5518 205.114 97.4419 205.338C97.2757 205.676 96.9447 205.686 96.5578 205.526C96.0638 205.322 95.2286 204.738 93.9942 203.724L93.5982 203.396ZM92.8226 200.402C92.6565 200.332 92.5245 200.308 92.4383 200.318C92.398 200.323 92.3882 200.329 92.3818 200.34C92.3722 200.356 92.3551 200.377 92.334 200.403C92.228 200.534 92.0239 200.786 92.2009 201.111C92.4794 201.623 93.3675 202.593 94.0823 203.191C95.0367 203.99 96.037 204.55 96.6325 204.884L96.6326 204.884C96.744 204.946 96.8412 205.001 96.9213 205.047L96.9718 205.076L96.9159 204.97C96.5043 204.213 95.1898 202.564 94.4819 201.763L94.3976 201.668C93.8029 201.01 93.2543 200.582 92.8226 200.402ZM76.9642 193.084C76.5127 193.842 77.2627 195.22 78.8302 196.532L79.2262 196.86C80.4606 197.874 81.2959 198.458 81.7898 198.662C82.1768 198.822 82.5077 198.812 82.6739 198.474C82.7838 198.25 82.7351 198.005 82.5914 197.677C82.2386 196.869 81.0431 195.235 80.1897 194.291C78.8253 192.781 77.4785 192.22 76.9642 193.084ZM77.6702 193.454C77.7565 193.444 77.8885 193.468 78.0546 193.538C78.4863 193.718 79.0349 194.146 79.6296 194.804L79.7139 194.899C80.4218 195.7 81.3576 197.349 81.7692 198.106L81.8251 198.212L81.7746 198.183C81.2663 197.887 80.4472 197.275 79.3143 196.327C78.5995 195.729 77.7114 194.759 77.4329 194.247C77.2559 193.922 77.46 193.67 77.566 193.539C77.5871 193.513 77.6042 193.492 77.6138 193.476C77.6202 193.465 77.63 193.459 77.6702 193.454ZM86.4036 194.244C84.8361 192.932 84.0861 191.554 84.5376 190.796C85.0518 189.932 86.3987 190.493 87.7631 192.003C88.6165 192.947 89.8119 194.581 90.1647 195.389C90.3084 195.717 90.3572 195.962 90.2472 196.186C90.0811 196.524 89.7501 196.534 89.3632 196.374C88.8692 196.17 88.0339 195.586 86.7995 194.572L86.4036 194.244ZM85.6276 191.25C85.4616 191.18 85.3295 191.156 85.2433 191.166C85.2031 191.171 85.1932 191.177 85.1869 191.188C85.1851 191.191 85.1831 191.194 85.181 191.197C85.1163 191.305 84.9242 191.625 85.1297 192.003C85.4081 192.515 86.2223 193.81 86.5087 194.039C87.3587 194.717 88.425 195.242 89.1314 195.59C89.3849 195.715 89.5921 195.817 89.7263 195.895L89.7768 195.924L89.7209 195.818C89.3093 195.061 87.9949 193.412 87.2869 192.611L87.2027 192.516C86.6079 191.858 86.0594 191.43 85.6276 191.25Z" fill="#FFB61D"/>
<path fill-rule="evenodd" clip-rule="evenodd" d="M118.631 190.713C120.721 190.406 122.569 191.624 123.338 193.85C123.941 195.599 123.681 197.912 123.338 199.629C122.899 201.832 121.983 203.009 119.967 204.467L118.755 205.323C118.336 205.624 117.993 205.885 117.665 206.157C117.522 206.275 117.384 206.394 117.25 206.515C116.274 207.393 115.547 208.383 115.094 209.486L115.032 209.642C114.793 210.26 114.641 210.874 114.422 212.019L114.234 213.02C114.044 214.016 113.9 214.616 113.684 215.249C112.856 217.676 111.106 218.962 108.813 218.607C108.607 218.575 107.928 218.627 109.449 218.316C110.971 218.006 112.251 217.102 112.968 215.001C113.17 214.409 113.307 213.835 113.492 212.87L113.68 211.863C113.926 210.579 114.093 209.93 114.394 209.195C114.893 207.98 115.688 206.898 116.745 205.946C116.887 205.818 117.033 205.693 117.183 205.568C117.484 205.319 117.795 205.08 118.157 204.817L118.525 204.553C118.831 204.337 119.296 204.011 119.39 203.944L119.652 203.755C121.436 202.445 122.588 201.415 122.974 199.479C123.291 197.891 122.801 195.716 122.244 194.1C121.583 192.186 120.419 190.84 118.74 191.086C116.269 191.45 110.133 200.495 108.437 206.032C107.041 210.589 106.686 217.583 106.779 223.863L106.794 224.758L106.792 225.992C106.792 226.992 106.802 227.827 106.828 228.696L106.835 228.914C106.877 230.171 106.949 231.203 107.057 231.946C107.092 232.191 107.131 232.4 107.173 232.571L107.194 232.654L107.206 232.602C107.253 232.373 107.291 232.074 107.321 231.71L107.33 231.586L107.347 231.324C107.394 230.511 107.403 229.472 107.383 228.174L107.366 227.267C107.358 226.934 107.349 226.576 107.337 226.159L107.274 223.763C107.267 223.391 107.267 223.196 107.273 223.014L107.301 222.32C107.322 221.756 107.335 221.17 107.349 220.239L107.37 218.891C107.428 215.807 107.54 214.272 107.904 212.383C107.959 212.099 108.019 211.818 108.085 211.54C109.041 207.488 111.097 204.572 113.087 200.998C113.684 199.925 116.821 198.281 116.849 198.49C116.878 198.698 114.164 199.932 113.34 201.312C111.588 204.247 109.756 207.755 108.822 211.716C108.759 211.984 108.701 212.254 108.648 212.529L108.579 212.9C108.279 214.576 108.18 216.076 108.128 218.913L108.088 221.276C108.078 221.756 108.067 222.139 108.051 222.528L108.029 223.095C108.024 223.304 108.026 223.561 108.039 224.113L108.12 227.105C108.127 227.399 108.132 227.671 108.137 227.942L108.149 228.817C108.185 232.21 108.028 233.612 107.282 233.718C106.697 233.8 106.478 233.228 106.307 232.056C106.201 231.325 106.13 230.345 106.086 229.163L106.078 228.939C106.047 227.981 106.035 227.084 106.034 225.994L106.035 224.564C105.875 218.038 106.617 210.619 108.092 205.807C109.869 200.006 115.764 191.135 118.631 190.713Z" fill="#00160A"/>
<ellipse cx="107.163" cy="237.189" rx="14.768" ry="11.0587" fill="white"/>
<ellipse cx="101.295" cy="237.189" rx="8.9005" ry="11.0587" fill="#E7EAEE"/>
<path fill-rule="evenodd" clip-rule="evenodd" d="M121.931 225.654H92.3947C92.1333 225.654 91.9214 225.867 91.9214 226.131C91.9214 234.277 92.6848 239.349 94.7133 242.871C97.0005 246.842 100.941 248.725 107.163 248.725C113.384 248.725 117.325 246.842 119.612 242.871C121.641 239.349 122.404 234.277 122.404 226.131C122.404 225.867 122.192 225.654 121.931 225.654ZM93.6261 226.607H121.078L121.077 226.717C121.041 234.363 121.045 239.14 119.172 242.393C117.07 246.041 113.071 248.153 107.163 248.153C101.255 248.153 97.6338 245.66 95.5321 242.011L95.4615 241.887C93.6641 238.681 93.6821 234.392 93.6285 227.017L93.6261 226.607Z" fill="#00160A"/>
</svg>
