<svg title="cardsBg" width="346" height="634" viewBox="0 0 346 634" fill="none" xmlns="http://www.w3.org/2000/svg">
<path d="M0 30C0 13.4315 13.4315 0 30 0H316C332.569 0 346 13.4315 346 30V604C346 620.569 332.569 634 316 634H30C13.4315 634 0 620.569 0 604V30Z" fill="#9A98D3"/>
<path d="M251.918 37.0369H245.638V62.1649H251.918V37.0369Z" fill="#5C4DA0"/>
<path d="M245.638 55.539C247.862 54.8959 249.955 53.7482 251.918 52.5109L251.918 62.1649H245.638L245.638 55.539Z" fill="#3E3D98"/>
<path d="M241.643 44.021H235.363V62.1649H241.643V44.021Z" fill="#5C4DA0"/>
<path d="M240.483 55.9623C240.875 56.0192 241.259 56.0518 241.643 56.0599V62.1649H235.363L235.363 56.1169C236.471 55.775 238.102 55.6367 240.483 55.9623Z" fill="#3E3D98"/>
<path d="M262.183 29.5319H255.904V62.1649H262.183V29.5319Z" fill="#5C4DA0"/>
<path d="M262.192 47.4153V62.1649H255.912V49.9224C258.145 48.5061 260.23 47.4072 262.192 47.4153Z" fill="#3E3D98"/>
<path d="M261.939 20.0163L256.27 21.1477L257.796 22.5397L249.118 30.8017L246.074 28.0097L235.302 38.2579C234.892 38.6486 234.901 39.2754 235.32 39.658C235.738 40.0405 236.41 40.0324 236.82 39.6417L246.109 30.8098L249.153 33.6018L259.323 23.9235L260.849 25.3154L261.957 20L261.939 20.0163Z" fill="#5C4DA0"/>
<path d="M0 97C0 80.4314 13.4315 67 30 67H316C332.569 67 346 80.4315 346 97V604C346 620.569 332.569 634 316 634H30C13.4315 634 0 620.569 0 604V97Z" fill="#8684C1"/>
<path d="M244.455 117.317L165.582 123.441C164.618 123.516 163.896 124.359 163.971 125.324L171.612 223.724C171.687 224.689 172.529 225.41 173.494 225.335L252.367 219.211C253.331 219.136 254.053 218.293 253.978 217.328L246.337 118.928C246.262 117.963 245.42 117.242 244.455 117.317Z" fill="#BDBDBD"/>
<path d="M241.2 114.069L162.327 120.193C161.362 120.268 160.641 121.111 160.716 122.076L168.356 220.476C168.431 221.441 169.274 222.162 170.239 222.087L249.111 215.963C250.076 215.888 250.797 215.045 250.722 214.08L243.082 115.68C243.007 114.715 242.164 113.994 241.2 114.069Z" fill="#F89624" fill-opacity="0.69"/>
<path d="M255.974 101.534L171.931 81.6517C170.989 81.429 170.045 82.0117 169.822 82.9533L145.034 187.733C144.811 188.675 145.394 189.619 146.336 189.841L230.379 209.724C231.321 209.947 232.264 209.364 232.487 208.422L257.275 103.642C257.498 102.701 256.915 101.757 255.974 101.534Z" fill="#BDBDBD"/>
<path d="M254.343 98.2858L170.3 78.4033C169.358 78.1806 168.414 78.7633 168.192 79.7048L143.403 184.485C143.181 185.426 143.763 186.37 144.705 186.593L228.748 206.475C229.69 206.698 230.634 206.115 230.856 205.174L255.644 100.394C255.867 99.4524 255.285 98.5085 254.343 98.2858Z" fill="#473E99" fill-opacity="0.36"/>
<path d="M234.53 111.12L182.254 98.7523C181.312 98.5295 180.368 99.1122 180.146 100.054L175.536 119.54C175.313 120.482 175.896 121.426 176.837 121.648L229.113 134.016C230.055 134.238 230.999 133.656 231.222 132.714L235.831 113.228C236.054 112.286 235.472 111.342 234.53 111.12Z" fill="white" fill-opacity="0.4"/>
<path d="M0 187C0 170.431 13.4315 157 30 157H316C332.569 157 346 170.431 346 187V604C346 620.569 332.569 634 316 634H30C13.4315 634 0 620.569 0 604V187Z" fill="#6967AD"/>
<path d="M252.945 315.372H223.025C218.958 315.372 215.35 313.423 214.095 310.545L201.41 281.5C200.891 280.312 202.005 279.075 203.679 278.98C226.78 277.647 249.65 277.647 272.297 278.98C273.971 279.079 275.079 280.312 274.56 281.5L261.869 310.549C260.614 313.427 257.006 315.375 252.939 315.375L252.945 315.372Z" fill="#FAB317"/>
<path d="M271.908 281.09C271.908 281.862 256.812 282.489 238.191 282.489C219.571 282.489 204.475 281.862 204.475 281.09C204.475 280.319 219.571 279.692 238.191 279.692C256.812 279.692 271.908 280.319 271.908 281.09Z" fill="#1B1750"/>
<path d="M276.376 241.838C264.245 239.838 245.707 255.603 240.072 270.976V248.58C242.901 245.44 248.3 240.713 258.097 235.716C273.334 227.949 287.357 217.978 275.203 215.974C263.815 214.096 246.774 227.879 240.078 242.289V213.528C242.04 211.62 245.259 209.118 250.399 206.494C260.001 201.597 268.837 195.317 261.18 194.051C254.531 192.955 244.834 200.321 240.078 208.631V199.31C240.862 196.428 241.976 192.309 245.023 188.099C252.085 178.342 255.898 168.29 246.591 169.039C237.272 169.789 231.23 187.162 236.323 200.502V205.299C232.88 195.538 221.068 185.427 213.358 186.7C205.695 187.962 214.537 194.247 224.139 199.144C231.448 202.871 234.867 206.358 236.323 208.236V230.893C230.8 215.447 212.132 199.501 199.936 201.513C187.782 203.516 201.805 213.487 217.042 221.255C228.554 227.126 233.989 232.624 236.329 235.617V262.784C230.428 247.617 212.232 232.314 200.272 234.285C188.118 236.288 198.539 243.573 215.663 252.385C227.298 258.374 233.529 264.691 236.329 268.127V280.924C237.684 281.16 238.958 281.16 240.083 280.924V275.832C242.465 272.817 247.905 267.378 259.282 261.581C274.519 253.813 288.542 243.842 276.388 241.838H276.376Z" fill="#5C4EA0"/>
<path d="M0 318C0 301.431 13.4315 288 30 288H316C332.569 288 346 301.431 346 318V604C346 620.569 332.569 634 316 634H30C13.4315 634 0 620.569 0 604V318Z" fill="#53519B"/>
<path fill-rule="evenodd" clip-rule="evenodd" d="M102.54 413.76C78.8149 413.76 59.5921 433.307 59.5921 457.407C59.5921 481.508 78.8149 501.055 102.54 501.055C126.265 501.055 145.487 481.508 145.487 457.407C145.487 433.307 126.265 413.76 102.54 413.76ZM59.3301 457.407C59.3301 433.142 78.6812 413.481 102.54 413.481C126.398 413.481 145.749 433.142 145.749 457.407C145.749 481.673 126.398 501.334 102.54 501.334C78.6812 501.334 59.3301 481.673 59.3301 457.407Z" fill="#5C4FA1"/>
<path fill-rule="evenodd" clip-rule="evenodd" d="M56.6749 542.901C56.4133 542.901 56.2414 543.111 56.2414 543.318V583.347C56.2414 583.554 56.4133 583.763 56.6749 583.763H118.9C119.162 583.763 119.334 583.554 119.334 583.347V543.318C119.334 543.111 119.162 542.901 118.9 542.901H56.6749ZM55.1932 543.318C55.1932 542.45 55.8788 541.788 56.6749 541.788H118.9C119.696 541.788 120.382 542.45 120.382 543.318V583.347C120.382 584.215 119.696 584.877 118.9 584.877H56.6749C55.8788 584.877 55.1932 584.215 55.1932 583.347V543.318Z" fill="#5C4FA1"/>
<path fill-rule="evenodd" clip-rule="evenodd" d="M55.1931 547.927C55.1931 547.619 55.4278 547.37 55.7172 547.37H119.861C120.15 547.37 120.385 547.619 120.385 547.927C120.385 548.234 120.15 548.484 119.861 548.484H55.7172C55.4278 548.484 55.1931 548.234 55.1931 547.927Z" fill="#5C4FA1"/>
<path d="M60.5768 545.098C60.5768 545.803 60.0158 546.374 59.3216 546.374C58.6274 546.374 58.0664 545.8 58.0664 545.098C58.0664 544.395 58.6274 543.822 59.3216 543.822C60.0158 543.822 60.5768 544.395 60.5768 545.098Z" fill="#5C4FA1"/>
<path fill-rule="evenodd" clip-rule="evenodd" d="M59.3216 544.1C58.7614 544.1 58.3285 544.56 58.3285 545.098C58.3285 545.635 58.7614 546.095 59.3216 546.095C59.8822 546.095 60.3147 545.638 60.3147 545.098C60.3147 544.56 59.8818 544.1 59.3216 544.1ZM57.8044 545.098C57.8044 544.23 58.4933 543.543 59.3216 543.543C60.1499 543.543 60.8388 544.23 60.8388 545.098C60.8388 545.969 60.1494 546.652 59.3216 546.652C58.4933 546.652 57.8044 545.965 57.8044 545.098Z" fill="#5C4FA1"/>
<path d="M63.5923 546.374C64.2856 546.374 64.8475 545.802 64.8475 545.098C64.8475 544.393 64.2856 543.822 63.5923 543.822C62.8991 543.822 62.3372 544.393 62.3372 545.098C62.3372 545.802 62.8991 546.374 63.5923 546.374Z" fill="#5C4FA1"/>
<path fill-rule="evenodd" clip-rule="evenodd" d="M63.5923 544.1C63.0327 544.1 62.5992 544.558 62.5992 545.098C62.5992 545.637 63.0327 546.095 63.5923 546.095C64.1519 546.095 64.5854 545.637 64.5854 545.098C64.5854 544.558 64.1519 544.1 63.5923 544.1ZM62.0751 545.098C62.0751 544.228 62.7655 543.543 63.5923 543.543C64.4192 543.543 65.1095 544.228 65.1095 545.098C65.1095 545.968 64.4191 546.652 63.5923 546.652C62.7655 546.652 62.0751 545.968 62.0751 545.098Z" fill="#5C4FA1"/>
<path d="M67.863 546.374C68.5562 546.374 69.1181 545.802 69.1181 545.098C69.1181 544.393 68.5562 543.822 67.863 543.822C67.1698 543.822 66.6078 544.393 66.6078 545.098C66.6078 545.802 67.1698 546.374 67.863 546.374Z" fill="#5C4FA1"/>
<path fill-rule="evenodd" clip-rule="evenodd" d="M67.8629 544.1C67.3033 544.1 66.8698 544.558 66.8698 545.098C66.8698 545.637 67.3033 546.095 67.8629 546.095C68.4225 546.095 68.856 545.637 68.856 545.098C68.856 544.558 68.4225 544.1 67.8629 544.1ZM66.3457 545.098C66.3457 544.228 67.0361 543.543 67.8629 543.543C68.6898 543.543 69.3801 544.228 69.3801 545.098C69.3801 545.968 68.6898 546.652 67.8629 546.652C67.0361 546.652 66.3457 545.968 66.3457 545.098Z" fill="#5C4FA1"/>
<path fill-rule="evenodd" clip-rule="evenodd" d="M199.036 421.486C198.774 421.486 198.602 421.695 198.602 421.902V461.931C198.602 462.138 198.774 462.347 199.036 462.347H261.261C261.523 462.347 261.695 462.138 261.695 461.931V421.902C261.695 421.695 261.523 421.486 261.261 421.486H199.036ZM197.554 421.902C197.554 421.034 198.24 420.372 199.036 420.372H261.261C262.057 420.372 262.743 421.034 262.743 421.902V461.931C262.743 462.799 262.057 463.461 261.261 463.461H199.036C198.24 463.461 197.554 462.799 197.554 461.931V421.902Z" fill="#F7B21A"/>
<path fill-rule="evenodd" clip-rule="evenodd" d="M262.219 427.071H198.078V425.957H262.219V427.071Z" fill="#F7B21A"/>
<path d="M201.679 424.961C202.373 424.961 202.935 424.39 202.935 423.685C202.935 422.981 202.373 422.409 201.679 422.409C200.986 422.409 200.424 422.981 200.424 423.685C200.424 424.39 200.986 424.961 201.679 424.961Z" fill="#E99D23"/>
<path d="M205.95 424.961C206.643 424.961 207.205 424.39 207.205 423.685C207.205 422.981 206.643 422.409 205.95 422.409C205.257 422.409 204.695 422.981 204.695 423.685C204.695 424.39 205.257 424.961 205.95 424.961Z" fill="#E99D23"/>
<path d="M211.479 423.685C211.479 424.391 210.918 424.961 210.224 424.961C209.53 424.961 208.969 424.388 208.969 423.685C208.969 422.983 209.53 422.409 210.224 422.409C210.918 422.409 211.479 422.983 211.479 423.685Z" fill="#E99D23"/>
<path d="M106.257 387.569L77.7502 406.791L81.5005 412.537L110.007 393.315L106.257 387.569Z" fill="#5C4FA1"/>
<path d="M82.2437 400.664L79.4005 400.079L75.4757 419.793L78.3189 420.378L82.2437 400.664Z" fill="white"/>
<path d="M90.056 395.395L87.2128 394.81L83.288 414.524L86.1312 415.109L90.056 395.395Z" fill="white"/>
<path d="M97.8743 390.126L95.0311 389.541L91.1063 409.255L93.9495 409.84L97.8743 390.126Z" fill="white"/>
<path d="M105.687 384.854L102.843 384.269L98.9186 403.983L101.762 404.568L105.687 384.854Z" fill="white"/>
<path d="M113.505 379.585L110.662 379L106.737 398.714L109.58 399.299L113.505 379.585Z" fill="white"/>
<path d="M81.8664 412.022L113.307 401.719L120.278 423.695C120.6 424.712 120.051 425.802 119.051 426.13L91.2353 435.245C90.2354 435.573 89.1627 435.014 88.8403 433.998L81.8694 412.021L81.8664 412.022Z" fill="#2E2E7F"/>
<path d="M113.87 401.535L81.3116 412.205L83.3933 418.768L115.952 408.098L113.87 401.535Z" fill="#5C4FA1"/>
<path d="M87.2666 407.542L84.685 406.198L75.6613 424.098L78.243 425.443L87.2666 407.542Z" fill="white"/>
<path d="M96.1916 404.614L93.6099 403.27L84.5862 421.17L87.1679 422.515L96.1916 404.614Z" fill="white"/>
<path d="M105.118 401.692L102.536 400.348L93.5127 418.248L96.0944 419.593L105.118 401.692Z" fill="white"/>
<path d="M114.043 398.767L111.461 397.423L102.438 415.323L105.019 416.668L114.043 398.767Z" fill="white"/>
<path d="M122.97 395.842L120.388 394.498L111.364 412.398L113.946 413.743L122.97 395.842Z" fill="white"/>
<path d="M106.187 419.124C106.854 419.269 107.114 420.094 106.659 420.608L101.576 426.316C101.12 426.829 100.287 426.646 100.079 425.988L97.7546 418.661C97.547 418.002 98.1172 417.36 98.7835 417.505L106.191 419.124H106.187Z" fill="#EDEDED"/>
<path d="M15.149 616.36H43.4228V541.475H15.149V616.36ZM16.6397 546.317V543.497H19.4135V546.317H16.6397ZM16.6397 552.548V549.728H19.4135V552.548H16.6397ZM16.6397 558.779V555.959H19.4135V558.779H16.6397ZM16.6397 565.01V562.19H19.4135V565.01H16.6397ZM16.6397 571.241V568.421H19.4135V571.241H16.6397ZM16.6397 577.472V574.652H19.4135V577.472H16.6397ZM16.6397 583.703V580.883H19.4135V583.703H16.6397ZM16.6397 589.934V587.114H19.4135V589.934H16.6397ZM16.6397 596.165V593.345H19.4135V596.165H16.6397ZM16.6397 602.396V599.576H19.4135V602.396H16.6397ZM16.6397 608.626V605.807H19.4135V608.626H16.6397ZM16.6397 614.857V612.038H19.4135V614.857H16.6397ZM41.5726 612.038V614.857H38.7988V612.038H41.5726ZM41.5726 605.807V608.626H38.7988V605.807H41.5726ZM41.5726 599.576V602.396H38.7988V599.576H41.5726ZM35.4424 598.612C36.1924 598.612 36.7999 599.23 36.7999 599.992V613.878C36.7999 614.64 36.1924 615.258 35.4424 615.258H23.1263C22.3763 615.258 21.7688 614.64 21.7688 613.878V599.992C21.7688 599.23 22.3763 598.612 23.1263 598.612H35.4424ZM41.5726 593.345V596.165H38.7988V593.345H41.5726ZM41.5726 587.114V589.934H38.7988V587.114H41.5726ZM41.5726 580.883V583.703H38.7988V580.883H41.5726ZM35.4424 579.932C36.1924 579.932 36.7999 580.549 36.7999 581.312V595.197C36.7999 595.96 36.1924 596.577 35.4424 596.577H23.1263C22.3763 596.577 21.7688 595.96 21.7688 595.197V581.312C21.7688 580.549 22.3763 579.932 23.1263 579.932H35.4424ZM41.5726 574.652V577.472H38.7988V574.652H41.5726ZM41.5726 568.421V571.241H38.7988V568.421H41.5726ZM41.5726 562.19V565.01H38.7988V562.19H41.5726ZM35.4424 561.252C36.1924 561.252 36.7999 561.869 36.7999 562.631V576.517C36.7999 577.279 36.1924 577.897 35.4424 577.897H23.1263C22.3763 577.897 21.7688 577.279 21.7688 576.517V562.631C21.7688 561.869 22.3763 561.252 23.1263 561.252H35.4424ZM41.5726 555.959V558.779H38.7988V555.959H41.5726ZM41.5726 549.728V552.548H38.7988V549.728H41.5726ZM41.5726 543.497V546.317H38.7988V543.497H41.5726ZM35.4424 542.568C36.1924 542.568 36.7999 543.186 36.7999 543.948V557.834C36.7999 558.596 36.1924 559.214 35.4424 559.214H23.1263C22.3763 559.214 21.7688 558.596 21.7688 557.834V543.948C21.7688 543.186 22.3763 542.568 23.1263 542.568H35.4424Z" fill="#5C4FA1"/>
<path d="M275.338 501.61H303.611V426.725H275.338V501.61ZM276.828 431.567V428.748H279.602V431.567H276.828ZM276.828 437.798V434.978H279.602V437.798H276.828ZM276.828 444.029V441.209H279.602V444.029H276.828ZM276.828 450.26V447.44H279.602V450.26H276.828ZM276.828 456.491V453.671H279.602V456.491H276.828ZM276.828 462.722V459.902H279.602V462.722H276.828ZM276.828 468.953V466.133H279.602V468.953H276.828ZM276.828 475.184V472.364H279.602V475.184H276.828ZM276.828 481.415V478.595H279.602V481.415H276.828ZM276.828 487.646V484.826H279.602V487.646H276.828ZM276.828 493.877V491.057H279.602V493.877H276.828ZM276.828 500.108V497.288H279.602V500.108H276.828ZM301.761 497.288V500.108H298.987V497.288H301.761ZM301.761 491.057V493.877H298.987V491.057H301.761ZM301.761 484.826V487.646H298.987V484.826H301.761ZM295.631 483.862C296.381 483.862 296.988 484.48 296.988 485.242V499.128C296.988 499.89 296.381 500.508 295.631 500.508H283.315C282.565 500.508 281.957 499.89 281.957 499.128V485.242C281.957 484.48 282.565 483.862 283.315 483.862H295.631ZM301.761 478.595V481.415H298.987V478.595H301.761ZM301.761 472.364V475.184H298.987V472.364H301.761ZM301.761 466.133V468.953H298.987V466.133H301.761ZM295.631 465.182C296.381 465.182 296.988 465.799 296.988 466.562V480.448C296.988 481.21 296.381 481.827 295.631 481.827H283.315C282.565 481.827 281.957 481.21 281.957 480.448V466.562C281.957 465.799 282.565 465.182 283.315 465.182H295.631ZM301.761 459.902V462.722H298.987V459.902H301.761ZM301.761 453.671V456.491H298.987V453.671H301.761ZM301.761 447.44V450.26H298.987V447.44H301.761ZM295.631 446.502C296.381 446.502 296.988 447.119 296.988 447.881V461.767C296.988 462.53 296.381 463.147 295.631 463.147H283.315C282.565 463.147 281.957 462.53 281.957 461.767V447.881C281.957 447.119 282.565 446.502 283.315 446.502H295.631ZM301.761 441.209V444.029H298.987V441.209H301.761ZM301.761 434.978V437.798H298.987V434.978H301.761ZM301.761 428.748V431.567H298.987V428.748H301.761ZM295.631 427.818C296.381 427.818 296.988 428.436 296.988 429.198V443.084C296.988 443.846 296.381 444.464 295.631 444.464H283.315C282.565 444.464 281.957 443.846 281.957 443.084V429.198C281.957 428.436 282.565 427.818 283.315 427.818H295.631Z" fill="#5C4FA1"/>
<path d="M204.555 566.909H172.271V585.936H204.555V566.909Z" fill="#DCDBDB"/>
<path d="M262.857 471.608H110.005C108.508 471.608 107.294 472.842 107.294 474.365V565.337C107.294 566.86 108.508 568.094 110.005 568.094H262.857C264.355 568.094 265.569 566.86 265.569 565.337V474.365C265.569 472.842 264.355 471.608 262.857 471.608Z" fill="#DCDBDB"/>
<path d="M256.9 471.608H104.049C102.551 471.608 101.337 472.842 101.337 474.365V565.337C101.337 566.86 102.551 568.094 104.049 568.094H256.9C258.398 568.094 259.612 566.86 259.612 565.337V474.365C259.612 472.842 258.398 471.608 256.9 471.608Z" fill="#F4F4F5"/>
<path d="M255.211 562.745V476.954C255.211 476.107 254.536 475.42 253.702 475.42H107.244C106.411 475.42 105.735 476.107 105.735 476.954V562.745C105.735 563.592 106.411 564.279 107.244 564.279H253.702C254.536 564.279 255.211 563.592 255.211 562.745Z" fill="#5C4FA1"/>
<path fill-rule="evenodd" clip-rule="evenodd" d="M254.816 476.954C254.816 476.356 254.334 475.84 253.702 475.84H107.244C106.612 475.84 106.131 476.356 106.131 476.954V562.745C106.131 563.342 106.612 563.858 107.244 563.858H253.702C254.334 563.858 254.816 563.342 254.816 562.745V476.954ZM253.702 474.999C254.738 474.999 255.607 475.857 255.607 476.954V562.745C255.607 563.842 254.738 564.699 253.702 564.699H107.244C106.209 564.699 105.339 563.842 105.339 562.745V476.954C105.339 475.857 106.209 474.999 107.244 474.999H253.702Z" fill="#5C4FA1"/>
<path d="M196.615 566.909H164.331V585.936H196.615V566.909Z" fill="#F2F2F3"/>
<path d="M217.141 594.996H162.196V585.936H208.228C213.149 585.936 217.141 589.993 217.141 594.996Z" fill="#DCDBDB"/>
<path d="M187.06 594.996H132.115C132.115 589.993 136.107 585.936 141.028 585.936H178.147C183.069 585.936 187.06 589.993 187.06 594.996Z" fill="#F4F4F5"/>
<path d="M205.25 448.981H84.1739C81.0725 448.981 78.5582 451.536 78.5582 454.689V523.182C78.5582 526.335 81.0725 528.89 84.1739 528.89H205.25C208.351 528.89 210.865 526.335 210.865 523.182V454.689C210.865 451.536 208.351 448.981 205.25 448.981Z" fill="#F8B218"/>
<path fill-rule="evenodd" clip-rule="evenodd" d="M92.2627 455.922C89.3815 455.922 87.0636 458.291 87.0636 461.197V526.991C87.0636 529.897 89.3815 532.266 92.2627 532.266H208.566C211.447 532.266 213.765 529.897 213.765 526.991V461.013C213.669 458.191 211.389 455.922 208.569 455.922H92.2627ZM214.004 459.85C213.41 457.35 211.197 455.504 208.569 455.504H92.2627C89.1811 455.504 86.6705 458.043 86.6705 461.197V526.991C86.6705 530.145 89.1811 532.684 92.2627 532.684H208.566C211.647 532.684 214.158 530.145 214.158 526.991V461.406H214.161V459.851L214.004 459.85Z" fill="#5C4FA1"/>
<path d="M210.865 454.689V465.834H78.5582V454.689C78.5582 451.536 81.0725 448.981 84.1739 448.981H205.25C208.351 448.981 210.865 451.536 210.865 454.689Z" fill="#E99D23"/>
<path d="M210.865 508.068H78.5581V520.7H210.865V508.068Z" fill="#E0E4F0"/>
<path d="M210.865 493.02H78.5581V505.652H210.865V493.02Z" fill="#E0E4F0"/>
<path d="M210.865 477.972H78.5581V490.604H210.865V477.972Z" fill="#F8B218"/>
<path d="M210.865 472.418H78.5581V475.559H210.865V472.418Z" fill="#5C4FA1"/>
<path d="M84.428 469.148H82.9001V473.731H84.428V469.148Z" fill="#5C4FA1"/>
<path d="M104.777 469.148H103.249V473.731H104.777V469.148Z" fill="#5C4FA1"/>
<path d="M125.127 469.148H123.599V473.731H125.127V469.148Z" fill="#5C4FA1"/>
<path d="M145.476 469.148H143.948V473.731H145.476V469.148Z" fill="#5C4FA1"/>
<path d="M165.825 469.148H164.297V473.731H165.825V469.148Z" fill="#5C4FA1"/>
<path d="M186.177 469.148H184.649V473.731H186.177V469.148Z" fill="#5C4FA1"/>
<path d="M206.527 469.148H204.999V473.731H206.527V469.148Z" fill="#5C4FA1"/>
<path d="M182.412 495.496H178.221L182.412 499.752V495.496Z" fill="#2E2E7F"/>
<path d="M186.599 495.496H182.412V499.752L186.599 495.496Z" fill="#5C4FA1"/>
<path d="M182.412 503.179H178.221L182.412 498.923V503.179Z" fill="#2E2E7F"/>
<path d="M186.598 503.179L182.412 503.179V498.923L186.598 503.179Z" fill="#5C4FA1"/>
<path d="M123.245 510.544H119.058L123.245 514.8V510.544Z" fill="#2E2E7F"/>
<path d="M127.435 510.544L123.245 510.544V514.8L127.435 510.544Z" fill="#5C4FA1"/>
<path d="M123.245 518.227H119.058L123.245 513.971V518.227Z" fill="#2E2E7F"/>
<path d="M127.436 518.227H123.245V513.971L127.436 518.227Z" fill="#5C4FA1"/>
<path d="M98.709 499.336L103.215 503.919V494.755L98.709 499.336Z" fill="#2E2E7F"/>
<path d="M103.215 494.755V503.919L107.725 499.336L103.215 494.755Z" fill="#5C4FA1"/>
<path d="M136.507 499.336L141.013 503.919V494.755L136.507 499.336Z" fill="#2E2E7F"/>
<path d="M141.013 494.755V503.919L145.522 499.336L141.013 494.755Z" fill="#5C4FA1"/>
<path d="M84.6141 514.384L89.1203 518.967V509.804L84.6141 514.384Z" fill="#2E2E7F"/>
<path fill-rule="evenodd" clip-rule="evenodd" d="M89.3822 509.152V519.619L84.2349 514.384L89.3822 509.152ZM84.993 514.384L88.8581 518.315V510.455L84.993 514.384Z" fill="#5C4FA1"/>
<path d="M89.1203 509.804V518.967L93.6296 514.384L89.1203 509.804Z" fill="#5C4FA1"/>
<path fill-rule="evenodd" clip-rule="evenodd" d="M88.8582 509.152L94.0087 514.384L88.8582 519.619V509.152ZM89.3823 510.455V518.316L93.2503 514.384L89.3823 510.455Z" fill="#5C4FA1"/>
<path d="M156.016 514.384L160.522 518.967V509.804L156.016 514.384Z" fill="#2E2E7F"/>
<path d="M160.522 509.804V518.967L165.028 514.384L160.522 509.804Z" fill="#5C4FA1"/>
<path d="M195.227 514.384L199.733 518.967V509.804L195.227 514.384Z" fill="#2E2E7F"/>
<path d="M199.733 509.804V518.967L204.239 514.384L199.733 509.804Z" fill="#5C4FA1"/>
<path d="M210.865 480.293H78.5581V488.282H210.865V480.293Z" fill="#E0E4F0"/>
<path d="M136.507 480.293H78.5581V488.282H136.507V480.293Z" fill="#E99D23"/>
<path d="M138.019 477.924C138.019 477.074 137.34 476.387 136.507 476.387C135.673 476.387 134.994 477.077 134.994 477.924C134.994 478.671 135.521 479.295 136.215 479.433V488.282H136.798V479.433C137.495 479.295 138.019 478.674 138.019 477.924Z" fill="white"/>
<path fill-rule="evenodd" clip-rule="evenodd" d="M227.649 434.255C222.043 436.219 219.08 442.423 221.004 448.099C222.929 453.775 229.024 456.804 234.63 454.84C240.236 452.876 243.199 446.672 241.274 440.996C239.349 435.321 233.254 432.291 227.649 434.255ZM220.507 448.273C218.478 442.291 221.607 435.786 227.471 433.731C233.335 431.676 239.743 434.84 241.772 440.822C243.801 446.804 240.672 453.309 234.808 455.364C228.944 457.419 222.536 454.255 220.507 448.273Z" fill="#F7B21A"/>
<path d="M229.157 454.661C235.223 454.661 240.14 449.662 240.14 443.496C240.14 437.331 235.223 432.332 229.157 432.332C223.091 432.332 218.173 437.331 218.173 443.496C218.173 449.662 223.091 454.661 229.157 454.661Z" fill="#E99D23"/>
<path d="M234.614 442.504C235.364 442.945 235.364 444.045 234.614 444.486L226.271 449.381C225.521 449.822 224.582 449.271 224.582 448.392V438.601C224.582 437.722 225.521 437.171 226.271 437.612L234.614 442.507V442.504Z" fill="white"/>
<path fill-rule="evenodd" clip-rule="evenodd" d="M68.5573 564.729C67.1494 570.835 70.8755 576.983 76.9333 578.426C82.9912 579.869 89.0167 576.044 90.4246 569.938C91.8325 563.832 88.1064 557.684 82.0485 556.241C75.9906 554.798 69.9651 558.623 68.5573 564.729ZM76.6839 579.508C70.0999 577.939 65.9795 571.229 67.5344 564.485C69.0893 557.741 75.714 553.591 82.298 555.159C88.882 556.728 93.0023 563.438 91.4474 570.182C89.8925 576.925 83.2679 581.076 76.6839 579.508Z" fill="#F7B21A"/>
<path d="M89.0573 568.444C90.5585 562.024 86.6552 555.583 80.3389 554.057C74.0227 552.531 67.6853 556.498 66.1841 562.919C64.6828 569.339 68.5861 575.78 74.9024 577.306C81.2187 578.832 87.556 574.864 89.0573 568.444Z" fill="#F8B218"/>
<path d="M73.9125 558.659C74.8144 558.659 75.5489 559.402 75.5489 560.322V571.067C75.5489 571.984 74.8175 572.731 73.9125 572.731C73.0107 572.731 72.2762 571.987 72.2762 571.067V560.322C72.2762 559.406 73.0076 558.659 73.9125 558.659Z" fill="white"/>
<path fill-rule="evenodd" clip-rule="evenodd" d="M73.9126 558.938C73.1416 558.938 72.5383 559.571 72.5383 560.322V571.067C72.5383 571.822 73.144 572.452 73.9126 572.452C74.6836 572.452 75.2869 571.819 75.2869 571.067V560.322C75.2869 559.568 74.6812 558.938 73.9126 558.938ZM72.0142 560.322C72.0142 559.241 72.8737 558.381 73.9126 558.381C74.9478 558.381 75.811 559.237 75.811 560.322V571.067C75.811 572.149 74.9515 573.009 73.9126 573.009C72.8774 573.009 72.0142 572.153 72.0142 571.067V560.322Z" fill="#5C4FA1"/>
<path d="M81.3351 558.659C82.237 558.659 82.9715 559.402 82.9715 560.322V571.067C82.9715 571.984 82.2401 572.731 81.3351 572.731C80.4332 572.731 79.6987 571.987 79.6987 571.067V560.322C79.6987 559.406 80.4301 558.659 81.3351 558.659Z" fill="white"/>
<path fill-rule="evenodd" clip-rule="evenodd" d="M81.3352 558.938C80.5642 558.938 79.9609 559.571 79.9609 560.322V571.067C79.9609 571.822 80.5666 572.452 81.3352 572.452C82.1062 572.452 82.7095 571.819 82.7095 571.067V560.322C82.7095 559.568 82.1037 558.938 81.3352 558.938ZM79.4367 560.322C79.4367 559.241 80.2963 558.381 81.3352 558.381C82.3703 558.381 83.2336 559.237 83.2336 560.322V571.067C83.2336 572.149 82.3741 573.009 81.3352 573.009C80.3 573.009 79.4367 572.153 79.4367 571.067V560.322Z" fill="#5C4FA1"/>
<path d="M74.7029 594.996H64.6646V629.162H74.7029V594.996Z" fill="#E99D23"/>
<path d="M341 594.996H235.163V604.884H341V594.996Z" fill="#E99D23"/>
<path d="M269.52 594.996H58.4632V604.884H269.52V594.996Z" fill="#F8B218"/>
<path d="M68.5014 594.996H58.4632V629.162H68.5014V594.996Z" fill="#F8B218"/>
<path d="M275.338 594.996H265.299V629.162H275.338V594.996Z" fill="#E99D23"/>
<path d="M269.136 594.996H259.098V629.162H269.136V594.996Z" fill="#F8B218"/>
<path d="M236.635 587.458H231.909C227.812 587.458 225.673 590.831 225.673 594.996H244.051C244.051 590.831 240.732 587.458 236.635 587.458Z" fill="#B7BBC4"/>
<path d="M231.342 587.458H229.795C225.698 587.458 222.379 590.831 222.379 594.996H238.758C238.758 590.831 235.439 587.458 231.342 587.458Z" fill="#E0E4F0"/>
<path d="M230.768 587.458H230.365V594.996H230.768V587.458Z" fill="#8A8D94"/>
<path d="M298.805 537.708H240.236C238.959 537.708 237.924 538.76 237.924 540.057V577.9C237.924 579.198 238.959 580.25 240.236 580.25H298.805C300.081 580.25 301.117 579.198 301.117 577.9V540.057C301.117 538.76 300.081 537.708 298.805 537.708Z" fill="#2E2E7F"/>
<path d="M290.211 545.517H244.544C243.45 545.517 242.564 544.616 242.564 543.504C242.564 542.392 243.45 541.491 244.544 541.491H290.211C291.305 541.491 292.191 542.392 292.191 543.504C292.191 544.616 291.305 545.517 290.211 545.517Z" fill="white"/>
<path d="M272.517 553.19H244.544C243.45 553.19 242.564 552.289 242.564 551.177C242.564 550.065 243.45 549.164 244.544 549.164H272.517C273.611 549.164 274.498 550.065 274.498 551.177C274.498 552.289 273.611 553.19 272.517 553.19Z" fill="white"/>
<path d="M282.168 560.861H244.544C243.45 560.861 242.564 559.96 242.564 558.848C242.564 557.736 243.45 556.835 244.544 556.835H282.168C283.262 556.835 284.149 557.736 284.149 558.848C284.149 559.96 283.262 560.861 282.168 560.861Z" fill="white"/>
<path d="M257.118 568.532H244.544C243.45 568.532 242.564 567.631 242.564 566.519C242.564 565.407 243.45 564.506 244.544 564.506H257.118C258.212 564.506 259.098 565.407 259.098 566.519C259.098 567.631 258.212 568.532 257.118 568.532Z" fill="white"/>
<path d="M270.909 576.202H244.544C243.45 576.202 242.564 575.301 242.564 574.189C242.564 573.077 243.45 572.176 244.544 572.176H270.909C272.003 572.176 272.889 573.077 272.889 574.189C272.889 575.301 272.003 576.202 270.909 576.202Z" fill="white"/>
<path d="M232.169 524.691L230.176 517.131C230.015 516.523 230.564 515.965 231.162 516.129L238.6 518.155C239.331 518.353 239.412 519.374 238.724 519.692L236.465 520.735L239.207 523.522C239.694 524.017 239.694 524.817 239.207 525.312C238.721 525.806 237.934 525.806 237.447 525.312L234.704 522.524L233.678 524.82C233.365 525.52 232.361 525.435 232.166 524.694L232.169 524.691Z" fill="white"/>
<path d="M173.647 421.389H144.053C140.433 421.389 137.498 424.372 137.498 428.051C137.498 429.299 137.842 430.461 138.428 431.457L136.702 436.894C136.308 438.135 137.644 439.206 138.738 438.526L144.887 434.714H173.647C177.267 434.714 180.202 431.731 180.202 428.051C180.202 424.372 177.267 421.389 173.647 421.389Z" fill="#F8B218"/>
<path d="M144.924 430.981C146.562 430.981 147.89 429.631 147.89 427.966C147.89 426.301 146.562 424.952 144.924 424.952C143.286 424.952 141.958 426.301 141.958 427.966C141.958 429.631 143.286 430.981 144.924 430.981Z" fill="white"/>
<path d="M154.101 430.981C155.739 430.981 157.067 429.631 157.067 427.966C157.067 426.301 155.739 424.952 154.101 424.952C152.463 424.952 151.135 426.301 151.135 427.966C151.135 429.631 152.463 430.981 154.101 430.981Z" fill="white"/>
<path d="M166.243 427.966C166.243 429.63 164.917 430.981 163.277 430.981C161.638 430.981 160.311 429.633 160.311 427.966C160.311 426.3 161.638 424.952 163.277 424.952C164.917 424.952 166.243 426.3 166.243 427.966Z" fill="white"/>
<path d="M172.454 430.981C174.092 430.981 175.42 429.631 175.42 427.966C175.42 426.301 174.092 424.952 172.454 424.952C170.816 424.952 169.488 426.301 169.488 427.966C169.488 429.631 170.816 430.981 172.454 430.981Z" fill="white"/>
<path d="M33.0964 512.028H62.6905C66.3103 512.028 69.2452 515.011 69.2452 518.69C69.2452 519.938 68.9012 521.1 68.3155 522.095L70.0417 527.533C70.4353 528.774 69.0996 529.845 68.0056 529.164L61.8568 525.353H33.0964C29.4766 525.353 26.5416 522.37 26.5416 518.69C26.5416 515.011 29.4766 512.028 33.0964 512.028Z" fill="#F8B218"/>
<path d="M58.8537 518.605C58.8537 520.268 60.1801 521.62 61.8196 521.62C63.459 521.62 64.7855 520.272 64.7855 518.605C64.7855 516.939 63.459 515.59 61.8196 515.59C60.1801 515.59 58.8537 516.939 58.8537 518.605Z" fill="white"/>
<path d="M49.6769 518.605C49.6769 520.268 51.0034 521.62 52.6429 521.62C54.2823 521.62 55.6088 520.272 55.6088 518.605C55.6088 516.939 54.2823 515.59 52.6429 515.59C51.0034 515.59 49.6769 516.939 49.6769 518.605Z" fill="white"/>
<path d="M40.5003 518.605C40.5003 520.268 41.8268 521.62 43.4662 521.62C45.1057 521.62 46.4321 520.272 46.4321 518.605C46.4321 516.939 45.1057 515.59 43.4662 515.59C41.8268 515.59 40.5003 516.939 40.5003 518.605Z" fill="white"/>
<path d="M31.3236 518.605C31.3236 520.268 32.65 521.62 34.2895 521.62C35.929 521.62 37.2554 520.272 37.2554 518.605C37.2554 516.939 35.929 515.59 34.2895 515.59C32.65 515.59 31.3236 516.939 31.3236 518.605Z" fill="white"/>
</svg>
