<svg title="logoIcon" width="63" height="36" viewBox="0 0 63 36" fill="none" xmlns="http://www.w3.org/2000/svg">
<path fill-rule="evenodd" clip-rule="evenodd" d="M18.3351 7.76786C18.0767 7.76786 17.8349 7.85725 17.6614 8.00804C17.4888 8.15795 17.3976 8.35546 17.3976 8.55563V32.4443C17.3976 32.6445 17.4888 32.842 17.6614 32.9919C17.8349 33.1427 18.0767 33.2321 18.3351 33.2321H40.835C41.0933 33.2321 41.335 33.1427 41.5088 32.9919C41.6813 32.842 41.7725 32.6445 41.7725 32.4443L41.5088 17.4354C40.8213 18.4348 39.7648 16.6562 39.585 16.5L32.9701 8.00538C32.7949 7.85315 32.5592 7.76786 32.3137 7.76786H18.3351ZM15.4732 6.03197C16.2373 5.36821 17.2673 5 18.3351 5H32.3137C33.3775 5 34.3988 5.36957 35.1583 6.02931L37.085 8.5L39.585 16.5C40.364 17.1767 44.8975 17.7922 44.8975 18.7586V32.4443C44.8975 33.3962 44.4621 34.3034 43.6968 34.9681C42.9328 35.6318 41.9028 36 40.835 36H18.3351C17.2673 36 16.2373 35.6318 15.4732 34.9681C14.7081 34.3034 14.2725 33.3962 14.2725 32.4443V8.55563C14.2725 7.60384 14.7081 6.69661 15.4732 6.03197ZM30.044 19.1426C30.044 18.3782 30.7436 17.7586 31.6065 17.7586H37.2316C38.0946 17.7586 38.7941 18.3782 38.7941 19.1426C38.7941 19.9069 38.0946 20.5265 37.2316 20.5265H31.6065C30.7436 20.5265 30.044 19.9069 30.044 19.1426ZM31.6065 25.8349C30.7436 25.8349 30.044 26.4545 30.044 27.2188C30.044 27.9832 30.7436 28.6027 31.6065 28.6027H37.2316C38.0946 28.6027 38.7941 27.9832 38.7941 27.2188C38.7941 26.4545 38.0946 25.8349 37.2316 25.8349H31.6065ZM28.0033 23.3272C28.8404 23.8672 29.0248 24.9059 28.4151 25.6473L24.924 29.8932C24.6031 30.2834 24.1065 30.5305 23.5634 30.5706C23.0203 30.6104 22.4845 30.439 22.0954 30.1011L20.0007 28.2814C19.2614 27.6393 19.2499 26.5878 19.9749 25.933C20.7 25.2782 21.8871 25.268 22.6264 25.9102L23.1709 26.3832L25.3839 23.6919C25.9935 22.9506 27.1663 22.7872 28.0033 23.3272ZM28.4151 17.4354C29.0248 16.694 28.8404 15.6552 28.0033 15.1153C27.1663 14.5753 25.9935 14.7386 25.3839 15.48L23.1709 18.1712L22.6264 17.6982C21.8871 17.056 20.7 17.0662 19.9749 17.7211C19.2499 18.3759 19.2614 19.4273 20.0007 20.0695L22.0954 21.8892C22.4845 22.2272 23.0203 22.3985 23.5634 22.3586C24.1065 22.3186 24.6031 22.0714 24.924 21.6812L28.4151 17.4354Z" fill="white"/>
<path fill-rule="evenodd" clip-rule="evenodd" d="M43.5851 2.58929C40.9617 2.58929 38.835 4.7919 38.835 7.50897V12.1696C38.835 14.8867 40.9617 17.0893 43.5851 17.0893C46.2084 17.0893 48.3351 14.8867 48.3351 12.1696V7.50897C48.3351 4.7919 46.2084 2.58929 43.5851 2.58929ZM36.335 7.50897C36.335 3.36187 39.581 0 43.5851 0C47.5891 0 50.8351 3.36187 50.8351 7.50897V12.1696C50.8351 16.3167 47.5891 19.6786 43.5851 19.6786C39.581 19.6786 36.335 16.3167 36.335 12.1696V7.50897ZM44.5851 25.0239C50.7814 24.2562 56.0851 18.794 56.0851 12.1696C56.0851 11.3116 55.4135 10.6161 54.5851 10.6161C53.7567 10.6161 53.0851 11.3116 53.0851 12.1696C53.0851 17.6037 48.8318 22.0089 43.5851 22.0089C42.0851 22.0089 42.5851 26.9341 42.5851 21.5C42.5851 20.642 43.9135 21.5 43.0851 21.5C42.2566 21.5 42.5851 22.642 42.5851 23.5C42.5851 30.1243 43.5851 24 42.0851 25.0239V27.4464C42.0851 28.3044 42.7567 29 43.5851 29C44.4135 29 44.0851 28.3044 44.0851 27.4464L44.5851 25.0239Z" fill="white"/>
<path d="M8.4304 8.45312C8.36411 7.83286 8.08475 7.34991 7.59233 7.00426C7.10464 6.65862 6.47017 6.4858 5.68892 6.4858C5.13968 6.4858 4.66856 6.56866 4.27557 6.73438C3.88258 6.90009 3.58191 7.125 3.37358 7.40909C3.16525 7.69318 3.05871 8.01752 3.05398 8.3821C3.05398 8.68513 3.12263 8.94792 3.25994 9.17045C3.40199 9.39299 3.59375 9.58239 3.83523 9.73864C4.0767 9.89015 4.34422 10.018 4.63778 10.1222C4.93134 10.2263 5.22727 10.3139 5.52557 10.3849L6.8892 10.7259C7.43845 10.8537 7.96638 11.0265 8.47301 11.2443C8.98438 11.4621 9.44129 11.7367 9.84375 12.0682C10.2509 12.3996 10.5729 12.7997 10.8097 13.2685C11.0464 13.7372 11.1648 14.2865 11.1648 14.9162C11.1648 15.7685 10.947 16.5189 10.5114 17.1676C10.0758 17.8116 9.44602 18.3158 8.62216 18.6804C7.80303 19.0402 6.81108 19.2202 5.64631 19.2202C4.51468 19.2202 3.5322 19.045 2.69886 18.6946C1.87027 18.3442 1.22159 17.8329 0.752841 17.1605C0.288826 16.4882 0.0378788 15.669 0 14.7031H2.59233C2.63021 15.2098 2.78646 15.6312 3.06108 15.9673C3.3357 16.3035 3.69318 16.5545 4.13352 16.7202C4.5786 16.8859 5.07576 16.9688 5.625 16.9688C6.19792 16.9688 6.69981 16.8835 7.13068 16.7131C7.56629 16.5379 7.9072 16.2964 8.15341 15.9886C8.39962 15.6761 8.52509 15.3116 8.52983 14.8949C8.52509 14.5161 8.41383 14.2036 8.19602 13.9574C7.97822 13.7064 7.67282 13.4981 7.27983 13.3324C6.89157 13.1619 6.43703 13.0104 5.91619 12.8778L4.26136 12.4517C3.06345 12.1439 2.11648 11.6776 1.42045 11.0526C0.729167 10.4228 0.383523 9.58712 0.383523 8.54545C0.383523 7.68845 0.61553 6.93797 1.07955 6.29403C1.5483 5.65009 2.18513 5.15057 2.99006 4.79545C3.79498 4.43561 4.70644 4.25568 5.72443 4.25568C6.75663 4.25568 7.66098 4.43561 8.4375 4.79545C9.21875 5.15057 9.83191 5.64536 10.277 6.27983C10.7221 6.90956 10.9517 7.634 10.9659 8.45312H8.4304Z" fill="white"/>
<path d="M52.1513 36H49.3388L54.4595 21.4545H57.7124L62.8402 36H60.0277L56.1428 24.4375H56.0291L52.1513 36ZM52.2436 30.2969H59.9141V32.4134H52.2436V30.2969Z" fill="white"/>
</svg>
